<svg version="1.1" id="Layer_1" xmlns="http://www.w3.org/2000/svg" xmlns:xlink="http://www.w3.org/1999/xlink" x="0px" y="0px"
	 width="100%" viewBox="0 0 898 174" enable-background="new 0 0 898 174" xml:space="preserve">
<path fill="#FDFEFF" opacity="1.000000" stroke="none" 
	d="
M899.000000,149.000000 
	C899.000000,157.662720 899.000000,166.325455 899.000000,174.960327 
	C599.666687,174.960327 300.333344,174.960327 1.000000,174.960327 
	C1.000000,166.591141 1.000000,158.261612 1.463520,149.522400 
	C6.176661,149.112732 10.426282,149.112732 14.841694,149.112732 
	C14.841694,143.918549 14.841694,139.459702 14.927073,134.553116 
	C14.956869,131.070465 14.901289,128.035568 14.932144,124.553192 
	C14.960027,121.068756 14.901473,118.031776 14.925056,114.543335 
	C14.948531,110.728645 14.889868,107.365425 14.918079,103.552292 
	C15.015956,99.754929 15.026957,96.407486 15.495482,92.958801 
	C24.891479,92.812180 33.836838,92.969131 42.766518,92.665344 
	C51.979866,92.351898 60.814178,90.510086 68.406548,84.085129 
	C72.109138,80.312386 75.487785,76.649879 79.117706,72.744385 
	C81.137260,68.000671 82.905540,63.499958 84.836182,58.611717 
	C85.108238,54.125263 85.217934,50.026325 85.359024,45.507057 
	C84.983650,42.915974 84.879036,40.628399 84.096001,38.603130 
	C83.044815,35.884323 81.469353,33.368221 80.127045,30.397110 
	C77.071091,26.055984 74.007042,22.082851 70.775803,17.809975 
	C64.032867,12.242037 56.768536,8.156002 48.220825,7.992556 
	C32.486351,7.691689 16.740885,7.965620 1.000000,8.000000 
	C1.000000,5.667696 1.000000,3.335392 1.000000,1.050331 
	C300.333344,1.050331 599.666687,1.050331 899.000000,1.050331 
	C899.000000,25.756413 899.000000,50.412167 898.660156,75.426720 
	C896.700928,72.806625 895.081543,69.827721 893.368958,66.502151 
	C890.874512,63.378792 888.473267,60.602108 885.922302,57.528915 
	C869.179260,42.618317 844.996948,42.860939 828.609375,57.982605 
	C825.885559,61.442371 823.447693,64.722595 820.739868,68.217545 
	C819.283203,71.610909 818.096436,74.789551 816.681396,78.277275 
	C816.103027,82.725357 815.752991,86.864357 815.306519,91.452232 
	C815.274841,95.265488 815.339539,98.629868 815.309692,102.431107 
	C815.480713,106.245712 815.746216,109.623466 815.969788,113.404999 
	C816.900208,116.964706 817.872559,120.120636 818.876587,123.628143 
	C820.887390,127.086670 822.866577,130.193604 824.959473,133.607361 
	C827.006714,135.704498 828.940125,137.494827 831.050659,139.565094 
	C837.365601,142.628662 843.345764,147.299789 849.671875,147.827896 
	C866.033203,149.193771 882.547058,148.731979 899.000000,149.000000 
M288.921906,62.312454 
	C286.945740,60.548637 284.969604,58.784821 282.450012,56.618793 
	C269.691956,43.227592 242.850327,43.085667 228.175949,56.794037 
	C225.181625,60.543446 222.187302,64.292854 218.629654,68.459984 
	C217.274490,72.298523 215.919327,76.137062 214.196228,80.756203 
	C214.012360,84.511391 213.828491,88.266571 213.368790,92.899345 
	C213.460327,96.613388 213.551865,100.327423 213.367004,104.906860 
	C213.655975,108.936302 213.944946,112.965744 214.123047,117.774933 
	C215.266953,121.221207 216.410843,124.667480 217.697021,128.839005 
	C220.228882,132.320816 222.760757,135.802628 225.627075,139.902390 
	C242.288345,157.389145 272.346802,156.917770 287.343964,138.648926 
	C289.741119,134.808304 292.138245,130.967697 295.003540,126.666534 
	C295.794006,123.426704 296.584442,120.186867 297.759094,116.101479 
	C297.828644,112.069016 297.898224,108.036552 298.168640,103.104782 
	C298.104523,99.735298 298.040375,96.365807 298.148041,92.098305 
	C297.794556,88.388687 297.441101,84.679062 297.171722,80.164490 
	C296.111359,77.110313 295.050995,74.056137 293.867126,70.314346 
	C292.272675,67.865768 290.678192,65.417183 288.921906,62.312454 
M610.010193,71.807838 
	C609.082153,74.876450 608.154114,77.945053 606.939697,81.802399 
	C606.804871,85.202164 606.669983,88.601921 606.259766,92.883339 
	C606.346680,96.595161 606.433594,100.306992 606.262207,104.897697 
	C606.592468,109.263580 606.922791,113.629471 607.188660,118.757965 
	C609.076721,123.301666 610.964783,127.845360 612.880127,133.066193 
	C615.939209,136.338364 618.998291,139.610550 622.369385,143.483231 
	C628.670044,148.814392 636.036804,151.835068 644.161255,152.461884 
	C656.721497,153.430893 668.276489,150.920364 677.796448,140.792297 
	C679.806946,138.508102 681.817383,136.223907 684.371521,133.526108 
	C685.565063,131.009979 686.758545,128.493851 688.466614,125.479492 
	C689.176514,122.312805 689.886353,119.146118 690.899841,115.134666 
	C690.909973,112.742798 690.920166,110.350937 691.218872,107.636101 
	C691.123474,107.105850 691.028076,106.575600 691.119629,105.295403 
	C691.055176,104.531067 690.990784,103.766724 691.129395,102.111534 
	C691.063232,99.073700 690.997131,96.035858 691.124146,92.101738 
	C690.922729,89.072891 690.721313,86.044044 690.681091,82.263878 
	C689.744568,79.176643 688.808105,76.089417 687.840698,72.297623 
	C686.372681,69.793961 684.904724,67.290298 683.184082,64.143570 
	C680.481262,61.418686 677.778503,58.693802 674.731812,55.358665 
	C656.061279,43.337368 639.767334,43.446964 622.284729,55.856510 
	C621.552551,56.581207 620.820374,57.305904 619.460510,58.260403 
	C617.920288,60.151085 616.380127,62.041771 614.269165,64.270775 
	C613.034363,66.631714 611.799561,68.992653 610.010193,71.807838 
M726.659485,139.142029 
	C726.566589,136.761017 726.473694,134.380020 726.675903,131.127930 
	C726.577209,127.741325 726.478516,124.354729 726.657837,120.088737 
	C726.583069,116.065491 726.508301,112.042236 726.727234,107.128349 
	C726.633179,102.407455 726.539124,97.686562 726.677063,92.089455 
	C726.863281,88.550285 727.049500,85.011116 727.700500,80.913086 
	C729.669067,77.270027 731.637695,73.626968 734.179688,69.578255 
	C736.678650,67.496826 739.177612,65.415405 742.439758,63.354832 
	C752.718994,59.550621 762.598022,59.944614 772.191467,66.760872 
	C774.382996,68.869560 776.574463,70.978249 778.945435,73.786133 
	C780.167725,76.566277 781.390015,79.346420 782.648010,83.015602 
	C782.916687,85.684174 783.185303,88.352737 783.255310,91.907822 
	C783.324097,94.934044 783.392944,97.960258 783.247864,101.856720 
	C783.315308,104.240501 783.382751,106.624275 783.240234,109.893875 
	C783.305481,112.925247 783.370728,115.956627 783.229675,119.872177 
	C783.300842,122.589897 783.371948,125.307625 783.247192,128.911209 
	C783.313538,131.945068 783.379944,134.978943 783.242554,138.910172 
	C783.242554,142.166229 783.242554,145.422302 783.242554,148.756943 
	C788.242004,148.756943 792.607178,148.756943 797.126892,148.756943 
	C797.126892,145.243591 797.126892,142.121948 797.311035,138.106277 
	C797.252197,135.068710 797.193359,132.031143 797.320190,128.101288 
	C797.259949,125.068291 797.199707,122.035294 797.315186,118.108620 
	C797.252930,115.083023 797.190674,112.057426 797.432251,108.355957 
	C797.325073,105.896828 797.217896,103.437698 797.292175,100.086945 
	C797.233093,97.057213 797.174072,94.027489 797.299316,90.107742 
	C797.061523,87.402603 796.823792,84.697464 796.705750,81.253082 
	C795.807190,78.500748 794.908691,75.748413 793.945129,72.281212 
	C792.026184,69.168098 790.107239,66.054985 788.000732,62.282757 
	C785.031006,59.779915 782.061218,57.277077 778.739197,54.192619 
	C775.916809,52.552948 773.233887,50.579647 770.248047,49.330814 
	C756.660706,43.647964 741.460693,46.308594 732.606201,55.896179 
	C731.477600,57.602028 730.348999,59.307873 728.761658,61.496059 
	C728.549316,61.882450 728.336975,62.268841 727.293823,62.493362 
	C727.030884,62.390953 726.767944,62.288548 726.689941,61.378197 
	C726.626465,60.282055 726.562988,59.185909 726.781128,57.236317 
	C726.212952,54.719395 726.192810,50.403072 724.971313,50.031013 
	C721.627380,49.012505 717.770081,49.527966 714.135498,49.751949 
	C713.463806,49.793343 712.421326,51.277950 712.354919,52.157227 
	C712.208557,54.095154 712.575806,56.071857 712.620667,58.939655 
	C712.692505,62.294514 712.764404,65.649368 712.647034,69.896156 
	C712.709412,72.929688 712.771729,75.963219 712.646301,79.910995 
	C712.689392,84.252121 712.732422,88.593246 712.427856,93.673943 
	C712.392883,98.126663 712.357910,102.579376 712.044556,107.874252 
	C712.307190,112.252357 712.569824,116.630470 712.641113,121.899544 
	C712.704346,124.932068 712.767578,127.964592 712.652039,131.889359 
	C712.706909,134.912308 712.761841,137.935272 712.492126,141.652817 
	C712.454285,143.300262 712.088196,145.033920 712.490662,146.565704 
	C712.772095,147.637192 714.045044,149.149170 714.976807,149.225616 
	C718.698853,149.530930 722.460632,149.351562 726.812378,149.351562 
	C726.650269,145.804932 726.517395,142.897995 726.659485,139.142029 
M121.174774,54.104340 
	C121.108681,51.067951 121.042595,48.031567 121.147018,44.079319 
	C121.084023,39.719742 121.021034,35.360165 121.149368,30.095325 
	C121.087814,26.397078 121.026268,22.698828 121.155479,18.087948 
	C121.155479,14.814995 121.155479,11.542041 121.155479,8.187675 
	C116.196297,8.187675 111.845192,8.187675 107.379974,8.187675 
	C107.379974,12.079011 107.379974,15.540414 107.180023,19.902729 
	C107.248093,23.603416 107.316162,27.304104 107.185478,31.913271 
	C107.245758,36.265202 107.306038,40.617130 107.158340,45.862846 
	C107.220917,48.907066 107.283501,51.951290 107.159271,55.841984 
	C107.228264,57.568031 107.297249,59.294083 107.182877,61.889778 
	C107.246956,64.254608 107.311035,66.619431 107.173523,69.868660 
	C107.237732,72.582001 107.301941,75.295334 107.174225,78.915115 
	C107.239189,82.944550 107.304153,86.973984 107.173622,91.915520 
	C107.238396,96.612022 107.303169,101.308525 107.174599,106.917809 
	C107.241699,111.613304 107.308792,116.308807 107.187866,121.916824 
	C107.249504,126.274605 107.311134,130.632385 107.174004,135.904053 
	C107.174004,140.154434 107.174004,144.404831 107.174004,148.745789 
	C112.144730,148.745789 116.497025,148.745789 120.969505,148.745789 
	C120.969505,143.892303 120.969505,139.446518 121.151291,134.086029 
	C121.089478,129.724426 121.027657,125.362831 121.158600,120.085304 
	C121.097862,115.390045 121.037132,110.694794 121.157036,105.081734 
	C121.096756,100.388046 121.036476,95.694351 121.157631,90.176666 
	C121.827866,86.132820 122.498108,82.088982 123.658562,77.601761 
	C125.141754,75.081413 126.624954,72.561073 128.692505,69.758430 
	C130.496857,67.929787 132.301224,66.101135 134.905884,64.228523 
	C146.968506,59.087196 158.408554,59.763973 169.315262,68.510185 
	C171.650162,72.003082 173.985062,75.495987 176.294296,79.769310 
	C176.938812,83.512299 177.583328,87.255287 178.036514,91.903465 
	C178.104752,95.602699 178.172974,99.301941 178.041245,103.907074 
	C178.104187,107.935112 178.167114,111.963142 178.028793,116.895966 
	C178.095749,120.601135 178.162704,124.306305 178.041992,128.910141 
	C178.107941,132.273758 178.173889,135.637390 178.040512,139.899597 
	C178.040512,142.813705 178.040512,145.727814 178.040512,148.732361 
	C183.001724,148.732361 187.334900,148.732361 191.789139,148.732361 
	C191.789139,145.214371 191.789139,142.108292 191.989670,138.099686 
	C191.925964,134.403870 191.862244,130.708038 192.002258,126.112587 
	C191.935120,122.739258 191.867981,119.365929 191.990921,115.085228 
	C191.923950,111.056816 191.856979,107.028397 191.988846,102.096764 
	C191.925659,98.397636 191.862473,94.698517 191.990311,90.123436 
	C191.489975,86.378815 190.989655,82.634193 190.420090,78.094780 
	C188.605774,74.065231 186.791473,70.035683 184.888000,65.323509 
	C181.307510,61.735615 177.727005,58.147720 173.699081,54.061054 
	C172.439682,53.359566 171.090485,52.781013 169.935089,51.937130 
	C160.713745,45.202026 137.922836,43.431179 128.454224,54.500942 
	C126.953972,56.660881 125.453712,58.820820 123.485313,61.294491 
	C123.306038,61.816914 123.126762,62.339336 122.297150,63.012978 
	C121.861282,63.010406 121.425423,63.007832 121.138649,62.341919 
	C121.082916,61.895370 121.027184,61.448822 121.163864,60.160442 
	C121.108719,58.440041 121.053581,56.719639 121.174774,54.104340 
M337.085754,126.682449 
	C338.553864,129.209396 340.021942,131.736328 341.703644,134.927414 
	C344.409912,137.731750 347.116211,140.536087 350.164795,143.908051 
	C356.591156,149.051758 364.009521,151.743301 372.118561,152.542847 
	C373.431580,152.672302 376.021301,151.882019 376.012604,151.573257 
	C375.893524,147.331009 375.421906,143.098648 374.402100,138.460953 
	C368.691711,136.273941 362.981354,134.086929 357.028717,131.263947 
	C355.240601,129.179626 353.452484,127.095291 351.640503,124.299049 
	C350.359894,120.892609 349.079315,117.486168 347.943298,113.169861 
	C347.819885,110.124817 347.696472,107.079765 347.855499,103.143867 
	C347.763550,99.418015 347.671631,95.692162 347.824402,91.069046 
	C347.745514,86.390236 347.666656,81.711426 347.865173,76.147629 
	C348.232086,72.070221 348.599030,67.992821 349.897919,64.061745 
	C358.259552,63.964069 366.621216,63.866394 375.621429,63.716591 
	C375.741638,62.149590 375.861877,60.582588 376.167358,58.112247 
	C376.167358,55.530270 376.167358,52.948292 376.167358,49.930870 
	C372.604584,49.930870 369.807831,50.006279 367.016449,49.915672 
	C360.573456,49.706539 354.133087,49.416874 347.848907,48.255844 
	C347.760162,45.842545 347.671387,43.429245 347.857880,40.139053 
	C347.766388,37.085835 347.674927,34.032619 347.828461,30.086786 
	C347.735962,26.392431 347.643463,22.698076 347.821381,18.114273 
	C347.821381,14.843359 347.821381,11.572445 347.821381,8.176704 
	C342.848022,8.176704 338.477325,8.176704 333.995026,8.176704 
	C333.995026,10.404559 333.995026,12.212347 333.609467,14.726932 
	C333.747742,24.812645 333.886017,34.898357 333.826752,45.734093 
	C333.809204,47.012486 333.791687,48.290878 332.883636,49.756981 
	C329.738922,49.814945 326.594299,49.917843 323.449524,49.922916 
	C311.303864,49.942513 311.299774,49.931320 312.653137,62.162556 
	C312.704346,62.625504 312.986450,63.062904 313.354095,64.009384 
	C319.798553,64.009384 326.385101,64.009384 333.209137,64.870056 
	C333.478088,68.913956 333.747009,72.957863 333.823730,77.917641 
	C333.890228,82.610565 333.956726,87.303490 333.799255,92.896690 
	C333.875458,96.598770 333.951660,100.300842 333.834534,104.793655 
	C333.898163,105.870720 333.961792,106.947784 333.643097,108.594185 
	C333.827301,110.369637 334.011475,112.145081 334.050140,114.687218 
	C334.212616,115.440765 334.375122,116.194305 334.353149,117.694084 
	C335.262512,120.451530 336.171875,123.208977 337.085754,126.682449 
M584.902649,48.125568 
	C584.523987,44.751381 584.145386,41.377197 583.877075,37.250389 
	C582.220093,33.511097 580.563110,29.771807 578.826416,25.359112 
	C576.213501,22.580103 573.600586,19.801096 570.730347,16.488003 
	C569.926453,15.944343 569.122620,15.400682 568.066650,14.302889 
	C567.368408,13.979958 566.670105,13.657027 565.489868,12.854423 
	C563.855652,12.148842 562.221436,11.443262 560.127808,10.182698 
	C558.074219,9.668921 556.020569,9.155143 553.269897,8.274703 
	C552.491333,8.242293 551.712769,8.209885 550.265625,7.734915 
	C534.466370,7.648283 518.667175,7.537995 502.867950,7.542413 
	C502.047638,7.542643 501.227631,8.521545 500.157288,9.935492 
	C500.133972,12.580444 500.239197,15.234483 500.053009,17.867918 
	C499.846527,20.788671 500.790405,21.968493 503.936005,21.936245 
	C519.309143,21.778643 534.684326,21.828032 550.603455,22.266520 
	C554.741943,24.165939 558.880493,26.065359 563.296387,28.579214 
	C565.541382,32.051746 567.786316,35.524281 569.981812,39.834805 
	C570.331970,42.890102 570.682129,45.945404 570.651062,49.640812 
	C569.951477,52.380184 569.251892,55.119556 568.058594,58.267139 
	C566.033508,60.829689 564.008484,63.392239 561.286072,66.124313 
	C555.571655,69.999229 549.273193,71.524452 542.378296,71.331436 
	C538.966675,71.235939 535.532715,71.941406 531.373108,72.204254 
	C530.924438,72.390350 530.475830,72.576439 529.368225,72.559731 
	C527.698120,73.281693 526.028015,74.003662 523.675781,74.706573 
	C520.789307,76.481812 517.902832,78.257050 514.376526,80.234192 
	C511.447357,83.780617 508.518158,87.327049 505.068939,91.289345 
	C503.916504,94.653046 502.764069,98.016739 501.059631,101.949608 
	C500.868286,105.636856 500.676941,109.324104 500.276398,113.764748 
	C501.096222,116.867378 501.916077,119.970001 502.748016,123.836922 
	C504.711914,127.260582 506.675781,130.684250 508.820312,134.783081 
	C512.556213,137.829514 516.292053,140.875961 520.440369,144.497375 
	C526.461426,146.039444 532.432922,148.625183 538.513428,148.913437 
	C552.598816,149.581207 566.736877,149.148804 580.853577,149.126114 
	C582.121521,149.124069 583.389038,148.857925 584.773376,148.701233 
	C584.773376,145.907944 584.773376,143.455963 584.996582,140.149124 
	C584.926880,138.569641 584.857178,136.990158 584.797058,135.627914 
	C583.963013,135.319397 583.660156,135.110199 583.356506,135.109055 
	C570.440430,135.060242 557.507629,135.408005 544.615234,134.838272 
	C538.148743,134.552521 531.755859,132.600296 525.004761,130.867722 
	C522.459473,128.204086 519.914185,125.540451 517.227417,122.136734 
	C516.301758,119.752144 515.376160,117.367546 514.635437,114.090813 
	C514.663696,110.722504 514.691956,107.354195 515.074280,103.350258 
	C517.287964,99.566551 519.501648,95.782845 522.355591,91.672287 
	C527.877502,87.271133 534.161865,85.395668 541.216919,85.573822 
	C544.447144,85.655380 547.693604,85.092445 551.719727,84.927818 
	C552.472412,84.718521 553.225159,84.509224 554.683167,84.471573 
	C558.006409,83.068916 561.329651,81.666260 565.305237,80.207352 
	C566.857117,79.112991 568.409058,78.018639 570.625305,76.822052 
	C572.897644,74.267143 575.170044,71.712234 577.966064,68.779411 
	C579.558655,65.517235 581.151245,62.255054 583.186401,58.366539 
	C583.673523,55.238426 584.160583,52.110313 584.902649,48.125568 
M394.154114,114.794441 
	C395.091858,118.196442 396.029602,121.598442 396.959961,125.747192 
	C399.282074,129.555817 401.604156,133.364456 404.146912,137.795898 
	C406.452820,139.852753 408.758728,141.909607 411.369293,144.580902 
	C428.680725,155.804535 446.708191,155.614243 461.713623,143.785294 
	C463.817169,141.870712 465.920746,139.956131 468.654572,137.762665 
	C470.612122,134.573364 472.569672,131.384048 475.049988,127.790672 
	C476.186584,122.531334 477.323181,117.272003 478.746735,111.168091 
	C478.674530,109.112556 478.602356,107.057022 478.807129,104.119057 
	C478.722260,100.409256 478.637360,96.699463 478.812592,92.134987 
	C478.335449,87.770981 477.858307,83.406975 477.548828,78.335388 
	C475.951569,74.807564 474.354309,71.279747 472.573242,67.038918 
	C469.909149,63.920826 467.245026,60.802731 464.209991,57.087055 
	C447.111572,40.989208 418.736359,44.466225 405.261719,59.992619 
	C402.248352,65.329918 399.234985,70.667213 395.825897,76.681488 
	C395.276184,81.454247 394.726440,86.227013 393.957977,91.900383 
	C394.034515,95.599709 394.111084,99.299034 393.964142,103.893425 
	C394.088409,107.262413 394.212677,110.631409 394.154114,114.794441 
z"/>
<path fill="#FBFBFE" opacity="1.000000" stroke="none" 
	d="
M899.000000,103.000000 
	C899.000000,113.354225 899.000000,123.708458 898.531372,134.540741 
	C882.430054,134.854309 866.797241,134.689819 850.898438,134.320099 
	C847.074585,132.447510 843.516907,130.780136 839.781616,128.834869 
	C837.505310,126.335274 835.406494,124.113556 833.216187,121.533524 
	C832.045349,118.450584 830.965881,115.725952 829.901733,112.601288 
	C829.687317,109.248779 829.457581,106.296318 829.675354,103.263100 
	C853.081848,103.121559 876.040955,103.060783 899.000000,103.000000 
z"/>
<path fill="#4665E6" opacity="1.000000" stroke="none" 
	d="
M899.000000,102.539368 
	C876.040955,103.060783 853.081848,103.121559 829.396667,102.918343 
	C824.248413,102.434311 819.826355,102.214287 815.404236,101.994255 
	C815.339539,98.629868 815.274841,95.265488 815.738770,91.450500 
	C820.563232,90.294464 825.427612,92.804008 829.582703,88.785034 
	C848.649475,88.800934 867.260315,88.757095 886.091797,89.049698 
	C890.541687,89.924088 894.770813,90.462044 899.000000,91.000000 
	C899.000000,94.692909 899.000000,98.385818 899.000000,102.539368 
z"/>
<path fill="#08BCCE" opacity="1.000000" stroke="none" 
	d="
M1.000000,8.463183 
	C16.740885,7.965620 32.486351,7.691689 48.220825,7.992556 
	C56.768536,8.156002 64.032867,12.242037 70.615784,18.150787 
	C68.990730,19.529284 67.402702,20.765671 65.718292,20.915005 
	C59.836544,21.436464 53.921497,21.582272 47.552082,21.925720 
	C36.414333,22.050074 25.743601,22.119526 14.799849,21.862793 
	C10.017885,21.357737 5.508943,21.178867 1.000000,21.000000 
	C1.000000,16.975456 1.000000,12.950912 1.000000,8.463183 
z"/>
<path fill="#6D34ED" opacity="1.000000" stroke="none" 
	d="
M851.164490,134.525314 
	C866.797241,134.689819 882.430054,134.854309 898.531372,135.009399 
	C899.000000,139.356903 899.000000,143.713806 899.000000,148.535355 
	C882.547058,148.731979 866.033203,149.193771 849.671875,147.827896 
	C843.345764,147.299789 837.365601,142.628662 831.154541,139.147491 
	C834.195007,137.963531 837.328247,137.575378 840.417542,136.964981 
	C844.019897,136.253159 847.583862,135.347092 851.164490,134.525314 
z"/>
<path fill="#3E70E4" opacity="1.000000" stroke="none" 
	d="
M68.082603,84.195374 
	C60.814178,90.510086 51.979866,92.351898 42.766518,92.665344 
	C33.836838,92.969131 24.891479,92.812180 15.206083,92.654388 
	C9.972773,92.300797 5.486386,92.150398 1.000000,92.000000 
	C1.000000,88.638710 1.000000,85.277428 1.468656,81.456680 
	C21.482416,80.996971 41.029026,80.881882 60.570770,81.138046 
	C63.087639,81.171036 65.579277,83.129082 68.082603,84.195374 
z"/>
<path fill="#3E7DE3" opacity="1.000000" stroke="none" 
	d="
M68.406548,84.085129 
	C65.579277,83.129082 63.087639,81.171036 60.570770,81.138046 
	C41.029026,80.881882 21.482416,80.996971 1.468656,80.998611 
	C1.000000,79.611107 1.000000,78.222221 1.463571,76.418854 
	C6.239987,76.000526 10.552833,75.996666 14.998199,76.401604 
	C16.566572,77.277641 17.995316,78.121429 19.439472,78.148689 
	C26.723310,78.286201 34.017132,78.024872 41.296078,78.258224 
	C50.071938,78.539566 57.498554,75.594009 64.007179,70.176086 
	C65.187691,71.056633 66.238800,71.812309 67.365105,71.949173 
	C71.184540,72.413292 75.030563,72.658524 78.866432,72.987373 
	C75.487785,76.649879 72.109138,80.312386 68.406548,84.085129 
z"/>
<path fill="#16A1D5" opacity="1.000000" stroke="none" 
	d="
M1.000000,46.000000 
	C1.000000,40.645069 1.000000,35.290142 1.463501,29.467461 
	C6.236817,29.003393 10.546633,29.007078 14.935972,29.471577 
	C14.953740,35.286308 14.891985,40.640228 14.376224,45.995163 
	C9.614811,45.997452 5.307405,45.998726 1.000000,46.000000 
z"/>
<path fill="#6D34ED" opacity="1.000000" stroke="none" 
	d="
M14.841694,135.000854 
	C14.841694,139.459702 14.841694,143.918549 14.841694,149.112732 
	C10.426282,149.112732 6.176661,149.112732 1.463520,149.056366 
	C1.000000,144.643097 1.000000,140.286194 1.463804,135.464645 
	C6.232303,135.000290 10.536999,135.000580 14.841694,135.000854 
z"/>
<path fill="#4460E5" opacity="1.000000" stroke="none" 
	d="
M1.000000,92.460632 
	C5.486386,92.150398 9.972773,92.300797 14.748558,92.755615 
	C15.026957,96.407486 15.015956,99.754929 14.465282,103.551910 
	C9.617073,104.000961 5.308537,104.000481 1.000000,104.000000 
	C1.000000,100.307091 1.000000,96.614182 1.000000,92.460632 
z"/>
<path fill="#4E52E7" opacity="1.000000" stroke="none" 
	d="
M1.000000,104.460632 
	C5.308537,104.000481 9.617073,104.000961 14.378407,104.001831 
	C14.889868,107.365425 14.948531,110.728645 14.515511,114.556396 
	C9.682550,115.347290 5.341276,115.673645 1.000000,116.000000 
	C1.000000,112.307091 1.000000,108.614182 1.000000,104.460632 
z"/>
<path fill="#3580E1" opacity="1.000000" stroke="none" 
	d="
M893.462158,66.848808 
	C895.081543,69.827721 896.700928,72.806625 898.660156,75.892761 
	C899.000000,76.000000 899.000000,76.500000 898.536438,76.751984 
	C893.379578,77.336868 888.686279,77.669762 883.742554,77.777573 
	C881.364990,74.366020 879.237976,71.179550 877.563965,67.996094 
	C883.165466,67.615669 888.313782,67.232239 893.462158,66.848808 
z"/>
<path fill="#1F93D9" opacity="1.000000" stroke="none" 
	d="
M1.000000,46.458069 
	C5.307405,45.998726 9.614811,45.997452 14.463415,46.446930 
	C14.947538,50.264565 14.890463,53.631451 14.379181,56.998886 
	C9.616650,56.999626 5.308325,56.999813 1.000000,57.000000 
	C1.000000,53.638714 1.000000,50.277424 1.000000,46.458069 
z"/>
<path fill="#2A85DE" opacity="1.000000" stroke="none" 
	d="
M1.000000,57.458069 
	C5.308325,56.999813 9.616650,56.999626 14.466053,57.450211 
	C14.951570,61.266811 14.896009,64.632645 14.385799,67.999084 
	C9.620767,67.999802 5.310383,67.999901 1.000000,68.000000 
	C1.000000,64.638710 1.000000,61.277424 1.000000,57.458069 
z"/>
<path fill="#5F41EB" opacity="1.000000" stroke="none" 
	d="
M14.927073,134.553116 
	C10.536999,135.000580 6.232303,135.000290 1.463804,135.000000 
	C1.000000,131.969406 1.000000,128.938812 1.463833,125.452957 
	C6.233680,124.998688 10.539695,124.999672 14.845709,125.000656 
	C14.901289,128.035568 14.956869,131.070465 14.927073,134.553116 
z"/>
<path fill="#594EE9" opacity="1.000000" stroke="none" 
	d="
M14.932144,124.553192 
	C10.539695,124.999672 6.233680,124.998688 1.463833,124.998856 
	C1.000000,122.299988 1.000000,119.599968 1.000000,116.449982 
	C5.341276,115.673645 9.682550,115.347290 14.433372,115.007874 
	C14.901473,118.031776 14.960027,121.068756 14.932144,124.553192 
z"/>
<path fill="#327BE1" opacity="1.000000" stroke="none" 
	d="
M1.000000,68.444168 
	C5.310383,67.999901 9.620767,67.999802 14.471561,68.436531 
	C14.963207,71.246513 14.914443,73.619659 14.865679,75.992813 
	C10.552833,75.996666 6.239987,76.000526 1.463571,76.002197 
	C1.000000,73.629440 1.000000,71.258888 1.000000,68.444168 
z"/>
<path fill="#19B3D3" opacity="1.000000" stroke="none" 
	d="
M14.856448,29.010763 
	C10.546633,29.007078 6.236817,29.003393 1.463501,28.999855 
	C1.000000,26.629442 1.000000,24.258884 1.000000,21.444164 
	C5.508943,21.178867 10.017885,21.357737 14.818540,22.287216 
	C15.025651,25.028805 14.941050,27.019783 14.856448,29.010763 
z"/>
<path fill="#386EE3" opacity="1.000000" stroke="none" 
	d="
M883.992981,78.002670 
	C888.686279,77.669762 893.379578,77.336868 898.536438,77.001984 
	C899.000000,79.041664 899.000000,81.083336 898.534546,83.562698 
	C893.977539,84.004051 889.885986,84.007706 885.611694,83.714226 
	C884.950256,81.612282 884.471619,79.807480 883.992981,78.002670 
z"/>
<path fill="#3B71E4" opacity="1.000000" stroke="none" 
	d="
M885.794434,84.011368 
	C889.885986,84.007706 893.977539,84.004051 898.534546,84.000198 
	C899.000000,86.041664 899.000000,88.083336 899.000000,90.562500 
	C894.770813,90.462044 890.541687,89.924088 886.085876,88.658981 
	C885.837646,86.625015 885.816040,85.318192 885.794434,84.011368 
z"/>
<path fill="#288FDC" opacity="1.000000" stroke="none" 
	d="
M374.982849,63.768723 
	C366.621216,63.866394 358.259552,63.964069 349.174988,63.739685 
	C343.291901,63.614876 338.131775,63.812130 332.971649,64.009384 
	C326.385101,64.009384 319.798553,64.009384 313.354095,64.009384 
	C312.986450,63.062904 312.704346,62.625504 312.653137,62.162556 
	C311.299774,49.931320 311.303864,49.942513 323.449524,49.922916 
	C326.594299,49.917843 329.738922,49.814945 333.434631,50.063927 
	C339.038239,54.656727 344.824127,54.145515 347.691650,49.159878 
	C354.133087,49.416874 360.573456,49.706539 367.016449,49.915672 
	C369.807831,50.006279 372.604584,49.930870 376.167358,49.930870 
	C376.167358,52.948292 376.167358,55.530270 375.803955,58.798531 
	C375.287994,60.912781 375.135437,62.340752 374.982849,63.768723 
z"/>
<path fill="#06BBCE" opacity="1.000000" stroke="none" 
	d="
M568.318726,14.857023 
	C569.122620,15.400682 569.926453,15.944343 570.696411,17.102852 
	C568.890137,18.483011 567.181030,19.640587 565.333252,19.938324 
	C560.272949,20.753721 555.154297,21.207357 550.058777,21.804224 
	C534.684326,21.828032 519.309143,21.778643 503.936005,21.936245 
	C500.790405,21.968493 499.846527,20.788671 500.053009,17.867918 
	C500.239197,15.234483 500.133972,12.580444 500.720886,9.480911 
	C516.083740,9.016716 530.883057,9.034182 545.682007,8.961507 
	C547.433960,8.952903 549.183533,8.450812 550.934204,8.177477 
	C551.712769,8.209885 552.491333,8.242293 553.759399,8.760251 
	C556.361694,9.743099 558.474487,10.240399 560.587219,10.737690 
	C562.221436,11.443262 563.855652,12.148842 565.807434,13.405454 
	C566.856262,14.256664 567.587463,14.556844 568.318726,14.857023 
z"/>
<path fill="#7137EE" opacity="1.000000" stroke="none" 
	d="
M286.711609,138.944473 
	C272.346802,156.917770 242.288345,157.389145 225.928986,139.492157 
	C229.644669,138.721069 233.066559,138.422638 236.469635,137.979691 
	C239.200424,137.624252 241.908417,137.093613 245.010254,136.675171 
	C252.683350,139.080795 259.952667,138.885376 267.635254,136.739426 
	C274.280762,137.608093 280.496185,138.276291 286.711609,138.944473 
z"/>
<path fill="#2690DB" opacity="1.000000" stroke="none" 
	d="
M405.860291,59.663631 
	C418.736359,44.466225 447.111572,40.989208 463.977905,57.574730 
	C462.166748,58.375191 460.599792,58.785507 459.006470,58.983200 
	C453.343689,59.685822 447.671936,60.315975 441.543762,61.020157 
	C435.944061,61.511936 430.804108,61.957134 425.245331,62.315422 
	C419.228485,62.139618 413.626312,62.136158 408.037476,61.861462 
	C407.277557,61.824108 406.584351,60.429699 405.860291,59.663631 
z"/>
<path fill="#2690DB" opacity="1.000000" stroke="none" 
	d="
M828.895325,57.803055 
	C844.996948,42.860939 869.179260,42.618317 885.824341,57.937668 
	C884.275513,59.096470 882.695618,59.834320 881.070557,59.952747 
	C875.058716,60.390862 869.031982,60.624485 862.553589,60.982315 
	C858.729065,61.013458 855.361816,60.997242 851.852112,60.765297 
	C851.135315,60.876041 850.560913,61.202515 849.683289,61.699959 
	C848.923523,61.926735 848.467041,61.982536 847.763367,61.743206 
	C843.145142,60.966572 838.748840,60.639568 834.414551,59.932415 
	C832.509705,59.621628 830.731201,58.536564 828.895325,57.803055 
z"/>
<path fill="#7134EE" opacity="1.000000" stroke="none" 
	d="
M677.194580,141.063049 
	C668.276489,150.920364 656.721497,153.430893 644.161255,152.461884 
	C636.036804,151.835068 628.670044,148.814392 622.372375,142.842361 
	C624.174133,141.467255 625.913269,140.397034 627.783447,140.064865 
	C632.485535,139.229736 637.246887,138.727951 642.384521,138.054199 
	C647.188782,138.009369 651.593018,138.002853 656.192383,138.342682 
	C658.237854,139.125626 660.067627,139.780396 661.942322,139.956772 
	C667.016174,140.434158 672.109192,140.708298 677.194580,141.063049 
z"/>
<path fill="#2690DB" opacity="1.000000" stroke="none" 
	d="
M228.825623,56.540031 
	C242.850327,43.085667 269.691956,43.227592 282.644714,57.194977 
	C279.305969,58.473858 275.794159,59.327682 272.233093,59.837616 
	C268.518463,60.369545 264.756378,60.570061 260.561432,60.966370 
	C257.065552,60.969780 254.023270,60.922279 250.696350,60.612671 
	C246.358063,60.210758 242.138504,60.716228 238.302399,59.730095 
	C235.147079,58.918964 230.735596,61.093784 228.825623,56.540031 
z"/>
<path fill="#6C3CED" opacity="1.000000" stroke="none" 
	d="
M525.329712,131.401733 
	C531.755859,132.600296 538.148743,134.552521 544.615234,134.838272 
	C557.507629,135.408005 570.440430,135.060242 583.356506,135.109055 
	C583.660156,135.110199 583.963013,135.319397 584.797058,135.627914 
	C584.857178,136.990158 584.926880,138.569641 584.468567,140.576630 
	C579.662354,141.285034 575.382080,141.823044 571.106445,141.788696 
	C564.078430,141.732239 557.054688,141.266800 550.026794,141.050156 
	C546.623352,140.945251 543.214600,141.009735 539.808228,141.004761 
	C536.068054,140.999283 532.278442,140.630341 528.603394,141.119080 
	C525.672424,141.508850 522.881226,142.948685 520.027954,143.922394 
	C516.292053,140.875961 512.556213,137.829514 509.179871,134.407715 
	C513.223572,133.687897 516.923462,133.456467 520.584595,132.947266 
	C522.206543,132.721664 523.750427,131.934174 525.329712,131.401733 
z"/>
<path fill="#2592DB" opacity="1.000000" stroke="none" 
	d="
M622.901428,55.707283 
	C639.767334,43.446964 656.061279,43.337368 674.552979,55.838814 
	C673.200317,56.875114 672.059937,57.815723 670.846741,57.921669 
	C665.242004,58.411102 659.616943,58.668327 653.546143,59.006317 
	C649.062134,59.337387 645.031250,59.670910 640.741272,59.718674 
	C634.984619,58.953991 629.487061,58.475067 623.866211,57.705070 
	C623.462402,56.845097 623.181885,56.276196 622.901428,55.707283 
z"/>
<path fill="#7133EE" opacity="1.000000" stroke="none" 
	d="
M520.234131,144.209885 
	C522.881226,142.948685 525.672424,141.508850 528.603394,141.119080 
	C532.278442,140.630341 536.068054,140.999283 539.808228,141.004761 
	C543.214600,141.009735 546.623352,140.945251 550.026794,141.050156 
	C557.054688,141.266800 564.078430,141.732239 571.106445,141.788696 
	C575.382080,141.823044 579.662354,141.285034 584.356934,141.004059 
	C584.773376,143.455963 584.773376,145.907944 584.773376,148.701233 
	C583.389038,148.857925 582.121521,149.124069 580.853577,149.126114 
	C566.736877,149.148804 552.598816,149.581207 538.513428,148.913437 
	C532.432922,148.625183 526.461426,146.039444 520.234131,144.209885 
z"/>
<path fill="#3274E2" opacity="1.000000" stroke="none" 
	d="
M530.027161,72.762543 
	C530.475830,72.576439 530.924438,72.390350 532.060974,72.486069 
	C543.317627,73.175995 553.894653,73.452225 564.447449,74.114334 
	C566.336609,74.232864 568.125671,75.946899 569.960938,76.924271 
	C568.409058,78.018639 566.857117,79.112991 564.563049,80.176468 
	C560.539856,81.530373 557.258850,82.915154 553.977844,84.299934 
	C553.225159,84.509224 552.472412,84.718521 551.016968,84.611206 
	C540.616516,83.864464 530.907349,83.591103 521.230042,82.882004 
	C519.100647,82.725975 517.084595,81.022934 515.016357,80.032288 
	C517.902832,78.257050 520.789307,76.481812 524.399414,74.780777 
	C526.757751,74.157509 528.392456,73.460030 530.027161,72.762543 
z"/>
<path fill="#6936EC" opacity="1.000000" stroke="none" 
	d="
M411.064636,143.966446 
	C408.758728,141.909607 406.452820,139.852753 404.074738,137.058197 
	C405.314972,135.546402 406.546539,134.352509 407.955719,134.081223 
	C411.418457,133.414673 414.962891,133.172791 418.795044,132.848602 
	C421.744934,134.546158 424.190063,136.696609 427.037292,137.665512 
	C436.591034,140.916611 445.387451,138.499069 453.844818,133.591278 
	C456.461761,134.322922 458.916016,134.401550 461.197327,135.070145 
	C463.560333,135.762665 465.755646,137.027206 468.024323,138.041534 
	C465.920746,139.956131 463.817169,141.870712 461.064087,143.769073 
	C457.390442,143.498993 454.369568,143.194427 451.341553,143.002121 
	C445.559692,142.634933 439.776520,142.156662 433.988525,142.066025 
	C430.376801,142.009460 426.753754,142.560150 423.138550,142.870819 
	C419.112274,143.216797 415.089142,143.599640 411.064636,143.966446 
z"/>
<path fill="#2F8DDE" opacity="1.000000" stroke="none" 
	d="
M169.052292,67.882446 
	C158.408554,59.763973 146.968506,59.087196 134.414780,63.846062 
	C130.600266,62.635983 127.276863,61.808369 123.953453,60.980755 
	C125.453712,58.820820 126.953972,56.660881 128.762299,54.785572 
	C130.184280,55.713741 131.292572,56.905407 132.413010,56.916962 
	C145.141312,57.048233 157.872375,57.063835 170.599747,56.892097 
	C171.792282,56.876007 172.964737,55.372654 174.146515,54.559830 
	C177.727005,58.147720 181.307510,61.735615 184.495514,65.663361 
	C179.086121,66.629616 174.069214,67.256035 169.052292,67.882446 
z"/>
<path fill="#7333EE" opacity="1.000000" stroke="none" 
	d="
M411.216980,144.273682 
	C415.089142,143.599640 419.112274,143.216797 423.138550,142.870819 
	C426.753754,142.560150 430.376801,142.009460 433.988525,142.066025 
	C439.776520,142.156662 445.559692,142.634933 451.341553,143.002121 
	C454.369568,143.194427 457.390442,143.498993 460.763367,143.904358 
	C446.708191,155.614243 428.680725,155.804535 411.216980,144.273682 
z"/>
<path fill="#2693DB" opacity="1.000000" stroke="none" 
	d="
M173.922791,54.310440 
	C172.964737,55.372654 171.792282,56.876007 170.599747,56.892097 
	C157.872375,57.063835 145.141312,57.048233 132.413010,56.916962 
	C131.292572,56.905407 130.184280,55.713741 129.063400,54.674931 
	C137.922836,43.431179 160.713745,45.202026 169.935089,51.937130 
	C171.090485,52.781013 172.439682,53.359566 173.922791,54.310440 
z"/>
<path fill="#2693DB" opacity="1.000000" stroke="none" 
	d="
M733.118164,55.610603 
	C741.460693,46.308594 756.660706,43.647964 770.248047,49.330814 
	C773.233887,50.579647 775.916809,52.552948 778.818237,54.896133 
	C777.611389,56.067066 776.328735,56.929382 775.038879,56.940445 
	C762.964661,57.043949 750.888550,57.061840 738.814636,56.939266 
	C736.911499,56.919945 735.016785,56.074226 733.118164,55.610603 
z"/>
<path fill="#2F8DDE" opacity="1.000000" stroke="none" 
	d="
M732.862183,55.753391 
	C735.016785,56.074226 736.911499,56.919945 738.814636,56.939266 
	C750.888550,57.061840 762.964661,57.043949 775.038879,56.940445 
	C776.328735,56.929382 777.611389,56.067066 778.994385,55.186939 
	C782.061218,57.277077 785.031006,59.779915 787.659607,62.637924 
	C783.875061,63.328205 780.400757,63.484783 777.000854,64.071999 
	C775.239746,64.376175 773.610413,65.443184 771.921509,66.165558 
	C762.598022,59.944614 752.718994,59.550621 741.669556,63.123543 
	C737.006409,62.266075 733.113342,61.639896 729.220337,61.013718 
	C730.348999,59.307873 731.477600,57.602028 732.862183,55.753391 
z"/>
<path fill="#3786E1" opacity="1.000000" stroke="none" 
	d="
M405.561005,59.828125 
	C406.584351,60.429699 407.277557,61.824108 408.037476,61.861462 
	C413.626312,62.136158 419.228485,62.139618 424.996704,62.558426 
	C418.647644,65.980942 413.903992,70.924904 409.911194,77.037994 
	C405.059052,76.649643 400.640320,76.327080 396.221619,76.004517 
	C399.234985,70.667213 402.248352,65.329918 405.561005,59.828125 
z"/>
<path fill="#7137EE" opacity="1.000000" stroke="none" 
	d="
M375.036835,138.863861 
	C375.421906,143.098648 375.893524,147.331009 376.012604,151.573257 
	C376.021301,151.882019 373.431580,152.672302 372.118561,152.542847 
	C364.009521,151.743301 356.591156,149.051758 350.226990,143.287857 
	C351.996796,142.116638 353.687408,141.163391 355.415283,141.090271 
	C360.534393,140.873672 365.675873,141.157303 370.791382,140.901367 
	C372.236877,140.829056 373.623322,139.575592 375.036835,138.863861 
z"/>
<path fill="#19B3D3" opacity="1.000000" stroke="none" 
	d="
M48.019100,21.870819 
	C53.921497,21.582272 59.836544,21.436464 65.718292,20.915005 
	C67.402702,20.765671 68.990730,19.529284 70.782974,18.450527 
	C74.007042,22.082851 77.071091,26.055984 79.891747,30.716805 
	C75.207977,31.932087 70.767593,32.459682 66.043869,32.777103 
	C61.207989,26.743641 54.872486,23.877729 48.019100,21.870819 
z"/>
<path fill="#2A85DE" opacity="1.000000" stroke="none" 
	d="
M728.990967,61.254887 
	C733.113342,61.639896 737.006409,62.266075 741.287964,63.113121 
	C739.177612,65.415405 736.678650,67.496826 733.494019,69.783134 
	C726.151001,69.660080 719.493591,69.332153 712.836243,69.004227 
	C712.764404,65.649368 712.692505,62.294514 713.158691,58.461948 
	C717.964294,58.019417 722.231873,58.054592 726.499512,58.089767 
	C726.562988,59.185909 726.626465,60.282055 726.421082,62.009819 
	C726.356689,63.316547 726.561218,63.991661 726.765686,64.666779 
	C727.218689,63.996277 727.671692,63.325768 728.124695,62.655243 
	C728.336975,62.268841 728.549316,61.882450 728.990967,61.254887 
z"/>
<path fill="#4274E5" opacity="1.000000" stroke="none" 
	d="
M514.696411,80.133240 
	C517.084595,81.022934 519.100647,82.725975 521.230042,82.882004 
	C530.907349,83.591103 540.616516,83.864464 550.623535,84.558189 
	C547.693604,85.092445 544.447144,85.655380 541.216919,85.573822 
	C534.161865,85.395668 527.877502,87.271133 521.598022,91.836945 
	C515.756592,91.625557 510.672791,91.249519 505.588959,90.873474 
	C508.518158,87.327049 511.447357,83.780617 514.696411,80.133240 
z"/>
<path fill="#6B3EEC" opacity="1.000000" stroke="none" 
	d="
M641.984436,138.092499 
	C637.246887,138.727951 632.485535,139.229736 627.783447,140.064865 
	C625.913269,140.397034 624.174133,141.467255 622.216431,142.542114 
	C618.998291,139.610550 615.939209,136.338364 612.968018,132.300278 
	C614.459961,131.022476 615.842346,130.155289 617.272095,130.068634 
	C620.856445,129.851395 624.462219,129.987503 628.360046,130.129333 
	C633.101929,132.882004 637.543213,135.487244 641.984436,138.092499 
z"/>
<path fill="#6841EC" opacity="1.000000" stroke="none" 
	d="
M287.027771,138.796692 
	C280.496185,138.276291 274.280762,137.608093 267.897278,136.500397 
	C271.778076,132.694260 275.826904,129.327621 280.316772,125.973747 
	C285.350342,126.366699 289.942871,126.746887 294.535370,127.127075 
	C292.138245,130.967697 289.741119,134.808304 287.027771,138.796692 
z"/>
<path fill="#3E74E4" opacity="1.000000" stroke="none" 
	d="
M396.023743,76.343002 
	C400.640320,76.327080 405.059052,76.649643 409.844971,77.435944 
	C409.392181,82.266930 408.572174,86.634186 407.303833,91.001053 
	C402.629211,91.000374 398.402985,91.000076 394.176697,90.999779 
	C394.726440,86.227013 395.276184,81.454247 396.023743,76.343002 
z"/>
<path fill="#2F86DF" opacity="1.000000" stroke="none" 
	d="
M79.117706,72.744385 
	C75.030563,72.658524 71.184540,72.413292 67.365105,71.949173 
	C66.238800,71.812309 65.187691,71.056633 64.127991,69.867905 
	C66.395729,65.424507 68.637596,61.697754 71.270157,58.131241 
	C75.998512,58.527405 80.336166,58.763325 84.673828,58.999241 
	C82.905540,63.499958 81.137260,68.000671 79.117706,72.744385 
z"/>
<path fill="#5654E9" opacity="1.000000" stroke="none" 
	d="
M120.976395,105.999535 
	C121.037132,110.694794 121.097862,115.390045 120.602127,120.543121 
	C115.822403,121.002068 111.599144,121.003181 107.375893,121.004303 
	C107.308792,116.308807 107.241699,111.613304 107.709946,106.459633 
	C112.488991,106.000816 116.732689,106.000175 120.976395,105.999535 
z"/>
<path fill="#328ADF" opacity="1.000000" stroke="none" 
	d="
M228.500793,56.667034 
	C230.735596,61.093784 235.147079,58.918964 238.302399,59.730095 
	C242.138504,60.716228 246.358063,60.210758 250.414917,60.837440 
	C244.984741,64.308723 239.551346,67.293129 233.931839,69.907257 
	C228.894806,69.038742 224.043884,68.540497 219.192978,68.042267 
	C222.187302,64.292854 225.181625,60.543446 228.500793,56.667034 
z"/>
<path fill="#386EE3" opacity="1.000000" stroke="none" 
	d="
M334.023224,91.996414 
	C333.956726,87.303490 333.890228,82.610565 334.381409,77.460434 
	C339.155334,77.013023 343.371552,77.022820 347.587799,77.032608 
	C347.666656,81.711426 347.745514,86.390236 347.269470,91.526825 
	C342.484070,91.988548 338.253662,91.992477 334.023224,91.996414 
z"/>
<path fill="#5457E8" opacity="1.000000" stroke="none" 
	d="
M607.253052,117.995361 
	C606.922791,113.629471 606.592468,109.263580 606.817871,104.451683 
	C611.618652,103.995811 615.863831,103.985954 620.292725,104.335052 
	C620.715393,109.112419 620.954285,113.530846 620.717896,117.964279 
	C615.912781,117.984642 611.582947,117.989998 607.253052,117.995361 
z"/>
<path fill="#576DE8" opacity="1.000000" stroke="none" 
	d="
M726.445068,92.965668 
	C726.539124,97.686562 726.633179,102.407455 726.245056,107.495209 
	C721.282898,107.585403 716.802979,107.308746 712.322998,107.032089 
	C712.357910,102.579376 712.392883,98.126663 713.079468,93.329407 
	C717.969055,92.978470 722.207031,92.972069 726.445068,92.965668 
z"/>
<path fill="#514EE8" opacity="1.000000" stroke="none" 
	d="
M712.183777,107.453171 
	C716.802979,107.308746 721.282898,107.585403 726.098206,107.940521 
	C726.508301,112.042236 726.583069,116.065491 726.100342,120.539154 
	C721.306030,120.995911 717.069275,121.002243 712.832458,121.008575 
	C712.569824,116.630470 712.307190,112.252357 712.183777,107.453171 
z"/>
<path fill="#4863E6" opacity="1.000000" stroke="none" 
	d="
M121.066711,105.540634 
	C116.732689,106.000175 112.488991,106.000816 107.806610,106.003242 
	C107.303169,101.308525 107.238396,96.612022 107.664703,91.460007 
	C112.429253,91.003212 116.702721,91.001938 120.976189,91.000664 
	C121.036476,95.694351 121.096756,100.388046 121.066711,105.540634 
z"/>
<path fill="#6C3CED" opacity="1.000000" stroke="none" 
	d="
M374.719482,138.662415 
	C373.623322,139.575592 372.236877,140.829056 370.791382,140.901367 
	C365.675873,141.157303 360.534393,140.873672 355.415283,141.090271 
	C353.687408,141.163391 351.996796,142.116638 350.055817,143.004044 
	C347.116211,140.536087 344.409912,137.731750 342.018036,134.409332 
	C347.311951,133.227463 352.291443,132.563690 357.270966,131.899918 
	C362.981354,134.086929 368.691711,136.273941 374.719482,138.662415 
z"/>
<path fill="#6841EC" opacity="1.000000" stroke="none" 
	d="
M244.626526,136.640732 
	C241.908417,137.093613 239.200424,137.624252 236.469635,137.979691 
	C233.066559,138.422638 229.644669,138.721069 225.761780,139.183167 
	C222.760757,135.802628 220.228882,132.320816 218.115570,128.444305 
	C223.162857,127.647720 227.791565,127.245819 232.690247,127.011673 
	C236.848984,130.333191 240.737747,133.486969 244.626526,136.640732 
z"/>
<path fill="#3C85E2" opacity="1.000000" stroke="none" 
	d="
M570.293091,76.873154 
	C568.125671,75.946899 566.336609,74.232864 564.447449,74.114334 
	C553.894653,73.452225 543.317627,73.175995 532.428833,72.526176 
	C535.532715,71.941406 538.966675,71.235939 542.378296,71.331436 
	C549.273193,71.524452 555.571655,69.999229 561.726196,66.436630 
	C567.258301,67.551743 572.350403,68.354538 577.442444,69.157326 
	C575.170044,71.712234 572.897644,74.267143 570.293091,76.873154 
z"/>
<path fill="#3B71E4" opacity="1.000000" stroke="none" 
	d="
M121.066910,90.588669 
	C116.702721,91.001938 112.429253,91.003212 107.762451,91.003952 
	C107.304153,86.973984 107.239189,82.944550 107.711685,78.459267 
	C113.222214,78.017319 118.195282,78.031227 123.168343,78.045135 
	C122.498108,82.088982 121.827866,86.132820 121.066910,90.588669 
z"/>
<path fill="#1CA2D6" opacity="1.000000" stroke="none" 
	d="
M66.327209,32.987278 
	C70.767593,32.459682 75.207977,31.932087 79.883659,31.084795 
	C81.469353,33.368221 83.044815,35.884323 84.096001,38.603130 
	C84.879036,40.628399 84.983650,42.915974 84.873123,45.527885 
	C80.069229,45.977768 75.782616,45.986496 71.349564,45.620720 
	C69.577812,41.159904 67.952507,37.073593 66.327209,32.987278 
z"/>
<path fill="#347EE1" opacity="1.000000" stroke="none" 
	d="
M169.183777,68.196320 
	C174.069214,67.256035 179.086121,66.629616 184.540100,66.004669 
	C186.791473,70.035683 188.605774,74.065231 189.951691,78.522064 
	C185.095520,78.962532 180.707733,78.975708 176.319962,78.988884 
	C173.985062,75.495987 171.650162,72.003082 169.183777,68.196320 
z"/>
<path fill="#5F41EB" opacity="1.000000" stroke="none" 
	d="
M107.281876,121.460564 
	C111.599144,121.003181 115.822403,121.002068 120.505753,121.001083 
	C121.027657,125.362831 121.089478,129.724426 120.600014,134.543488 
	C115.823418,134.997360 111.598091,134.993774 107.372772,134.990173 
	C107.311134,130.632385 107.249504,126.274605 107.281876,121.460564 
z"/>
<path fill="#7137EE" opacity="1.000000" stroke="none" 
	d="
M107.273392,135.447113 
	C111.598091,134.993774 115.823418,134.997360 120.509125,135.000854 
	C120.969505,139.446518 120.969505,143.892303 120.969505,148.745789 
	C116.497025,148.745789 112.144730,148.745789 107.174004,148.745789 
	C107.174004,144.404831 107.174004,140.154434 107.273392,135.447113 
z"/>
<path fill="#624CEB" opacity="1.000000" stroke="none" 
	d="
M607.220886,118.376663 
	C611.582947,117.989998 615.912781,117.984642 620.939148,118.221329 
	C623.776917,122.302879 625.918152,126.142395 628.059387,129.981903 
	C624.462219,129.987503 620.856445,129.851395 617.272095,130.068634 
	C615.842346,130.155289 614.459961,131.022476 612.954468,131.961700 
	C610.964783,127.845360 609.076721,123.301666 607.220886,118.376663 
z"/>
<path fill="#16A1D5" opacity="1.000000" stroke="none" 
	d="
M107.366318,44.969059 
	C107.306038,40.617130 107.245758,36.265202 107.679459,31.458847 
	C112.434975,31.003145 116.696503,31.001867 120.958038,31.000587 
	C121.021034,35.360165 121.084023,39.719742 120.651276,44.539413 
	C115.892464,44.989353 111.629387,44.979206 107.366318,44.969059 
z"/>
<path fill="#1BAAD5" opacity="1.000000" stroke="none" 
	d="
M578.906189,26.032509 
	C580.563110,29.771807 582.220093,33.511097 583.407227,37.625870 
	C578.635376,38.333164 574.333313,38.664986 570.031311,38.996807 
	C567.786316,35.524281 565.541382,32.051746 563.450684,27.983870 
	C568.705322,26.936518 573.805786,26.484510 578.906189,26.032509 
z"/>
<path fill="#3E70E4" opacity="1.000000" stroke="none" 
	d="
M477.381165,79.042969 
	C477.858307,83.406975 478.335449,87.770981 478.261292,92.565918 
	C473.470734,92.664841 469.231476,92.332832 464.893951,91.578705 
	C464.292114,87.205193 463.788544,83.253799 463.786255,79.222427 
	C468.652069,79.109299 473.016632,79.076134 477.381165,79.042969 
z"/>
<path fill="#3A86E1" opacity="1.000000" stroke="none" 
	d="
M347.726501,76.590118 
	C343.371552,77.022820 339.155334,77.013023 334.477539,77.002495 
	C333.747009,72.957863 333.478088,68.913956 333.090393,64.439720 
	C338.131775,63.812130 343.291901,63.614876 348.708984,63.666519 
	C348.599030,67.992821 348.232086,72.070221 347.726501,76.590118 
z"/>
<path fill="#386EE3" opacity="1.000000" stroke="none" 
	d="
M726.561035,92.527557 
	C722.207031,92.972069 717.969055,92.978470 713.253296,92.959625 
	C712.732422,88.593246 712.689392,84.252121 713.208679,79.454849 
	C718.259277,79.823120 722.747559,80.647530 727.235718,81.471939 
	C727.049500,85.011116 726.863281,88.550285 726.561035,92.527557 
z"/>
<path fill="#377CE2" opacity="1.000000" stroke="none" 
	d="
M218.911316,68.251122 
	C224.043884,68.540497 228.894806,69.038742 233.837524,70.228119 
	C232.160736,74.016678 230.392105,77.114090 228.136810,80.155807 
	C223.288147,80.058609 218.926147,80.017105 214.564163,79.975601 
	C215.919327,76.137062 217.274490,72.298523 218.911316,68.251122 
z"/>
<path fill="#2D89DE" opacity="1.000000" stroke="none" 
	d="
M653.999207,59.008766 
	C659.616943,58.668327 665.242004,58.411102 670.846741,57.921669 
	C672.059937,57.815723 673.200317,56.875114 674.724976,56.143940 
	C677.778503,58.693802 680.481262,61.418686 682.921509,64.632637 
	C677.464172,65.740578 672.269409,66.359444 666.746460,66.878334 
	C664.279358,65.405716 662.140564,64.033073 659.955078,62.399940 
	C659.280701,62.071140 658.652954,62.002838 657.668518,61.950287 
	C656.876221,61.787621 656.440735,61.609207 655.930054,61.173206 
	C655.236389,60.279999 654.617798,59.644379 653.999207,59.008766 
z"/>
<path fill="#2D89DE" opacity="1.000000" stroke="none" 
	d="
M442.003571,60.973572 
	C447.671936,60.315975 453.343689,59.685822 459.006470,58.983200 
	C460.599792,58.785507 462.166748,58.375191 464.163330,57.873520 
	C467.245026,60.802731 469.909149,63.920826 472.145203,67.460968 
	C466.798645,68.259277 461.880127,68.635551 456.729401,68.934280 
	C456.204224,68.666328 456.032257,68.398277 455.935791,67.697540 
	C455.130890,66.944290 454.371490,66.546089 453.280457,66.063477 
	C449.300415,64.310562 445.652008,62.642067 442.003571,60.973572 
z"/>
<path fill="#2A85DE" opacity="1.000000" stroke="none" 
	d="
M123.719383,61.137623 
	C127.276863,61.808369 130.600266,62.635983 134.014633,63.868042 
	C132.301224,66.101135 130.496857,67.929787 127.977692,69.838211 
	C120.633621,69.606750 114.004372,69.295509 107.375114,68.984261 
	C107.311035,66.619431 107.246956,64.254608 107.713394,61.449821 
	C112.486435,61.007332 116.728943,61.004803 120.971451,61.002274 
	C121.027184,61.448822 121.082916,61.895370 120.813316,62.870773 
	C120.678955,64.138069 120.869926,64.876503 121.060898,65.614944 
	C121.689766,64.697220 122.318626,63.779488 122.947487,62.861759 
	C123.126762,62.339336 123.306038,61.816914 123.719383,61.137623 
z"/>
<path fill="#21ABD7" opacity="1.000000" stroke="none" 
	d="
M347.583466,30.979401 
	C347.674927,34.032619 347.766388,37.085835 347.287476,40.574818 
	C344.764526,41.006290 342.793915,41.169140 340.863403,40.960690 
	C337.506653,40.598232 334.817780,41.109245 334.024292,44.984070 
	C333.886017,34.898357 333.747742,24.812645 334.083923,14.616858 
	C334.708954,16.007055 334.859528,17.507328 335.005737,19.468502 
	C335.000854,21.075069 335.095337,22.230003 334.984589,23.364912 
	C334.212219,31.280354 335.641663,33.011299 345.139252,31.142582 
	C345.933929,30.986221 346.767792,31.029093 347.583466,30.979401 
z"/>
<path fill="#2693DB" opacity="1.000000" stroke="none" 
	d="
M71.496002,45.995220 
	C75.782616,45.986496 80.069229,45.977768 84.841736,45.948215 
	C85.217934,50.026325 85.108238,54.125263 84.836182,58.611717 
	C80.336166,58.763325 75.998512,58.527405 71.266006,57.714714 
	C71.079445,53.423706 71.287720,49.709461 71.496002,45.995220 
z"/>
<path fill="#327BE1" opacity="1.000000" stroke="none" 
	d="
M727.468140,81.192513 
	C722.747559,80.647530 718.259277,79.823120 713.302612,78.997726 
	C712.771729,75.963219 712.709412,72.929688 712.741638,69.450195 
	C719.493591,69.332153 726.151001,69.660080 733.207275,69.985962 
	C731.637695,73.626968 729.669067,77.270027 727.468140,81.192513 
z"/>
<path fill="#5058E7" opacity="1.000000" stroke="none" 
	d="
M178.230057,115.991180 
	C178.167114,111.963142 178.104187,107.935112 178.587372,103.453644 
	C183.352341,103.000145 187.571182,103.000069 191.790009,102.999985 
	C191.856979,107.028397 191.923950,111.056816 191.446884,115.540710 
	C186.678589,115.994530 182.454315,115.992851 178.230057,115.991180 
z"/>
<path fill="#6345EB" opacity="1.000000" stroke="none" 
	d="
M525.167236,131.134735 
	C523.750427,131.934174 522.206543,132.721664 520.584595,132.947266 
	C516.923462,133.456467 513.223572,133.687897 509.089539,134.070129 
	C506.675781,130.684250 504.711914,127.260582 503.228333,123.433273 
	C508.262054,122.978683 512.815491,122.927742 517.368896,122.876816 
	C519.914185,125.540451 522.459473,128.204086 525.167236,131.134735 
z"/>
<path fill="#5457E8" opacity="1.000000" stroke="none" 
	d="
M214.233917,116.995186 
	C213.944946,112.965744 213.655975,108.936302 213.865021,104.556145 
	C218.613922,104.461136 222.864838,104.716843 227.271454,105.340820 
	C227.631683,109.469269 227.836227,113.229462 227.574677,116.992722 
	C222.817032,116.995583 218.525467,116.995384 214.233917,116.995186 
z"/>
<path fill="#4E52E7" opacity="1.000000" stroke="none" 
	d="
M297.967773,104.004089 
	C297.898224,108.036552 297.828644,112.069016 297.152649,116.542282 
	C292.376434,116.324738 288.206635,115.666389 283.999512,114.550095 
	C284.123993,110.732254 284.285858,107.372368 284.884125,104.009979 
	C289.536285,104.006363 293.752045,104.005226 297.967773,104.004089 
z"/>
<path fill="#4A66E6" opacity="1.000000" stroke="none" 
	d="
M505.328949,91.081406 
	C510.672791,91.249519 515.756592,91.625557 521.277893,92.000366 
	C519.501648,95.782845 517.287964,99.566551 514.498718,103.657928 
	C511.873535,103.645210 509.806396,103.407974 507.779144,102.981277 
	C505.702972,102.544289 503.665833,101.921753 501.611603,101.380432 
	C502.764069,98.016739 503.916504,94.653046 505.328949,91.081406 
z"/>
<path fill="#4863E6" opacity="1.000000" stroke="none" 
	d="
M227.115738,104.972557 
	C222.864838,104.716843 218.613922,104.461136 214.003204,104.123444 
	C213.551865,100.327423 213.460327,96.613388 213.923630,92.452415 
	C218.690109,92.003777 222.901764,92.002068 227.200241,92.456757 
	C227.229965,96.932953 227.172852,100.952759 227.115738,104.972557 
z"/>
<path fill="#3C85E2" opacity="1.000000" stroke="none" 
	d="
M456.961578,69.011818 
	C461.880127,68.635551 466.798645,68.259277 472.237122,67.817467 
	C474.354309,71.279747 475.951569,74.807564 477.464996,78.689178 
	C473.016632,79.076134 468.652069,79.109299 463.559509,79.007599 
	C460.874847,75.585754 458.918213,72.298790 456.961578,69.011818 
z"/>
<path fill="#4F55E7" opacity="1.000000" stroke="none" 
	d="
M690.930298,107.959076 
	C690.920166,110.350937 690.909973,112.742798 690.319458,115.562576 
	C685.479858,115.657539 681.220520,115.324585 676.924561,114.532288 
	C677.014709,110.383659 677.141602,106.694374 677.716003,103.004204 
	C682.417786,103.003014 686.672058,103.002701 690.926331,103.002388 
	C690.990784,103.766724 691.055176,104.531067 690.812744,105.808784 
	C690.647278,106.867805 690.788757,107.413445 690.930298,107.959076 
z"/>
<path fill="#4A66E6" opacity="1.000000" stroke="none" 
	d="
M620.108948,103.976105 
	C615.863831,103.985954 611.618652,103.995811 606.947021,104.012238 
	C606.433594,100.306992 606.346680,96.595161 606.820740,92.440804 
	C611.747986,91.996246 616.114319,91.994225 620.523682,92.430794 
	C620.414185,96.571625 620.261536,100.273865 620.108948,103.976105 
z"/>
<path fill="#3E74E4" opacity="1.000000" stroke="none" 
	d="
M176.307129,79.379097 
	C180.707733,78.975708 185.095520,78.962532 189.986313,78.919464 
	C190.989655,82.634193 191.489975,86.378815 191.445892,90.561661 
	C186.676941,90.999344 182.452408,90.998810 178.227844,90.998276 
	C177.583328,87.255287 176.938812,83.512299 176.307129,79.379097 
z"/>
<path fill="#0FB1D1" opacity="1.000000" stroke="none" 
	d="
M121.053703,30.547956 
	C116.696503,31.001867 112.434975,31.003145 107.778831,31.004608 
	C107.316162,27.304104 107.248093,23.603416 107.718307,19.450703 
	C112.492630,18.999310 116.728676,18.999945 120.964714,19.000580 
	C121.026268,22.698828 121.087814,26.397078 121.053703,30.547956 
z"/>
<path fill="#328ADF" opacity="1.000000" stroke="none" 
	d="
M828.609375,57.982605 
	C830.731201,58.536564 832.509705,59.621628 834.414551,59.932415 
	C838.748840,60.639568 843.145142,60.966572 847.530029,61.993061 
	C843.707581,65.060158 839.871338,67.582260 835.846130,69.748535 
	C830.774719,68.929405 825.892273,68.466118 821.009888,68.002823 
	C823.447693,64.722595 825.885559,61.442371 828.609375,57.982605 
z"/>
<path fill="#3B71E4" opacity="1.000000" stroke="none" 
	d="
M829.126709,88.725304 
	C825.427612,92.804008 820.563232,90.294464 815.835205,91.001633 
	C815.752991,86.864357 816.103027,82.725357 817.107422,78.295807 
	C822.117065,78.335083 826.472351,78.664902 830.825073,79.375198 
	C830.257263,82.745544 829.691956,85.735428 829.126709,88.725304 
z"/>
<path fill="#4E52E7" opacity="1.000000" stroke="none" 
	d="
M347.573059,104.034721 
	C347.696472,107.079765 347.819885,110.124817 347.617188,113.889328 
	C346.115570,115.407913 344.998657,116.764610 343.752899,116.895592 
	C340.712921,117.215202 337.613251,116.967278 334.537628,116.947845 
	C334.375122,116.194305 334.212616,115.440765 334.366760,114.044922 
	C334.464050,111.610023 334.244751,109.817436 334.025452,108.024849 
	C333.961792,106.947784 333.898163,105.870720 334.391724,104.399323 
	C339.156952,104.014908 343.365021,104.024811 347.573059,104.034721 
z"/>
<path fill="#6454EB" opacity="1.000000" stroke="none" 
	d="
M478.459808,112.012680 
	C477.323181,117.272003 476.186584,122.531334 474.358521,127.824799 
	C469.010437,127.533997 464.353821,127.209068 459.797821,126.530151 
	C461.323273,123.125244 462.748077,120.074333 464.626587,117.013016 
	C468.817291,117.002617 472.554260,117.002617 475.767517,117.002617 
	C476.878937,114.942696 477.669373,113.477692 478.459808,112.012680 
z"/>
<path fill="#4863E6" opacity="1.000000" stroke="none" 
	d="
M464.992249,92.000824 
	C469.231476,92.332832 473.470734,92.664841 478.131226,92.993256 
	C478.637360,96.699463 478.722260,100.409256 478.239227,104.562157 
	C473.451447,105.003342 469.231537,105.001427 464.907043,104.545944 
	C464.865723,100.061867 464.928986,96.031349 464.992249,92.000824 
z"/>
<path fill="#3E70E4" opacity="1.000000" stroke="none" 
	d="
M227.113403,92.000366 
	C222.901764,92.002068 218.690109,92.003777 214.061539,92.013626 
	C213.828491,88.266571 214.012360,84.511391 214.380188,80.365906 
	C218.926147,80.017105 223.288147,80.058609 228.073700,80.572495 
	C228.035980,84.696709 227.574692,88.348541 227.113403,92.000366 
z"/>
<path fill="#347EE1" opacity="1.000000" stroke="none" 
	d="
M107.274323,69.426460 
	C114.004372,69.295509 120.633621,69.606750 127.685516,69.979355 
	C126.624954,72.561073 125.141754,75.081413 123.413452,77.823448 
	C118.195282,78.031227 113.222214,78.017319 107.807648,78.006042 
	C107.301941,75.295334 107.237732,72.582001 107.274323,69.426460 
z"/>
<path fill="#347EE1" opacity="1.000000" stroke="none" 
	d="
M830.827698,78.994720 
	C826.472351,78.664902 822.117065,78.335083 817.335693,77.986740 
	C818.096436,74.789551 819.283203,71.610909 820.739868,68.217545 
	C825.892273,68.466118 830.774719,68.929405 835.738159,70.067642 
	C834.155396,73.493301 832.491516,76.244003 830.827698,78.994720 
z"/>
<path fill="#3D6EE4" opacity="1.000000" stroke="none" 
	d="
M297.087616,80.969444 
	C297.441101,84.679062 297.794556,88.388687 297.602783,92.548576 
	C292.849915,92.996109 288.642303,92.993378 284.329865,92.552200 
	C283.887512,88.408630 283.550018,84.703514 283.664307,80.999619 
	C288.439941,80.990387 292.763763,80.979919 297.087616,80.969444 
z"/>
<path fill="#328ADF" opacity="1.000000" stroke="none" 
	d="
M863.010803,60.934959 
	C869.031982,60.624485 875.058716,60.390862 881.070557,59.952747 
	C882.695618,59.834320 884.275513,59.096470 885.974121,58.234177 
	C888.473267,60.602108 890.874512,63.378792 893.368958,66.502136 
	C888.313782,67.232239 883.165466,67.615669 877.253479,67.841179 
	C871.996826,65.433823 867.503845,63.184391 863.010803,60.934959 
z"/>
<path fill="#4665E6" opacity="1.000000" stroke="none" 
	d="
M178.132187,91.450867 
	C182.452408,90.998810 186.676941,90.999344 191.350388,90.999634 
	C191.862473,94.698517 191.925659,98.397636 191.889435,102.548370 
	C187.571182,103.000069 183.352341,103.000145 178.687363,103.000702 
	C178.172974,99.301941 178.104752,95.602699 178.132187,91.450867 
z"/>
<path fill="#4D69E7" opacity="1.000000" stroke="none" 
	d="
M347.714294,103.589294 
	C343.365021,104.024811 339.156952,104.014908 334.488403,104.003960 
	C333.951660,100.300842 333.875458,96.598770 333.911255,92.446548 
	C338.253662,91.992477 342.484070,91.988548 347.147095,91.975464 
	C347.671631,95.692162 347.763550,99.418015 347.714294,103.589294 
z"/>
<path fill="#1FBCD4" opacity="1.000000" stroke="none" 
	d="
M578.866333,25.695808 
	C573.805786,26.484510 568.705322,26.936518 563.311951,27.676651 
	C558.880493,26.065359 554.741943,24.165939 550.331116,22.035372 
	C555.154297,21.207357 560.272949,20.753721 565.333252,19.938324 
	C567.181030,19.640587 568.890137,18.483011 570.825073,17.369892 
	C573.600586,19.801096 576.213501,22.580103 578.866333,25.695808 
z"/>
<path fill="#4665E6" opacity="1.000000" stroke="none" 
	d="
M394.067352,91.450081 
	C398.402985,91.000076 402.629211,91.000374 407.420410,91.449615 
	C407.902435,95.598770 407.819519,99.298973 407.289307,102.999344 
	C402.623871,102.999123 398.405731,102.998741 394.187622,102.998360 
	C394.111084,99.299034 394.034515,95.599709 394.067352,91.450081 
z"/>
<path fill="#6345EB" opacity="1.000000" stroke="none" 
	d="
M418.474487,132.760101 
	C414.962891,133.172791 411.418457,133.414673 407.955719,134.081223 
	C406.546539,134.352509 405.314972,135.546402 403.964417,136.746796 
	C401.604156,133.364456 399.282074,129.555817 397.418945,125.374146 
	C402.315063,124.648376 406.752258,124.295662 411.452789,124.133720 
	C413.968933,127.136368 416.221710,129.948242 418.474487,132.760101 
z"/>
<path fill="#6B3EEC" opacity="1.000000" stroke="none" 
	d="
M677.495483,140.927673 
	C672.109192,140.708298 667.016174,140.434158 661.942322,139.956772 
	C660.067627,139.780396 658.237854,139.125626 656.450562,138.110657 
	C660.962280,134.915924 665.411072,132.299576 669.909790,130.114243 
	C671.242188,131.362808 672.438538,132.649002 673.824707,132.904266 
	C677.111206,133.509506 680.487732,133.625793 683.827881,133.939728 
	C681.817383,136.223907 679.806946,138.508102 677.495483,140.927673 
z"/>
<path fill="#6345EB" opacity="1.000000" stroke="none" 
	d="
M833.307678,121.891830 
	C835.406494,124.113556 837.505310,126.335274 839.693237,129.219025 
	C837.830688,130.256470 835.864441,130.569672 833.930603,131.021683 
	C830.890808,131.732178 827.872925,132.536148 824.845764,133.300537 
	C822.866577,130.193604 820.887390,127.086670 819.153381,123.288048 
	C824.034912,122.361519 828.671265,122.126671 833.307678,121.891830 
z"/>
<path fill="#673DEC" opacity="1.000000" stroke="none" 
	d="
M191.798523,127.012222 
	C191.862244,130.708038 191.925964,134.403870 191.441162,138.550842 
	C186.675049,139.001648 182.457443,139.001328 178.239838,139.001007 
	C178.173889,135.637390 178.107941,132.273758 178.545074,128.456787 
	C183.298294,127.673035 187.548401,127.342621 191.798523,127.012222 
z"/>
<path fill="#3082DF" opacity="1.000000" stroke="none" 
	d="
M772.056519,66.463219 
	C773.610413,65.443184 775.239746,64.376175 777.000854,64.071999 
	C780.400757,63.484783 783.875061,63.328205 787.753418,62.967484 
	C790.107239,66.054985 792.026184,69.168098 793.510132,72.639786 
	C788.305359,73.027878 783.535706,73.057404 778.765991,73.086929 
	C776.574463,70.978249 774.382996,68.869560 772.056519,66.463219 
z"/>
<path fill="#604EEA" opacity="1.000000" stroke="none" 
	d="
M214.178482,117.385056 
	C218.525467,116.995384 222.817032,116.995583 227.786072,117.270706 
	C229.782486,120.645058 231.101395,123.744492 232.420288,126.843918 
	C227.791565,127.245819 223.162857,127.647720 218.044434,128.081696 
	C216.410843,124.667480 215.266953,121.221207 214.178482,117.385056 
z"/>
<path fill="#604EEA" opacity="1.000000" stroke="none" 
	d="
M411.189392,123.942947 
	C406.752258,124.295662 402.315063,124.648376 397.422638,125.000763 
	C396.029602,121.598442 395.091858,118.196442 394.680969,114.396881 
	C399.429352,113.674492 403.650818,113.349663 408.091248,113.324615 
	C409.269897,117.063904 410.229645,120.503426 411.189392,123.942947 
z"/>
<path fill="#2D89DE" opacity="1.000000" stroke="none" 
	d="
M577.704224,68.968369 
	C572.350403,68.354538 567.258301,67.551743 562.074829,66.351868 
	C564.008484,63.392239 566.033508,60.829689 568.759216,58.107887 
	C573.887817,58.296719 578.315857,58.644802 582.743835,58.992882 
	C581.151245,62.255054 579.558655,65.517235 577.704224,68.968369 
z"/>
<path fill="#0FB1D1" opacity="1.000000" stroke="none" 
	d="
M347.705963,30.533092 
	C346.767792,31.029093 345.933929,30.986221 345.139252,31.142582 
	C335.641663,33.011299 334.212219,31.280354 334.984589,23.364912 
	C335.095337,22.230003 335.000854,21.075069 335.464539,19.466114 
	C339.802124,19.003126 343.676544,19.003424 347.550934,19.003721 
	C347.643463,22.698076 347.735962,26.392431 347.705963,30.533092 
z"/>
<path fill="#2D89DE" opacity="1.000000" stroke="none" 
	d="
M623.989502,57.996143 
	C629.487061,58.475067 634.984619,58.953991 640.562561,59.962158 
	C639.761169,61.165443 638.879395,61.839481 637.704163,62.726669 
	C634.963867,64.366219 632.517151,65.792625 629.873047,66.904526 
	C628.337219,66.143448 627.029053,65.500229 625.654419,65.288506 
	C622.065063,64.735680 618.446716,64.371719 614.839905,63.932449 
	C616.380127,62.041771 617.920288,60.151085 620.164307,58.137600 
	C621.908569,58.008579 622.949036,58.002361 623.989502,57.996143 
z"/>
<path fill="#4E52E7" opacity="1.000000" stroke="none" 
	d="
M465.011658,104.999512 
	C469.231537,105.001427 473.451447,105.003342 478.100769,105.003372 
	C478.602356,107.057022 478.674530,109.112556 478.603271,111.590385 
	C477.669373,113.477692 476.878937,114.942696 475.767517,117.002617 
	C472.554260,117.002617 468.817291,117.002617 464.588562,116.600143 
	C464.353119,115.136070 464.609436,114.074486 465.117096,112.862793 
	C465.237885,111.476913 465.107330,110.241135 464.892273,108.609436 
	C464.875763,107.142174 464.943695,106.070839 465.011658,104.999512 
z"/>
<path fill="#604EEA" opacity="1.000000" stroke="none" 
	d="
M191.900391,126.562401 
	C187.548401,127.342621 183.298294,127.673035 178.638916,128.007462 
	C178.162704,124.306305 178.095749,120.601135 178.129425,116.443573 
	C182.454315,115.992851 186.678589,115.994530 191.351837,115.994400 
	C191.867981,119.365929 191.935120,122.739258 191.900391,126.562401 
z"/>
<path fill="#3D6EE4" opacity="1.000000" stroke="none" 
	d="
M620.480591,91.992203 
	C616.114319,91.994225 611.747986,91.996246 606.958435,91.999977 
	C606.669983,88.601921 606.804871,85.202164 607.495605,81.404984 
	C612.353394,81.335724 616.655334,81.663895 620.975342,82.447487 
	C620.822510,85.932678 620.651550,88.962440 620.480591,91.992203 
z"/>
<path fill="#377CE2" opacity="1.000000" stroke="none" 
	d="
M297.129669,80.566971 
	C292.763763,80.979919 288.439941,80.990387 283.452881,80.708305 
	C281.301758,77.390663 279.813904,74.365562 278.827209,71.250092 
	C284.215820,71.107124 289.103241,71.054543 293.990631,71.001961 
	C295.050995,74.056137 296.111359,77.110313 297.129669,80.566971 
z"/>
<path fill="#1F93D9" opacity="1.000000" stroke="none" 
	d="
M333.925537,45.359081 
	C334.817780,41.109245 337.506653,40.598232 340.863403,40.960690 
	C342.793915,41.169140 344.764526,41.006290 347.149841,41.013264 
	C347.671387,43.429245 347.760162,45.842545 347.770264,48.707863 
	C344.824127,54.145515 339.038239,54.656727 333.879883,49.970070 
	C333.791687,48.290878 333.809204,47.012486 333.925537,45.359081 
z"/>
<path fill="#5058E7" opacity="1.000000" stroke="none" 
	d="
M815.309692,102.431107 
	C819.826355,102.214287 824.248413,102.434311 828.949219,102.999100 
	C829.457581,106.296318 829.687317,109.248779 829.445068,112.600845 
	C824.652649,113.000710 820.332214,113.000969 816.011719,113.001221 
	C815.746216,109.623466 815.480713,106.245712 815.309692,102.431107 
z"/>
<path fill="#4D69E7" opacity="1.000000" stroke="none" 
	d="
M284.434723,92.990639 
	C288.642303,92.993378 292.849915,92.996109 297.516876,92.997589 
	C298.040375,96.365807 298.104523,99.735298 298.068207,103.554436 
	C293.752045,104.005226 289.536285,104.006363 284.763580,103.564209 
	C284.282654,99.744171 284.358673,96.367401 284.434723,92.990639 
z"/>
<path fill="#08BCCE" opacity="1.000000" stroke="none" 
	d="
M121.060097,18.544264 
	C116.728676,18.999945 112.492630,18.999310 107.818283,19.000244 
	C107.379974,15.540414 107.379974,12.079011 107.379974,8.187675 
	C111.845192,8.187675 116.196297,8.187675 121.155479,8.187675 
	C121.155479,11.542041 121.155479,14.814995 121.060097,18.544264 
z"/>
<path fill="#6252EB" opacity="1.000000" stroke="none" 
	d="
M284.036865,115.008057 
	C288.206635,115.666389 292.376434,116.324738 296.960541,116.965057 
	C296.584442,120.186867 295.794006,123.426704 294.769470,126.896805 
	C289.942871,126.746887 285.350342,126.366699 280.382996,125.610168 
	C281.351044,121.825233 282.693970,118.416641 284.036865,115.008057 
z"/>
<path fill="#585FE9" opacity="1.000000" stroke="none" 
	d="
M501.335632,101.665024 
	C503.665833,101.921753 505.702972,102.544289 507.779144,102.981277 
	C509.806396,103.407974 511.873535,103.645210 514.321655,103.975746 
	C514.691956,107.354195 514.663696,110.722504 514.215149,114.423256 
	C509.358459,114.174248 504.922028,113.592796 500.485626,113.011353 
	C500.676941,109.324104 500.868286,105.636856 501.335632,101.665024 
z"/>
<path fill="#5058E7" opacity="1.000000" stroke="none" 
	d="
M407.872314,113.024841 
	C403.650818,113.349663 399.429352,113.674492 394.772400,113.999863 
	C394.212677,110.631409 394.088409,107.262413 394.075867,103.445892 
	C398.405731,102.998741 402.623871,102.999123 407.409302,103.441254 
	C407.941864,106.930275 407.907104,109.977554 407.872314,113.024841 
z"/>
<path fill="#1CA2D6" opacity="1.000000" stroke="none" 
	d="
M570.006592,39.415802 
	C574.333313,38.664986 578.635376,38.333164 583.352051,38.002178 
	C584.145386,41.377197 584.523987,44.751381 584.336670,48.557999 
	C579.524536,48.993855 575.278381,48.997280 571.032227,49.000706 
	C570.682129,45.945404 570.331970,42.890102 570.006592,39.415802 
z"/>
<path fill="#6345EB" opacity="1.000000" stroke="none" 
	d="
M357.149841,131.581940 
	C352.291443,132.563690 347.311951,133.227463 341.911255,134.077271 
	C340.021942,131.736328 338.553864,129.209396 337.380981,126.089775 
	C342.264954,123.205688 346.921143,122.856689 351.664368,125.010956 
	C353.452484,127.095291 355.240601,129.179626 357.149841,131.581940 
z"/>
<path fill="#08BCCE" opacity="1.000000" stroke="none" 
	d="
M347.686157,18.558998 
	C343.676544,19.003424 339.802124,19.003126 335.468933,19.005215 
	C334.859528,17.507328 334.708954,16.007055 334.276733,14.263460 
	C333.995026,12.212347 333.995026,10.404559 333.995026,8.176704 
	C338.477325,8.176704 342.848022,8.176704 347.821381,8.176704 
	C347.821381,11.572445 347.821381,14.843359 347.686157,18.558998 
z"/>
<path fill="#7134EE" opacity="1.000000" stroke="none" 
	d="
M797.126892,139.000320 
	C797.126892,142.121948 797.126892,145.243591 797.126892,148.756943 
	C792.607178,148.756943 788.242004,148.756943 783.242554,148.756943 
	C783.242554,145.422302 783.242554,142.166229 783.765381,138.457672 
	C788.567749,138.336899 792.847351,138.668610 797.126892,139.000320 
z"/>
<path fill="#6841EC" opacity="1.000000" stroke="none" 
	d="
M459.697174,126.884140 
	C464.353821,127.209068 469.010437,127.533997 474.097168,128.026825 
	C472.569672,131.384048 470.612122,134.573364 468.339447,137.902100 
	C465.755646,137.027206 463.560333,135.762665 461.197327,135.070145 
	C458.916016,134.401550 456.461761,134.322922 453.995789,133.329712 
	C455.837738,130.744217 457.767456,128.814178 459.697174,126.884140 
z"/>
<path fill="#2693DB" opacity="1.000000" stroke="none" 
	d="
M570.841675,49.320759 
	C575.278381,48.997280 579.524536,48.993855 584.209229,48.986313 
	C584.160583,52.110313 583.673523,55.238426 582.965088,58.679710 
	C578.315857,58.644802 573.887817,58.296719 569.006104,57.903786 
	C569.251892,55.119556 569.951477,52.380184 570.841675,49.320759 
z"/>
<path fill="#594EE9" opacity="1.000000" stroke="none" 
	d="
M500.381012,113.388046 
	C504.922028,113.592796 509.358459,114.174248 514.122681,114.869324 
	C515.376160,117.367546 516.301758,119.752144 517.298157,122.506775 
	C512.815491,122.927742 508.262054,122.978683 503.222290,123.051117 
	C501.916077,119.970001 501.096222,116.867378 500.381012,113.388046 
z"/>
<path fill="#604EEA" opacity="1.000000" stroke="none" 
	d="
M676.961243,114.991638 
	C681.220520,115.324585 685.479858,115.657539 690.167664,115.984962 
	C689.886353,119.146118 689.176514,122.312805 687.829224,125.562538 
	C682.616150,125.363518 678.040466,125.081451 673.580078,124.434357 
	C674.783997,121.043427 675.872620,118.017532 676.961243,114.991638 
z"/>
<path fill="#6345EB" opacity="1.000000" stroke="none" 
	d="
M712.736816,121.454056 
	C717.069275,121.002243 721.306030,120.995911 725.961365,120.978851 
	C726.478516,124.354729 726.577209,127.741325 726.153748,131.546356 
	C721.364624,131.642227 717.097717,131.319672 712.830750,130.997116 
	C712.767578,127.964592 712.704346,124.932068 712.736816,121.454056 
z"/>
<path fill="#673DEC" opacity="1.000000" stroke="none" 
	d="
M797.218994,138.553299 
	C792.847351,138.668610 788.567749,138.336899 783.867310,138.009003 
	C783.379944,134.978943 783.313538,131.945068 783.772278,128.461243 
	C788.576416,128.338715 792.855469,128.666138 797.134521,128.993576 
	C797.193359,132.031143 797.252197,135.068710 797.218994,138.553299 
z"/>
<path fill="#6F48ED" opacity="1.000000" stroke="none" 
	d="
M824.959473,133.607361 
	C827.872925,132.536148 830.890808,131.732178 833.930603,131.021683 
	C835.864441,130.569672 837.830688,130.256470 839.870789,129.496902 
	C843.516907,130.780136 847.074585,132.447510 850.898438,134.320099 
	C847.583862,135.347092 844.019897,136.253159 840.417542,136.964981 
	C837.328247,137.575378 834.195007,137.963531 830.977417,138.867569 
	C828.940125,137.494827 827.006714,135.704498 824.959473,133.607361 
z"/>
<path fill="#4863E6" opacity="1.000000" stroke="none" 
	d="
M691.027832,102.556961 
	C686.672058,103.002701 682.417786,103.003014 677.622375,102.557480 
	C677.141785,99.073502 677.202332,96.035370 677.710693,92.997726 
	C682.416016,92.998154 686.673523,92.998085 690.931030,92.998024 
	C690.997131,96.035858 691.063232,99.073700 691.027832,102.556961 
z"/>
<path fill="#5654E9" opacity="1.000000" stroke="none" 
	d="
M797.128418,109.031830 
	C797.190674,112.057426 797.252930,115.083023 796.753784,118.555023 
	C791.940308,118.996948 787.688171,118.992477 783.436035,118.987999 
	C783.370728,115.956627 783.305481,112.925247 783.778809,109.448151 
	C788.587708,109.012230 792.858032,109.022034 797.128418,109.031830 
z"/>
<path fill="#4460E5" opacity="1.000000" stroke="none" 
	d="
M797.115051,90.997757 
	C797.174072,94.027489 797.233093,97.057213 796.731262,100.539780 
	C791.934143,100.990570 787.697937,100.988525 783.461731,100.986481 
	C783.392944,97.960258 783.324097,94.934044 783.787964,91.458694 
	C788.585388,91.005638 792.850220,91.001694 797.115051,90.997757 
z"/>
<path fill="#3D6EE4" opacity="1.000000" stroke="none" 
	d="
M691.027588,92.549881 
	C686.673523,92.998085 682.416016,92.998154 677.620483,92.553040 
	C676.962219,89.094040 676.842102,86.080223 677.201416,83.046005 
	C681.960510,83.022133 686.240234,83.018661 690.519897,83.015198 
	C690.721313,86.044044 690.922729,89.072891 691.027588,92.549881 
z"/>
<path fill="#7133EE" opacity="1.000000" stroke="none" 
	d="
M178.140167,139.450302 
	C182.457443,139.001328 186.675049,139.001648 191.340897,139.002106 
	C191.789139,142.108292 191.789139,145.214371 191.789139,148.732361 
	C187.334900,148.732361 183.001724,148.732361 178.040512,148.732361 
	C178.040512,145.727814 178.040512,142.813705 178.140167,139.450302 
z"/>
<path fill="#299BDB" opacity="1.000000" stroke="none" 
	d="
M107.262329,45.415955 
	C111.629387,44.979206 115.892464,44.989353 120.566025,44.997341 
	C121.042595,48.031567 121.108681,51.067951 120.668976,54.551945 
	C115.890808,54.998203 111.618446,54.996857 107.346085,54.995510 
	C107.283501,51.951290 107.220917,48.907066 107.262329,45.415955 
z"/>
<path fill="#377CE2" opacity="1.000000" stroke="none" 
	d="
M778.855713,73.436531 
	C783.535706,73.057404 788.305359,73.027878 793.542603,72.997215 
	C794.908691,75.748413 795.807190,78.500748 796.209412,81.625305 
	C791.346130,82.040543 786.979248,82.083557 782.612305,82.126572 
	C781.390015,79.346420 780.167725,76.566277 778.855713,73.436531 
z"/>
<path fill="#377CE2" opacity="1.000000" stroke="none" 
	d="
M690.600464,82.639542 
	C686.240234,83.018661 681.960510,83.022133 676.993347,82.772278 
	C675.497192,80.096970 674.688477,77.674995 674.146851,74.921814 
	C678.899841,74.061134 683.385681,73.531662 687.871582,73.002182 
	C688.808105,76.089417 689.744568,79.176643 690.600464,82.639542 
z"/>
<path fill="#594EE9" opacity="1.000000" stroke="none" 
	d="
M815.969788,113.404999 
	C820.332214,113.000969 824.652649,113.000710 829.429810,113.000885 
	C830.965881,115.725952 832.045349,118.450584 833.216187,121.533516 
	C828.671265,122.126671 824.034912,122.361519 819.121704,122.936462 
	C817.872559,120.120636 816.900208,116.964706 815.969788,113.404999 
z"/>
<path fill="#6936EC" opacity="1.000000" stroke="none" 
	d="
M712.741394,131.443237 
	C717.097717,131.319672 721.364624,131.642227 726.006226,131.981903 
	C726.473694,134.380020 726.566589,136.761017 726.161987,139.663544 
	C721.381958,140.442764 717.099365,140.700485 712.816772,140.958221 
	C712.761841,137.935272 712.706909,134.912308 712.741394,131.443237 
z"/>
<path fill="#7137EE" opacity="1.000000" stroke="none" 
	d="
M712.654419,141.305511 
	C717.099365,140.700485 721.381958,140.442764 726.024536,140.088043 
	C726.517395,142.897995 726.650269,145.804932 726.812378,149.351562 
	C722.460632,149.351562 718.698853,149.530930 714.976807,149.225616 
	C714.045044,149.149170 712.772095,147.637192 712.490662,146.565704 
	C712.088196,145.033920 712.454285,143.300262 712.654419,141.305511 
z"/>
<path fill="#479FE1" opacity="1.000000" stroke="none" 
	d="
M726.640320,57.663044 
	C722.231873,58.054592 717.964294,58.019417 713.215088,58.008488 
	C712.575806,56.071857 712.208557,54.095154 712.354919,52.157227 
	C712.421326,51.277950 713.463806,49.793343 714.135498,49.751949 
	C717.770081,49.527966 721.627380,49.012505 724.971313,50.031013 
	C726.192810,50.403072 726.212952,54.719395 726.640320,57.663044 
z"/>
<path fill="#3082DF" opacity="1.000000" stroke="none" 
	d="
M614.554565,64.101608 
	C618.446716,64.371719 622.065063,64.735680 625.654419,65.288506 
	C627.029053,65.500229 628.337219,66.143448 629.729004,67.191040 
	C627.955811,69.896759 626.129333,72.001472 623.872559,74.037918 
	C621.055908,73.648148 618.647766,73.436432 616.289795,72.970947 
	C614.350586,72.588127 612.470825,71.904121 610.564697,71.353600 
	C611.799561,68.992653 613.034363,66.631714 614.554565,64.101608 
z"/>
<path fill="#6345EB" opacity="1.000000" stroke="none" 
	d="
M673.464844,124.799385 
	C678.040466,125.081451 682.616150,125.363518 687.571899,125.811661 
	C686.758545,128.493851 685.565063,131.009979 684.099731,133.732910 
	C680.487732,133.625793 677.111206,133.509506 673.824707,132.904266 
	C672.438538,132.649002 671.242188,131.362808 669.990967,129.818695 
	C671.169800,127.661217 672.317322,126.230301 673.464844,124.799385 
z"/>
<path fill="#624CEB" opacity="1.000000" stroke="none" 
	d="
M783.332886,119.430084 
	C787.688171,118.992477 791.940308,118.996948 796.665955,119.001862 
	C797.199707,122.035294 797.259949,125.068291 797.227356,128.547424 
	C792.855469,128.666138 788.576416,128.338715 783.870239,128.018311 
	C783.371948,125.307625 783.300842,122.589897 783.332886,119.430084 
z"/>
<path fill="#2F86DF" opacity="1.000000" stroke="none" 
	d="
M293.928894,70.658157 
	C289.103241,71.054543 284.215820,71.107124 278.567841,71.093338 
	C276.194336,69.385139 274.581451,67.743309 273.156799,65.746216 
	C275.173492,64.926407 276.978394,64.292267 278.835510,64.034203 
	C282.235291,63.561771 285.665955,63.311508 289.083740,62.968605 
	C290.678192,65.417183 292.272675,67.865768 293.928894,70.658157 
z"/>
<path fill="#3E7DE3" opacity="1.000000" stroke="none" 
	d="
M610.287476,71.580719 
	C612.470825,71.904121 614.350586,72.588127 616.289795,72.970947 
	C618.647766,73.436432 621.055908,73.648148 623.806763,74.401199 
	C623.099854,77.219200 622.028564,79.605637 620.957275,81.992073 
	C616.655334,81.663895 612.353394,81.335724 607.638794,81.010605 
	C608.154114,77.945053 609.082153,74.876450 610.287476,71.580719 
z"/>
<path fill="#3786E1" opacity="1.000000" stroke="none" 
	d="
M687.856140,72.649902 
	C683.385681,73.531662 678.899841,74.061134 673.886963,74.703705 
	C671.264954,72.203964 669.169800,69.591133 667.074646,66.978310 
	C672.269409,66.359444 677.464172,65.740578 683.047852,64.954170 
	C684.904724,67.290298 686.372681,69.793961 687.856140,72.649902 
z"/>
<path fill="#3E70E4" opacity="1.000000" stroke="none" 
	d="
M782.630127,82.571091 
	C786.979248,82.083557 791.346130,82.040543 796.149536,81.994926 
	C796.823792,84.697464 797.061523,87.402603 797.207153,90.552750 
	C792.850220,91.001694 788.585388,91.005638 783.887268,91.015442 
	C783.185303,88.352737 782.916687,85.684174 782.630127,82.571091 
z"/>
<path fill="#328ADF" opacity="1.000000" stroke="none" 
	d="
M289.002808,62.640530 
	C285.665955,63.311508 282.235291,63.561771 278.835510,64.034203 
	C276.978394,64.292267 275.173492,64.926407 272.807526,65.666931 
	C268.518341,64.267090 264.766693,62.591278 261.015045,60.915466 
	C264.756378,60.570061 268.518463,60.369545 272.233093,59.837616 
	C275.794159,59.327682 279.305969,58.473858 282.916443,57.396088 
	C284.969604,58.784821 286.945740,60.548637 289.002808,62.640530 
z"/>
<path fill="#6454EB" opacity="1.000000" stroke="none" 
	d="
M351.652435,124.654999 
	C346.921143,122.856689 342.264954,123.205688 337.378723,125.731766 
	C336.171875,123.208977 335.262512,120.451530 334.445374,117.320969 
	C337.613251,116.967278 340.712921,117.215202 343.752899,116.895592 
	C344.998657,116.764610 346.115570,115.407913 347.544922,114.344261 
	C349.079315,117.486168 350.359894,120.892609 351.652435,124.654999 
z"/>
<path fill="#5058E7" opacity="1.000000" stroke="none" 
	d="
M783.354797,101.421600 
	C787.697937,100.988525 791.934143,100.990570 796.640503,100.985588 
	C797.217896,103.437698 797.325073,105.896828 797.280273,108.693893 
	C792.858032,109.022034 788.587708,109.012230 783.883789,109.005249 
	C783.382751,106.624275 783.315308,104.240501 783.354797,101.421600 
z"/>
<path fill="#1FBCD4" opacity="1.000000" stroke="none" 
	d="
M550.599915,7.956196 
	C549.183533,8.450812 547.433960,8.952903 545.682007,8.961507 
	C530.883057,9.034182 516.083740,9.016716 500.846008,9.035572 
	C501.227631,8.521545 502.047638,7.542643 502.867950,7.542413 
	C518.667175,7.537995 534.466370,7.648283 550.599915,7.956196 
z"/>
<path fill="#2F8DDE" opacity="1.000000" stroke="none" 
	d="
M107.252670,55.418747 
	C111.618446,54.996857 115.890808,54.998203 120.580811,54.999393 
	C121.053581,56.719639 121.108719,58.440041 121.067657,60.581360 
	C116.728943,61.004803 112.486435,61.007332 107.805084,61.014999 
	C107.297249,59.294083 107.228264,57.568031 107.252670,55.418747 
z"/>
<path fill="#4274E5" opacity="1.000000" stroke="none" 
	d="
M554.330505,84.385757 
	C557.258850,82.915154 560.539856,81.530373 564.236877,80.204590 
	C561.329651,81.666260 558.006409,83.068916 554.330505,84.385757 
z"/>
<path fill="#6454EB" opacity="1.000000" stroke="none" 
	d="
M333.834290,108.309517 
	C334.244751,109.817436 334.464050,111.610023 334.439514,113.661575 
	C334.011475,112.145081 333.827301,110.369637 333.834290,108.309517 
z"/>
<path fill="#1FBCD4" opacity="1.000000" stroke="none" 
	d="
M560.357544,10.460199 
	C558.474487,10.240399 556.361694,9.743099 554.107971,8.943583 
	C556.020569,9.155143 558.074219,9.668921 560.357544,10.460199 
z"/>
<path fill="#3C85E2" opacity="1.000000" stroke="none" 
	d="
M529.697693,72.661140 
	C528.392456,73.460030 526.757751,74.157509 524.740479,74.790314 
	C526.028015,74.003662 527.698120,73.281693 529.697693,72.661140 
z"/>
<path fill="#3A86E1" opacity="1.000000" stroke="none" 
	d="
M375.302124,63.742657 
	C375.135437,62.340752 375.287994,60.912781 375.711334,59.250198 
	C375.861877,60.582588 375.741638,62.149590 375.302124,63.742657 
z"/>
<path fill="#2F8DDE" opacity="1.000000" stroke="none" 
	d="
M122.622314,62.937370 
	C122.318626,63.779488 121.689766,64.697220 121.060898,65.614944 
	C120.869926,64.876503 120.678955,64.138069 120.738770,63.202446 
	C121.425423,63.007832 121.861282,63.010406 122.622314,62.937370 
z"/>
<path fill="#479FE1" opacity="1.000000" stroke="none" 
	d="
M727.709229,62.574310 
	C727.671692,63.325768 727.218689,63.996277 726.765686,64.666779 
	C726.561218,63.991661 726.356689,63.316547 726.328613,62.413792 
	C726.767944,62.288548 727.030884,62.390953 727.709229,62.574310 
z"/>
<path fill="#2F8DDE" opacity="1.000000" stroke="none" 
	d="
M623.866211,57.705070 
	C622.949036,58.002361 621.908569,58.008579 620.478149,58.022701 
	C620.820374,57.305904 621.552551,56.581207 622.593079,55.781898 
	C623.181885,56.276196 623.462402,56.845097 623.866211,57.705070 
z"/>
<path fill="#1FBCD4" opacity="1.000000" stroke="none" 
	d="
M568.192688,14.579956 
	C567.587463,14.556844 566.856262,14.256664 566.048462,13.645290 
	C566.670105,13.657027 567.368408,13.979958 568.192688,14.579956 
z"/>
<path fill="#604EEA" opacity="1.000000" stroke="none" 
	d="
M691.074585,107.797592 
	C690.788757,107.413445 690.647278,106.867805 690.719238,106.183762 
	C691.028076,106.575600 691.123474,107.105850 691.074585,107.797592 
z"/>
<path fill="#F9FBFE" opacity="1.000000" stroke="none" 
	d="
M862.553589,60.982315 
	C867.503845,63.184391 871.996826,65.433823 876.800415,67.838165 
	C879.237976,71.179550 881.364990,74.366020 883.742554,77.777580 
	C884.471619,79.807480 884.950256,81.612282 885.611694,83.714233 
	C885.816040,85.318192 885.837646,86.625015 885.865173,88.322556 
	C867.260315,88.757095 848.649475,88.800934 829.582703,88.785034 
	C829.691956,85.735428 830.257263,82.745544 830.825073,79.375191 
	C832.491516,76.244003 834.155396,73.493301 835.927185,70.423477 
	C839.871338,67.582260 843.707581,65.060158 847.777100,62.288193 
	C848.467041,61.982536 848.923523,61.926735 849.954834,61.778076 
	C851.017944,61.450485 851.506226,61.215755 851.994507,60.981026 
	C855.361816,60.997242 858.729065,61.013458 862.553589,60.982315 
z"/>
<path fill="#FCFEFE" opacity="1.000000" stroke="none" 
	d="
M71.349556,45.620720 
	C71.287720,49.709461 71.079445,53.423706 70.875313,57.554474 
	C68.637596,61.697754 66.395729,65.424507 64.033051,69.459442 
	C57.498554,75.594009 50.071938,78.539566 41.296078,78.258224 
	C34.017132,78.024872 26.723310,78.286201 19.439472,78.148689 
	C17.995316,78.121429 16.566572,77.277641 14.998199,76.401604 
	C14.914443,73.619659 14.963207,71.246513 14.926210,68.435913 
	C14.896009,64.632645 14.951570,61.266811 14.920259,57.449657 
	C14.890463,53.631451 14.947538,50.264565 14.917422,46.445915 
	C14.891985,40.640228 14.953740,35.286308 14.935972,29.471577 
	C14.941050,27.019783 15.025651,25.028805 15.091560,22.613401 
	C25.743601,22.119526 36.414333,22.050074 47.552082,21.925720 
	C54.872486,23.877729 61.207989,26.743641 66.043869,32.777103 
	C67.952507,37.073593 69.577812,41.159904 71.349556,45.620720 
z"/>
<path fill="#FCFDFF" opacity="1.000000" stroke="none" 
	d="
M260.561432,60.966370 
	C264.766693,62.591278 268.518341,64.267090 272.619263,66.022186 
	C274.581451,67.743309 276.194336,69.385139 278.066650,71.183716 
	C279.813904,74.365562 281.301758,77.390663 283.001099,80.707077 
	C283.550018,84.703514 283.887512,88.408630 284.329865,92.552200 
	C284.358673,96.367401 284.282654,99.744171 284.327148,103.566704 
	C284.285858,107.372368 284.123993,110.732254 283.999512,114.550102 
	C282.693970,118.416641 281.351044,121.825233 279.941925,125.597397 
	C275.826904,129.327621 271.778076,132.694260 267.467194,136.299927 
	C259.952667,138.885376 252.683350,139.080795 245.010254,136.675171 
	C240.737747,133.486969 236.848984,130.333191 232.690247,127.011673 
	C231.101395,123.744492 229.782486,120.645058 228.252167,117.267639 
	C227.836227,113.229462 227.631683,109.469269 227.271454,105.340820 
	C227.172852,100.952759 227.229965,96.932953 227.200226,92.456757 
	C227.574692,88.348541 228.035980,84.696709 228.560379,80.628197 
	C230.392105,77.114090 232.160736,74.016678 234.023651,70.598389 
	C239.551346,67.293129 244.984741,64.308723 250.699554,61.099548 
	C254.023270,60.922279 257.065552,60.969780 260.561432,60.966370 
z"/>
<path fill="#FCFCFF" opacity="1.000000" stroke="none" 
	d="
M459.797821,126.530151 
	C457.767456,128.814178 455.837738,130.744217 453.757080,132.935852 
	C445.387451,138.499069 436.591034,140.916611 427.037292,137.665512 
	C424.190063,136.696609 421.744934,134.546158 418.795044,132.848602 
	C416.221710,129.948242 413.968933,127.136368 411.452759,124.133728 
	C410.229645,120.503426 409.269897,117.063904 408.091248,113.324608 
	C407.907104,109.977554 407.941864,106.930275 407.856628,103.441086 
	C407.819519,99.298973 407.902435,95.598770 407.868774,91.449997 
	C408.572174,86.634186 409.392181,82.266930 410.278442,77.501732 
	C413.903992,70.924904 418.647644,65.980942 425.415527,62.645332 
	C430.804108,61.957134 435.944061,61.511936 441.543762,61.020157 
	C445.652008,62.642067 449.300415,64.310562 453.426880,66.346191 
	C454.597015,67.159737 455.289154,67.606155 455.981293,68.052582 
	C456.032257,68.398277 456.204224,68.666328 456.729401,68.934280 
	C458.918213,72.298790 460.874847,75.585754 463.058228,79.087563 
	C463.788544,83.253799 464.292114,87.205193 464.893982,91.578712 
	C464.928986,96.031349 464.865723,100.061867 464.907043,104.545944 
	C464.943695,106.070839 464.875763,107.142174 464.711365,108.904694 
	C464.698486,110.734894 464.782104,111.873894 464.865753,113.012894 
	C464.609436,114.074486 464.353119,115.136070 464.134827,116.610535 
	C462.748077,120.074333 461.323273,123.125244 459.797821,126.530151 
z"/>
<path fill="#328ADF" opacity="1.000000" stroke="none" 
	d="
M851.852112,60.765293 
	C851.506226,61.215755 851.017944,61.450485 850.258057,61.607101 
	C850.560913,61.202515 851.135315,60.876041 851.852112,60.765293 
z"/>
<path fill="#FCFDFF" opacity="1.000000" stroke="none" 
	d="
M666.746460,66.878326 
	C669.169800,69.591133 671.264954,72.203964 673.619934,75.034912 
	C674.688477,77.674995 675.497192,80.096970 676.513916,82.792679 
	C676.842102,86.080223 676.962219,89.094040 677.172607,92.552544 
	C677.202332,96.035370 677.141785,99.073502 677.174866,102.558365 
	C677.141602,106.694374 677.014709,110.383659 676.924561,114.532295 
	C675.872620,118.017532 674.783997,121.043427 673.580078,124.434357 
	C672.317322,126.230301 671.169800,127.661217 669.941101,129.387695 
	C665.411072,132.299576 660.962280,134.915924 656.255310,137.764297 
	C651.593018,138.002853 647.188782,138.009369 642.384521,138.054184 
	C637.543213,135.487244 633.101929,132.882004 628.360046,130.129333 
	C625.918152,126.142395 623.776917,122.302879 621.414429,118.206314 
	C620.954285,113.530846 620.715393,109.112419 620.292725,104.335052 
	C620.261536,100.273865 620.414185,96.571625 620.523682,92.430801 
	C620.651550,88.962440 620.822510,85.932678 620.975403,82.447495 
	C622.028564,79.605637 623.099854,77.219200 624.237061,74.469475 
	C626.129333,72.001472 627.955811,69.896759 629.926392,67.505539 
	C632.517151,65.792625 634.963867,64.366219 638.088074,62.759850 
	C644.512085,62.196850 650.258606,61.813824 656.005188,61.430794 
	C656.440735,61.609207 656.876221,61.787621 657.846680,62.171448 
	C658.921631,62.471382 659.461670,62.565899 660.001770,62.660427 
	C662.140564,64.033073 664.279358,65.405716 666.746460,66.878326 
z"/>
<path fill="#2F8DDE" opacity="1.000000" stroke="none" 
	d="
M655.930054,61.173206 
	C650.258606,61.813824 644.512085,62.196850 638.381592,62.546700 
	C638.879395,61.839481 639.761169,61.165443 640.821655,60.247921 
	C645.031250,59.670910 649.062134,59.337387 653.546143,59.006310 
	C654.617798,59.644379 655.236389,60.279999 655.930054,61.173206 
z"/>
<path fill="#2F8DDE" opacity="1.000000" stroke="none" 
	d="
M659.955078,62.399933 
	C659.461670,62.565899 658.921631,62.471382 658.203369,62.155697 
	C658.652954,62.002838 659.280701,62.071140 659.955078,62.399933 
z"/>
<path fill="#3C85E2" opacity="1.000000" stroke="none" 
	d="
M455.935791,67.697540 
	C455.289154,67.606155 454.597015,67.159737 453.758484,66.430603 
	C454.371490,66.546089 455.130890,66.944290 455.935791,67.697540 
z"/>
<path fill="#6454EB" opacity="1.000000" stroke="none" 
	d="
M465.117096,112.862793 
	C464.782104,111.873894 464.698486,110.734894 464.795807,109.300629 
	C465.107330,110.241135 465.237885,111.476913 465.117096,112.862793 
z"/>
</svg>