<svg version="1.1" id="Layer_1" xmlns="http://www.w3.org/2000/svg" xmlns:xlink="http://www.w3.org/1999/xlink" x="0px" y="0px"
	 width="100%" viewBox="0 0 898 437" enable-background="new 0 0 898 437" xml:space="preserve">
<path fill="#FFFFFF" opacity="1.000000" stroke="none" 
	d="
M899.000000,289.000000 
	C899.000000,338.648804 899.000000,388.297638 899.000000,437.942383 
	C599.666687,437.938293 300.333313,437.938293 1.000000,437.938293 
	C1.000000,388.227753 1.000000,338.578888 1.449275,288.605652 
	C6.123061,288.281250 10.347571,288.281250 14.835420,288.281250 
	C14.835420,284.161774 14.835420,280.583038 14.923406,276.546631 
	C14.953427,271.726990 14.895464,267.364929 14.922079,262.542542 
	C14.948675,257.054016 14.890691,252.025833 14.916956,246.538513 
	C15.053769,241.403839 15.106334,236.728317 15.617172,232.030563 
	C25.211363,231.988586 34.354794,232.194992 43.481304,231.891983 
	C54.981781,231.510162 65.283035,227.968689 73.513817,218.980621 
	C76.869255,213.903076 79.923668,208.949020 83.219269,203.716736 
	C84.153748,198.291809 84.847023,193.145081 85.622818,187.594925 
	C84.510109,182.389816 83.314888,177.588165 82.083740,172.434143 
	C80.056908,168.993912 78.066002,165.906052 75.930679,162.519348 
	C73.216148,160.099442 70.646027,157.978363 67.918152,155.558380 
	C58.846863,147.995880 48.398853,146.744919 37.357613,147.015640 
	C25.245819,147.312637 13.119813,147.030045 1.000000,147.000000 
	C1.000000,98.349915 1.000000,49.699821 1.000000,1.024867 
	C300.214783,1.024867 599.429565,1.024867 899.000000,1.024867 
	C899.000000,74.022942 899.000000,147.046463 898.788330,220.483795 
	C898.576599,220.897614 898.142517,220.935013 898.081177,220.537994 
	C896.680664,216.427536 895.341492,212.714096 893.953369,208.649841 
	C891.457092,205.100189 889.009888,201.901352 886.328613,198.445267 
	C881.941284,195.277756 878.101074,191.701233 873.578796,189.576004 
	C856.702576,181.645142 834.469849,186.794250 823.362183,202.060287 
	C820.785767,206.823456 818.481934,211.414612 815.989624,216.335846 
	C815.353577,219.448441 814.905945,222.230972 814.351807,225.439774 
	C814.295410,227.913528 814.345459,229.961029 814.300293,232.457153 
	C814.267090,236.266846 814.328979,239.627930 814.294678,243.433929 
	C815.079590,249.266357 815.960693,254.653839 816.858154,260.415344 
	C820.022156,265.617096 823.169861,270.444794 826.489197,275.580872 
	C829.352905,278.034454 831.909058,280.383667 834.763367,282.285400 
	C842.424011,287.389374 851.178345,288.406036 860.095398,288.537567 
	C873.063049,288.728851 886.031738,288.849335 899.000000,289.000000 
M472.698120,207.366348 
	C471.608704,205.856659 470.519287,204.346954 469.177368,202.201996 
	C467.189606,200.444534 465.201813,198.687088 462.895874,196.320007 
	C459.507019,194.005844 456.349091,191.206146 452.687744,189.464996 
	C439.650146,183.264893 420.293915,185.021439 408.267059,196.048996 
	C405.134491,200.020737 402.001953,203.992493 398.322998,208.368637 
	C396.902649,212.912628 395.482300,217.456604 393.802429,222.790100 
	C393.712402,227.503006 393.622406,232.215912 393.273529,237.831970 
	C393.361603,241.577759 393.449677,245.323563 393.360046,249.854675 
	C394.228180,254.238678 395.096313,258.622650 395.976440,263.761993 
	C398.603516,268.193726 401.230591,272.625458 404.114105,277.682831 
	C421.931091,297.432312 451.575287,296.770630 469.043915,275.903748 
	C471.674957,270.265076 474.306000,264.626373 477.384308,258.316071 
	C477.568787,253.210922 477.753235,248.105789 478.128113,242.094284 
	C478.063385,238.387405 477.998657,234.680542 478.224884,230.386200 
	C477.724579,226.258408 477.224274,222.130600 476.778107,217.276031 
	C475.442688,214.185287 474.107300,211.094543 472.698120,207.366348 
M608.576172,212.559036 
	C607.726013,216.037888 606.875854,219.516724 605.779480,223.803558 
	C605.754211,227.511871 605.728943,231.220169 605.394348,235.818588 
	C605.501526,239.571472 605.608704,243.324371 605.468567,247.831329 
	C605.876160,251.255951 606.283752,254.680573 606.739624,258.909058 
	C608.148743,262.622864 609.557922,266.336670 611.081360,270.729797 
	C614.030273,274.210052 616.979187,277.690308 620.189026,281.789429 
	C635.917969,295.646362 662.185730,295.367188 676.648254,280.718628 
	C679.398193,277.133148 682.148132,273.547638 685.404907,269.493988 
	C686.694336,265.653687 687.983704,261.813385 689.673767,257.195831 
	C689.804749,253.456009 689.935791,249.716187 690.245850,245.072281 
	C690.183960,241.382538 690.122009,237.692795 690.231873,233.089691 
	C689.881592,228.711365 689.531311,224.333038 689.220093,219.140839 
	C687.164062,214.397415 685.108032,209.653976 682.908203,204.255798 
	C680.276550,201.502182 677.644836,198.748566 674.660034,195.406189 
	C673.682922,194.836212 672.574036,194.413315 671.748474,193.674088 
	C660.409302,183.520248 635.944458,182.780655 621.369751,195.214478 
	C619.239563,197.463867 617.109375,199.713272 614.406494,202.314911 
	C612.622314,205.548218 610.838196,208.781525 608.576172,212.559036 
M499.789520,244.750488 
	C499.925629,248.501144 500.061707,252.251785 500.123993,256.773010 
	C501.502136,260.508606 502.880310,264.244232 504.375275,268.641266 
	C506.907593,271.780762 509.439911,274.920258 512.190186,278.707214 
	C519.178467,284.441345 527.070801,288.051910 536.198853,288.230377 
	C548.472900,288.470398 560.752197,288.449066 573.029297,288.527435 
	C576.624939,288.550385 580.220825,288.530945 584.036438,288.530945 
	C584.036438,284.591125 584.036438,281.300690 584.335022,277.486847 
	C583.872620,276.476013 583.410217,275.465179 582.035339,274.273621 
	C566.011230,274.228424 549.987061,274.183258 533.346130,273.794098 
	C528.616150,271.112518 523.886230,268.430908 518.940308,265.103302 
	C517.296692,262.069275 515.653137,259.035248 514.099548,255.086594 
	C513.970703,251.725098 513.841858,248.363602 514.041321,244.342194 
	C515.540039,240.947693 517.038757,237.553192 519.047485,233.778961 
	C523.565063,228.642090 529.338745,225.878647 536.929626,224.912048 
	C540.075073,224.886749 543.231567,225.022644 546.363953,224.807373 
	C558.090820,224.001465 568.257996,219.996658 576.009644,209.835434 
	C578.325134,204.887833 580.640625,199.940231 583.388367,194.356766 
	C583.534363,190.572372 583.680420,186.787979 583.969116,182.170227 
	C582.985352,178.445862 582.001587,174.721497 580.951965,170.284393 
	C579.963501,168.491379 579.190308,166.527313 577.934570,164.946609 
	C576.177002,162.734268 574.059814,160.807632 571.806641,158.164383 
	C565.533691,150.596207 557.072388,147.542007 547.652954,147.213013 
	C537.185791,146.847397 526.697021,147.098709 516.217651,147.086700 
	C510.779327,147.080475 505.341034,147.085617 499.652771,147.085617 
	C499.652771,152.023224 499.652771,156.413300 499.652771,161.333786 
	C507.882050,161.333786 515.832703,161.145920 523.770874,161.380310 
	C534.203247,161.688309 544.625854,162.328735 555.556641,163.276352 
	C559.090149,166.168716 562.623596,169.061096 566.362122,172.640335 
	C567.619690,176.094818 568.877197,179.549301 570.011597,183.867462 
	C569.710693,187.256912 569.409851,190.646362 568.658264,194.550735 
	C564.777466,199.046463 560.896667,203.542191 556.245361,208.118332 
	C549.767578,209.041641 543.315491,210.280762 536.805664,210.810257 
	C528.198486,211.510376 520.297119,213.596191 513.278259,220.038315 
	C510.028107,224.294144 506.777924,228.549988 503.073639,233.307724 
	C502.072327,236.873688 501.071045,240.439667 499.789520,244.750488 
M725.747009,233.086670 
	C725.850220,229.397659 725.953369,225.708633 726.486755,221.468964 
	C727.729492,218.440170 728.972168,215.411362 730.772400,211.989044 
	C733.547974,209.051178 736.323486,206.113312 739.903564,203.176437 
	C752.163940,198.386124 763.655151,199.134583 774.307495,208.537430 
	C776.431274,211.729462 778.555054,214.921494 780.752380,218.952255 
	C781.319214,222.636536 781.886108,226.320801 782.245667,230.908356 
	C782.314697,234.945724 782.383728,238.983078 782.252991,243.930481 
	C782.320557,248.951492 782.388123,253.972519 782.252808,259.907379 
	C782.323242,264.607178 782.393738,269.307007 782.267578,274.918549 
	C782.267578,279.185242 782.267578,283.451935 782.267578,288.031677 
	C787.084290,288.031677 791.437988,288.031677 796.121704,288.031677 
	C796.121704,283.163727 796.121704,278.579346 796.320557,273.080139 
	C796.257629,268.387054 796.194641,263.693939 796.316406,258.081635 
	C796.256287,253.066666 796.196228,248.051697 796.456421,242.299072 
	C796.349121,237.852890 796.241760,233.406693 796.288086,228.072678 
	C795.806885,224.725327 795.325745,221.377960 794.907288,217.274338 
	C793.208374,213.529007 791.509399,209.783676 789.691345,205.377640 
	C786.148315,201.876129 782.605347,198.374619 778.873352,194.208313 
	C770.352356,187.473251 760.534363,185.200226 749.927673,186.155228 
	C742.402527,186.832764 735.757690,189.511612 730.687683,196.414871 
	C729.789062,197.942566 728.890381,199.470261 727.515015,201.312714 
	C727.373108,201.657028 727.231140,202.001328 726.280457,202.457321 
	C726.019714,202.379486 725.758972,202.301666 725.733704,201.404587 
	C725.664062,200.279388 725.594421,199.154190 725.768188,197.152359 
	C725.768188,194.607086 725.768188,192.061798 725.768188,189.507675 
	C720.640076,189.507675 716.281372,189.507675 711.375183,189.507675 
	C711.557129,192.566116 711.719543,195.296936 711.712097,198.933350 
	C711.774231,202.623230 711.836365,206.313126 711.711548,210.903595 
	C711.772461,214.269348 711.833374,217.635117 711.714294,221.913132 
	C711.772461,225.943985 711.830566,229.974838 711.702698,234.911102 
	C711.763123,238.606064 711.823547,242.301025 711.708618,246.915405 
	C711.766907,251.595734 711.825195,256.276062 711.583008,261.706726 
	C711.686646,266.481720 711.790283,271.256714 711.717468,276.945831 
	C711.717468,280.659943 711.717468,284.374084 711.717468,288.045776 
	C716.785339,288.045776 721.017334,288.045776 725.514099,288.045776 
	C725.514099,283.829926 725.514099,279.916168 725.760071,275.101013 
	C725.681702,270.403625 725.603271,265.706207 725.759949,260.101379 
	C725.681335,255.406631 725.602722,250.711884 725.762634,245.119080 
	C725.681885,241.404938 725.601135,237.690781 725.747009,233.086670 
M191.857483,247.105835 
	C191.796249,243.398102 191.735016,239.690353 191.845383,235.094788 
	C191.562378,230.729980 191.279373,226.365189 191.078751,221.181900 
	C189.475433,216.759979 187.872116,212.338058 186.027985,207.246353 
	C182.732056,203.389816 179.436111,199.533264 175.729782,195.141800 
	C169.188202,192.227615 162.898239,188.073212 156.047394,186.683319 
	C145.150711,184.472610 134.481232,185.970947 126.322540,196.163666 
	C124.787407,198.344849 123.252274,200.526031 121.312202,203.282562 
	C121.131187,200.584869 121.010895,198.792099 121.064613,196.104385 
	C121.005394,193.068298 120.946167,190.032211 121.059502,186.080887 
	C121.003647,181.719955 120.947784,177.359024 121.069595,172.091263 
	C121.010872,168.391785 120.952141,164.692307 121.066483,160.075546 
	C121.066483,155.839767 121.066483,151.603973 121.066483,147.378113 
	C116.033615,147.378113 111.781876,147.378113 107.254295,147.378113 
	C107.254295,152.102493 107.254295,156.544724 107.078331,161.896164 
	C107.137825,165.597794 107.197311,169.299423 107.085777,173.913193 
	C107.143364,177.939911 107.200958,181.966614 107.083008,186.896149 
	C107.140182,190.264328 107.197357,193.632492 107.083748,197.887344 
	C107.140671,200.590958 107.197594,203.294571 107.084496,206.894257 
	C107.141068,209.929932 107.197647,212.965591 107.084084,216.913986 
	C107.140717,220.941650 107.197350,224.969330 107.082565,229.910095 
	C107.138885,233.942200 107.195206,237.974304 107.082733,242.923828 
	C107.138947,247.619308 107.195160,252.314804 107.083252,257.929047 
	C107.141960,262.956451 107.200676,267.983826 107.095589,273.929657 
	C107.095589,278.637115 107.095589,283.344604 107.095589,288.158264 
	C112.090004,288.158264 116.436943,288.158264 120.887169,288.158264 
	C120.887169,282.861023 120.887169,277.934784 121.071884,272.089447 
	C121.013290,267.062073 120.954697,262.034729 121.069786,256.087219 
	C121.011215,251.392914 120.952637,246.698608 121.067169,241.090363 
	C121.010963,237.060150 120.954765,233.029953 121.074501,228.197189 
	C121.963547,224.131790 122.852592,220.066406 124.183380,215.469009 
	C125.816124,213.057388 127.448860,210.645782 129.725693,207.969131 
	C132.956223,205.987137 135.973099,203.437576 139.456177,202.126526 
	C151.248764,197.687714 161.563065,200.911301 170.903992,209.791641 
	C173.036224,214.193741 175.168457,218.595825 177.264130,223.816025 
	C177.523621,227.875473 177.783112,231.934906 177.873062,236.904083 
	C177.929276,240.603195 177.985489,244.302292 177.884598,248.916565 
	C177.938080,252.944931 177.991547,256.973297 177.877991,261.915375 
	C177.934998,265.944977 177.992020,269.974579 177.889343,274.925873 
	C177.889343,279.323792 177.889343,283.721710 177.889343,288.055786 
	C182.876389,288.055786 187.114700,288.055786 191.665466,288.055786 
	C191.665466,283.181946 191.665466,278.600159 191.854645,273.105743 
	C191.792923,269.071838 191.731201,265.037903 191.847427,260.091553 
	C191.789383,256.065552 191.731339,252.039566 191.857483,247.105835 
M333.246948,159.902573 
	C333.318939,163.938339 333.390930,167.974091 333.257416,172.919601 
	C333.326935,177.942520 333.396454,182.965439 332.882446,188.707794 
	C326.019348,188.707794 319.156281,188.707794 312.275757,188.707794 
	C312.275757,194.259262 312.275757,198.513504 312.275757,203.936371 
	C319.422150,203.936371 326.317078,203.936371 333.181305,204.875458 
	C333.268127,209.251892 333.354950,213.628311 333.250763,218.916672 
	C333.318604,223.271713 333.386475,227.626755 333.246307,232.885529 
	C333.315216,236.596710 333.384094,240.307907 333.254822,244.901398 
	C333.731171,249.627579 334.207520,254.353745 334.741394,259.888824 
	C337.460236,265.323242 340.179047,270.757660 343.137756,276.809998 
	C351.781830,286.503967 362.226349,292.104126 375.699585,291.707794 
	C375.699585,286.812134 375.699585,282.545227 375.699585,279.223022 
	C369.581421,276.765503 363.972900,274.512665 357.996948,271.760620 
	C354.945892,267.521942 351.894836,263.283264 348.809662,258.235657 
	C348.251160,253.490372 347.692657,248.745102 347.316711,243.092834 
	C347.255829,239.396744 347.194977,235.700638 347.310974,231.088394 
	C347.258820,226.741867 347.206635,222.395355 347.478271,217.304489 
	C347.484924,212.827957 347.491547,208.351410 348.484802,203.691162 
	C357.506317,203.691162 366.527832,203.691162 375.462402,203.691162 
	C375.462402,198.185913 375.462402,193.828598 375.462402,189.197372 
	C367.416870,189.197372 359.802368,189.270294 352.191315,189.141037 
	C350.498108,189.112259 348.816925,188.371567 347.308167,187.044159 
	C347.248047,182.029556 347.187927,177.014969 347.319183,171.089859 
	C347.256256,167.061691 347.193298,163.033539 347.318329,158.091431 
	C347.318329,154.626450 347.318329,151.161469 347.318329,147.395721 
	C342.505981,147.395721 338.116028,147.395721 333.456390,147.395721 
	C333.456390,151.439545 333.456390,155.219208 333.246948,159.902573 
M213.527283,222.720825 
	C213.453964,226.478836 213.380630,230.236832 213.135254,234.910034 
	C213.192841,239.277725 213.250427,243.645416 213.150894,248.874313 
	C214.088562,253.916611 215.026245,258.958923 215.972214,264.746826 
	C218.845245,269.220154 221.718277,273.693481 224.890533,278.787109 
	C241.632477,296.580444 271.752899,296.281219 287.006653,277.894623 
	C289.069153,274.734436 291.131683,271.574280 293.743042,267.936035 
	C294.909241,263.616211 296.075470,259.296417 297.649384,254.136673 
	C297.685059,249.759293 297.720764,245.381897 297.911041,240.081497 
	C297.791016,235.057556 297.670990,230.033615 297.686981,224.221771 
	C296.590881,220.109863 295.494781,215.997955 294.165131,211.180771 
	C291.139893,207.064178 288.114655,202.947601 284.813416,198.225876 
	C280.687531,195.273575 276.890594,191.623962 272.376526,189.494492 
	C256.251556,181.887665 235.187531,186.913055 224.863083,199.040848 
	C222.579453,202.362701 220.295822,205.684555 217.483032,209.459442 
	C216.294891,213.638672 215.106750,217.817917 213.527283,222.720825 
z"/>
<path fill="#FCFCFF" opacity="1.000000" stroke="none" 
	d="
M899.000000,242.000000 
	C899.000000,252.354233 899.000000,262.708466 898.538086,273.619202 
	C886.935425,274.189270 875.786743,274.459686 864.656799,274.119110 
	C858.088684,273.918152 851.550232,272.749481 844.766968,271.770386 
	C840.038269,267.344513 835.541077,263.164215 831.003540,258.601715 
	C829.998169,253.148071 829.033264,248.076630 828.410217,242.787781 
	C833.893799,242.478592 839.035156,242.337814 844.177246,242.303787 
	C862.451416,242.182861 880.725708,242.098328 899.000000,242.000000 
z"/>
<path fill="#6D36ED" opacity="1.000000" stroke="none" 
	d="
M844.998413,272.015991 
	C851.550232,272.749481 858.088684,273.918152 864.656799,274.119110 
	C875.786743,274.459686 886.935425,274.189270 898.538086,274.087830 
	C899.000000,278.689240 899.000000,283.378510 899.000000,288.533875 
	C886.031738,288.849335 873.063049,288.728851 860.095398,288.537567 
	C851.178345,288.406036 842.424011,287.389374 834.763367,282.285400 
	C831.909058,280.383667 829.352905,278.034454 826.954590,275.482178 
	C831.747742,274.716248 836.263733,274.489288 840.736938,273.923828 
	C842.214233,273.737091 843.581055,272.676849 844.998413,272.015991 
z"/>
<path fill="#3B70E4" opacity="1.000000" stroke="none" 
	d="
M73.212784,219.104065 
	C65.283035,227.968689 54.981781,231.510162 43.481304,231.891983 
	C34.354794,232.194992 25.211363,231.988586 15.141387,232.014053 
	C9.804886,232.013184 5.402443,232.006592 1.000000,232.000000 
	C1.000000,226.977905 1.000000,221.955811 1.463319,216.465729 
	C6.229050,215.996002 10.531463,215.994247 14.988217,216.371735 
	C18.658539,217.099579 22.199127,217.900208 25.685793,217.710388 
	C35.405300,217.181259 45.102451,216.241394 55.014778,215.823090 
	C57.860394,216.788315 60.476315,217.542557 63.144848,217.962402 
	C66.478195,218.486816 69.854836,218.736038 73.212784,219.104065 
z"/>
<path fill="#4361E5" opacity="1.000000" stroke="none" 
	d="
M899.000000,241.545883 
	C880.725708,242.098328 862.451416,242.182861 844.177246,242.303787 
	C839.035156,242.337814 833.893799,242.478592 827.942383,242.786621 
	C822.885498,242.998230 818.638184,242.993622 814.390869,242.988998 
	C814.328979,239.627930 814.267090,236.266846 814.741577,232.454422 
	C843.185364,232.002045 871.092712,232.001022 899.000000,232.000000 
	C899.000000,235.030594 899.000000,238.061188 899.000000,241.545883 
z"/>
<path fill="#09BDCE" opacity="1.000000" stroke="none" 
	d="
M1.000000,147.458069 
	C13.119813,147.030045 25.245819,147.312637 37.357613,147.015640 
	C48.398853,146.744919 58.846863,147.995880 67.652481,155.870270 
	C63.979744,156.987000 60.419174,157.891571 56.849354,157.929688 
	C41.619007,158.092392 26.385920,157.998947 11.153831,157.999115 
	C7.769221,157.999146 4.384611,157.999695 1.000000,158.000000 
	C1.000000,154.638718 1.000000,151.277420 1.000000,147.458069 
z"/>
<path fill="#3D6AE4" opacity="1.000000" stroke="none" 
	d="
M899.000000,231.541931 
	C871.092712,232.001022 843.185364,232.002045 814.836792,232.005798 
	C814.345459,229.961029 814.295410,227.913528 814.785217,225.435547 
	C819.580750,225.011139 823.836365,225.017197 828.149231,225.443512 
	C829.676758,226.625778 831.139038,228.031113 832.618591,228.049515 
	C846.269470,228.219223 859.923340,228.149200 873.576294,228.148926 
	C877.194275,228.148865 880.812256,228.148926 884.816345,228.148926 
	C884.621887,225.755341 884.477722,223.981598 884.831177,222.152878 
	C889.600037,221.710281 893.871277,221.322647 898.142517,220.934998 
	C898.142517,220.935013 898.576599,220.897614 898.788330,220.948807 
	C899.000000,224.361282 899.000000,227.722580 899.000000,231.541931 
z"/>
<path fill="#0BB3D0" opacity="1.000000" stroke="none" 
	d="
M1.000000,158.454102 
	C4.384611,157.999695 7.769221,157.999146 11.153831,157.999115 
	C26.385920,157.998947 41.619007,158.092392 56.849354,157.929688 
	C60.419174,157.891571 63.979744,156.987000 67.810242,156.169174 
	C70.646027,157.978363 73.216148,160.099442 75.833260,162.928833 
	C72.832085,164.091675 69.763939,164.444168 66.742683,165.036072 
	C64.672279,165.441696 62.667133,166.180405 60.296520,166.622742 
	C57.600876,165.329971 55.315708,163.403137 52.869690,163.170959 
	C40.483936,161.995331 28.056389,161.260010 15.401464,160.352982 
	C15.143417,163.800186 14.986144,165.901184 14.374947,168.002243 
	C9.614016,168.001541 5.307008,168.000763 1.000000,168.000000 
	C1.000000,164.969406 1.000000,161.938812 1.000000,158.454102 
z"/>
<path fill="#2A84DE" opacity="1.000000" stroke="none" 
	d="
M14.833874,215.992493 
	C10.531463,215.994247 6.229050,215.996002 1.463319,215.998871 
	C1.000000,210.311966 1.000000,204.623917 1.463295,198.468018 
	C6.228013,198.000885 10.529434,198.001602 14.914097,198.463684 
	C14.942850,204.614212 14.888362,210.303360 14.833874,215.992493 
z"/>
<path fill="#554EE9" opacity="1.000000" stroke="none" 
	d="
M14.832707,246.997635 
	C14.890691,252.025833 14.948675,257.054016 14.468803,262.542084 
	C9.620632,263.001312 5.310316,263.000641 1.000000,263.000000 
	C1.000000,257.977905 1.000000,252.955811 1.463760,247.466171 
	C6.229249,246.998306 10.530978,246.997971 14.832707,246.997635 
z"/>
<path fill="#2591DB" opacity="1.000000" stroke="none" 
	d="
M14.830856,198.002319 
	C10.529434,198.001602 6.228013,198.000885 1.463295,198.000076 
	C1.000000,193.310745 1.000000,188.621490 1.463324,183.468079 
	C6.229372,183.004013 10.532096,183.004089 14.920422,183.462921 
	C14.947635,188.615219 14.889246,193.308777 14.830856,198.002319 
z"/>
<path fill="#4361E5" opacity="1.000000" stroke="none" 
	d="
M14.916956,246.538513 
	C10.530978,246.997971 6.229249,246.998306 1.463760,246.999313 
	C1.000000,242.310745 1.000000,237.621490 1.000000,232.466125 
	C5.402443,232.006592 9.804886,232.013184 14.683113,232.036270 
	C15.106334,236.728317 15.053769,241.403839 14.916956,246.538513 
z"/>
<path fill="#199FD6" opacity="1.000000" stroke="none" 
	d="
M14.834820,183.004166 
	C10.532096,183.004089 6.229372,183.004013 1.463324,183.001968 
	C1.000000,178.310745 1.000000,173.621490 1.000000,168.466125 
	C5.307008,168.000763 9.614016,168.001541 14.462571,168.460785 
	C14.947686,173.614227 14.891253,178.309189 14.834820,183.004166 
z"/>
<path fill="#653EEC" opacity="1.000000" stroke="none" 
	d="
M1.000000,263.464661 
	C5.310316,263.000641 9.620632,263.001312 14.384224,263.002441 
	C14.895464,267.364929 14.953427,271.726990 14.470228,276.545746 
	C9.619376,277.001648 5.309688,277.000824 1.000000,277.000000 
	C1.000000,272.643097 1.000000,268.286194 1.000000,263.464661 
z"/>
<path fill="#6B32ED" opacity="1.000000" stroke="none" 
	d="
M1.000000,277.458069 
	C5.309688,277.000824 9.619376,277.001648 14.382242,277.003357 
	C14.835420,280.583038 14.835420,284.161774 14.835420,288.281250 
	C10.347571,288.281250 6.123061,288.281250 1.449275,288.140625 
	C1.000000,284.638702 1.000000,281.277435 1.000000,277.458069 
z"/>
<path fill="#0BBCCF" opacity="1.000000" stroke="none" 
	d="
M555.052612,162.826202 
	C544.625854,162.328735 534.203247,161.688309 523.770874,161.380310 
	C515.832703,161.145920 507.882050,161.333786 499.652771,161.333786 
	C499.652771,156.413300 499.652771,152.023224 499.652771,147.085617 
	C505.341034,147.085617 510.779327,147.080475 516.217651,147.086700 
	C526.697021,147.098709 537.185791,146.847397 547.652954,147.213013 
	C557.072388,147.542007 565.533691,150.596207 571.854736,158.874634 
	C568.343079,160.056793 564.763000,160.414703 561.231201,161.043594 
	C559.132385,161.417328 557.109619,162.217667 555.052612,162.826202 
z"/>
<path fill="#2D92DD" opacity="1.000000" stroke="none" 
	d="
M333.212006,203.936371 
	C326.317078,203.936371 319.422150,203.936371 312.275757,203.936371 
	C312.275757,198.513504 312.275757,194.259262 312.275757,188.707794 
	C319.156281,188.707794 326.019348,188.707794 333.607056,188.349884 
	C338.597839,187.980865 342.864014,187.969757 347.130219,187.958664 
	C348.816925,188.371567 350.498108,189.112259 352.191315,189.141037 
	C359.802368,189.270294 367.416870,189.197372 375.462402,189.197372 
	C375.462402,193.828598 375.462402,198.185913 375.462402,203.691162 
	C366.527832,203.691162 357.506317,203.691162 347.604431,203.826294 
	C342.220032,203.953094 337.716034,203.944733 333.212006,203.936371 
z"/>
<path fill="#6B32ED" opacity="1.000000" stroke="none" 
	d="
M584.036438,278.010223 
	C584.036438,281.300690 584.036438,284.591125 584.036438,288.530945 
	C580.220825,288.530945 576.624939,288.550385 573.029297,288.527435 
	C560.752197,288.449066 548.472900,288.470398 536.198853,288.230377 
	C527.070801,288.051910 519.178467,284.441345 512.179688,277.983215 
	C514.133484,276.835388 516.079895,276.274811 518.065674,276.014221 
	C523.355713,275.319855 528.662720,274.754639 533.962952,274.138062 
	C549.987061,274.183258 566.011230,274.228424 582.501343,274.694214 
	C583.323669,276.079956 583.680054,277.045074 584.036438,278.010223 
z"/>
<path fill="#6F35ED" opacity="1.000000" stroke="none" 
	d="
M468.509766,276.245422 
	C451.575287,296.770630 421.931091,297.432312 404.379822,277.202118 
	C410.552856,276.086212 416.460175,275.451019 422.731018,274.873413 
	C432.504211,279.302094 441.722534,278.437225 451.203522,274.086182 
	C453.695129,274.502289 455.790375,274.751831 457.885986,274.998413 
	C461.427124,275.415100 464.968506,275.829865 468.509766,276.245422 
z"/>
<path fill="#268FDC" opacity="1.000000" stroke="none" 
	d="
M823.634766,201.888290 
	C834.469849,186.794250 856.702576,181.645142 873.578796,189.576004 
	C878.101074,191.701233 881.941284,195.277756 885.902222,198.635284 
	C881.195801,199.388657 876.664612,199.550751 872.177429,200.083344 
	C870.716858,200.256714 869.371033,201.397339 867.575073,202.069366 
	C858.135254,198.763794 849.474487,199.875717 840.888794,203.964508 
	C838.984131,203.082260 837.316101,202.189224 835.596558,202.075394 
	C831.622559,201.812332 827.623596,201.926880 823.634766,201.888290 
z"/>
<path fill="#6F35ED" opacity="1.000000" stroke="none" 
	d="
M286.442993,278.175598 
	C271.752899,296.281219 241.632477,296.580444 225.184906,278.394073 
	C229.672592,277.667267 233.880859,277.455139 238.052185,276.942352 
	C239.823578,276.724579 241.517532,275.876617 243.637375,275.419342 
	C252.065353,278.862427 260.051453,278.337616 268.114380,275.584778 
	C269.577118,276.308990 270.910797,276.829712 272.283051,276.967957 
	C276.995758,277.442780 281.721954,277.783661 286.442993,278.175598 
z"/>
<path fill="#3579E2" opacity="1.000000" stroke="none" 
	d="
M513.896790,219.751617 
	C520.297119,213.596191 528.198486,211.510376 536.805664,210.810257 
	C543.315491,210.280762 549.767578,209.041641 556.874023,208.374664 
	C559.214600,209.086624 560.909485,209.840698 562.641602,209.938889 
	C566.913452,210.181076 571.202332,210.122269 575.484375,210.184448 
	C568.257996,219.996658 558.090820,224.001465 546.363953,224.807373 
	C543.231567,225.022644 540.075073,224.886749 536.355713,224.478790 
	C531.466980,223.696915 527.121948,223.554779 522.847229,222.931061 
	C519.715881,222.474182 515.872009,223.600418 513.896790,219.751617 
z"/>
<path fill="#268FDC" opacity="1.000000" stroke="none" 
	d="
M225.421387,198.771179 
	C235.187531,186.913055 256.251556,181.887665 272.376526,189.494492 
	C276.890594,191.623962 280.687531,195.273575 284.692444,198.842545 
	C283.787598,199.639252 283.011963,199.877380 282.218506,199.989838 
	C277.137970,200.709854 272.053528,201.402283 266.568451,202.076599 
	C259.550873,199.748795 252.874023,199.539642 245.937042,201.100922 
	C243.750153,200.159531 241.785202,199.207245 239.766937,199.076263 
	C234.998581,198.766739 230.204849,198.847977 225.421387,198.771179 
z"/>
<path fill="#6F32ED" opacity="1.000000" stroke="none" 
	d="
M675.993896,280.814301 
	C662.185730,295.367188 635.917969,295.646362 620.155579,281.071045 
	C624.165161,279.900940 628.227966,279.576843 632.244080,278.952148 
	C634.861389,278.545044 637.410706,277.701080 640.403687,277.040070 
	C645.878540,277.021057 650.940125,277.014771 656.243042,277.309631 
	C661.332153,278.073181 666.194946,278.422638 671.019897,279.058929 
	C672.725403,279.283844 674.338562,280.208893 675.993896,280.814301 
z"/>
<path fill="#2A89DD" opacity="1.000000" stroke="none" 
	d="
M176.140182,195.676727 
	C179.436111,199.533264 182.732056,203.389816 185.714325,207.646317 
	C180.480621,208.406342 175.560577,208.766388 170.640533,209.126450 
	C161.563065,200.911301 151.248764,197.687714 139.456177,202.126526 
	C135.973099,203.437576 132.956223,205.987137 129.320679,207.707397 
	C127.989571,206.965240 127.071381,206.087296 126.136063,206.068649 
	C119.844246,205.943253 113.548790,206.000259 107.254517,205.998184 
	C107.197594,203.294571 107.140671,200.590958 107.615631,197.443604 
	C112.395203,196.999695 116.642906,196.999527 120.890602,196.999344 
	C121.010895,198.792099 121.131187,200.584869 121.312202,203.282562 
	C123.252274,200.526031 124.787407,198.344849 126.808144,196.350800 
	C128.626175,197.024902 129.955414,197.924652 131.291550,197.935059 
	C144.750275,198.039734 158.211105,198.071381 171.668381,197.896576 
	C173.168335,197.877075 174.650024,196.450668 176.140182,195.676727 
z"/>
<path fill="#2591DB" opacity="1.000000" stroke="none" 
	d="
M408.883850,195.772018 
	C420.293915,185.021439 439.650146,183.264893 452.687744,189.464996 
	C456.349091,191.206146 459.507019,194.005844 462.611298,196.646606 
	C459.555389,197.315414 456.786469,197.928101 454.012268,197.953064 
	C441.921173,198.061890 429.825684,198.142303 417.738525,197.898071 
	C414.773865,197.838165 411.834717,196.514618 408.883850,195.772018 
z"/>
<path fill="#2591DB" opacity="1.000000" stroke="none" 
	d="
M175.934982,195.409271 
	C174.650024,196.450668 173.168335,197.877075 171.668381,197.896576 
	C158.211105,198.071381 144.750275,198.039734 131.291550,197.935059 
	C129.955414,197.924652 128.626175,197.024902 127.101318,196.173309 
	C134.481232,185.970947 145.150711,184.472610 156.047394,186.683319 
	C162.898239,188.073212 169.188202,192.227615 175.934982,195.409271 
z"/>
<path fill="#2591DB" opacity="1.000000" stroke="none" 
	d="
M621.969421,194.921783 
	C635.944458,182.780655 660.409302,183.520248 671.748474,193.674088 
	C672.574036,194.413315 673.682922,194.836212 674.452026,195.867493 
	C673.783752,196.509079 673.324036,196.845245 672.862915,196.847183 
	C656.829590,196.914536 640.795898,196.985107 624.763123,196.901993 
	C623.828430,196.897141 622.900513,195.611435 621.969421,194.921783 
z"/>
<path fill="#2A89DD" opacity="1.000000" stroke="none" 
	d="
M621.669556,195.068130 
	C622.900513,195.611435 623.828430,196.897141 624.763123,196.901993 
	C640.795898,196.985107 656.829590,196.914536 672.862915,196.847183 
	C673.324036,196.845245 673.783752,196.509079 674.628662,196.161865 
	C677.644836,198.748566 680.276550,201.502182 682.744141,204.897217 
	C677.384583,206.026489 672.189026,206.514374 666.665649,206.892090 
	C655.045959,198.145432 643.347595,198.210052 630.924072,204.976837 
	C627.767273,204.538345 624.984070,204.437897 622.270569,203.950180 
	C619.800842,203.506287 617.406677,202.641785 614.979248,201.962677 
	C617.109375,199.713272 619.239563,197.463867 621.669556,195.068130 
z"/>
<path fill="#6F35ED" opacity="1.000000" stroke="none" 
	d="
M358.364380,272.259827 
	C363.972900,274.512665 369.581421,276.765503 375.699585,279.223022 
	C375.699585,282.545227 375.699585,286.812134 375.699585,291.707794 
	C362.226349,292.104126 351.781830,286.503967 343.213196,276.137909 
	C346.412506,274.977203 349.555969,274.585815 352.653198,273.964386 
	C354.592834,273.575256 356.463043,272.839874 358.364380,272.259827 
z"/>
<path fill="#2591DB" opacity="1.000000" stroke="none" 
	d="
M731.247437,196.047485 
	C735.757690,189.511612 742.402527,186.832764 749.927673,186.155228 
	C760.534363,185.200226 770.352356,187.473251 778.774780,194.898895 
	C777.839966,196.046783 776.997620,196.912964 776.168335,196.900711 
	C761.193787,196.679413 746.220764,196.352112 731.247437,196.047485 
z"/>
<path fill="#2A89DD" opacity="1.000000" stroke="none" 
	d="
M408.575439,195.910507 
	C411.834717,196.514618 414.773865,197.838165 417.738525,197.898071 
	C429.825684,198.142303 441.921173,198.061890 454.012268,197.953064 
	C456.786469,197.928101 459.555389,197.315414 462.770386,196.951416 
	C465.201813,198.687088 467.189606,200.444534 468.807129,202.566498 
	C465.938599,202.954010 463.388123,202.669205 460.955780,203.081406 
	C458.193817,203.549454 455.537506,204.641052 452.493713,205.324188 
	C440.270538,198.082840 426.611511,197.462204 413.545593,209.811325 
	C408.421997,209.088272 403.645691,208.526245 398.869385,207.964233 
	C402.001953,203.992493 405.134491,200.020737 408.575439,195.910507 
z"/>
<path fill="#2A89DD" opacity="1.000000" stroke="none" 
	d="
M730.967529,196.231171 
	C746.220764,196.352112 761.193787,196.679413 776.168335,196.900711 
	C776.997620,196.912964 777.839966,196.046783 778.869263,195.231293 
	C782.605347,198.374619 786.148315,201.876129 789.298584,205.695526 
	C786.462219,206.009155 783.985840,205.754410 781.583923,206.068924 
	C779.029480,206.403381 776.545654,207.277191 774.031006,207.915482 
	C763.655151,199.134583 752.163940,198.386124 739.235046,202.859741 
	C735.041626,202.028030 731.516663,201.513000 727.991760,200.997955 
	C728.890381,199.470261 729.789062,197.942566 730.967529,196.231171 
z"/>
<path fill="#6244EB" opacity="1.000000" stroke="none" 
	d="
M468.776855,276.074585 
	C464.968506,275.829865 461.427124,275.415100 457.885986,274.998413 
	C455.790375,274.751831 453.695129,274.502289 451.405212,273.812500 
	C455.105103,268.571014 458.999542,263.771088 463.364868,258.980133 
	C468.202850,258.988647 472.569916,258.988190 476.937012,258.987701 
	C474.306000,264.626373 471.674957,270.265076 468.776855,276.074585 
z"/>
<path fill="#6244EB" opacity="1.000000" stroke="none" 
	d="
M844.766968,271.770386 
	C843.581055,272.676849 842.214233,273.737091 840.736938,273.923828 
	C836.263733,274.489288 831.747742,274.716248 826.782959,275.173798 
	C823.169861,270.444794 820.022156,265.617096 817.329529,260.402832 
	C822.204346,259.672180 826.624084,259.328094 831.043884,258.983948 
	C835.541077,263.164215 840.038269,267.344513 844.766968,271.770386 
z"/>
<path fill="#327DE1" opacity="1.000000" stroke="none" 
	d="
M73.513817,218.980606 
	C69.854836,218.736038 66.478195,218.486816 63.144848,217.962402 
	C60.476315,217.542557 57.860394,216.788315 55.263355,215.621002 
	C59.758713,211.004257 64.211838,206.949005 69.098297,202.960205 
	C74.013771,203.349411 78.495926,203.672180 82.978073,203.994949 
	C79.923668,208.949020 76.869255,213.903076 73.513817,218.980606 
z"/>
<path fill="#2A89DD" opacity="1.000000" stroke="none" 
	d="
M575.747009,210.009949 
	C571.202332,210.122269 566.913452,210.181076 562.641602,209.938889 
	C560.909485,209.840698 559.214600,209.086624 557.259277,208.334457 
	C560.896667,203.542191 564.777466,199.046463 569.289062,194.340500 
	C574.265198,194.417709 578.610657,194.705154 582.956055,194.992615 
	C580.640625,199.940231 578.325134,204.887833 575.747009,210.009949 
z"/>
<path fill="#6244EB" opacity="1.000000" stroke="none" 
	d="
M358.180664,272.010223 
	C356.463043,272.839874 354.592834,273.575256 352.653198,273.964386 
	C349.555969,274.585815 346.412506,274.977203 343.093231,275.828949 
	C340.179047,270.757660 337.460236,265.323242 335.200378,259.461426 
	C340.054138,259.037537 344.448975,259.041046 348.843781,259.044556 
	C351.894836,263.283264 354.945892,267.521942 358.180664,272.010223 
z"/>
<path fill="#2A84DE" opacity="1.000000" stroke="none" 
	d="
M727.753418,201.155334 
	C731.516663,201.513000 735.041626,202.028030 738.832764,202.859253 
	C736.323486,206.113312 733.547974,209.051178 730.294434,211.804657 
	C728.173096,211.080475 726.549133,210.160080 724.882629,210.075043 
	C720.564636,209.854721 716.227783,210.002304 711.898499,210.003006 
	C711.836365,206.313126 711.774231,202.623230 712.267700,198.471481 
	C717.057129,198.016068 721.290955,198.022537 725.524780,198.028992 
	C725.594421,199.154190 725.664062,200.279388 725.485840,202.014954 
	C725.467957,202.989868 725.697937,203.354446 725.927917,203.719009 
	C726.315063,203.261215 726.702148,202.803436 727.089233,202.345642 
	C727.231140,202.001328 727.373108,201.657028 727.753418,201.155334 
z"/>
<path fill="#653EEC" opacity="1.000000" stroke="none" 
	d="
M243.246674,275.315094 
	C241.517532,275.876617 239.823578,276.724579 238.052185,276.942352 
	C233.880859,277.455139 229.672592,277.667267 225.035278,278.083923 
	C221.718277,273.693481 218.845245,269.220154 216.431366,264.373718 
	C221.317490,263.651520 225.744461,263.302399 230.427383,263.157227 
	C234.871124,267.345795 239.058899,271.330444 243.246674,275.315094 
z"/>
<path fill="#426FE5" opacity="1.000000" stroke="none" 
	d="
M513.587524,219.894958 
	C515.872009,223.600418 519.715881,222.474182 522.847229,222.931061 
	C527.121948,223.554779 531.466980,223.696915 535.893921,224.424530 
	C529.338745,225.878647 523.565063,228.642090 518.289062,233.925507 
	C512.862976,233.649963 508.195374,233.227875 503.527771,232.805817 
	C506.777924,228.549988 510.028107,224.294144 513.587524,219.894958 
z"/>
<path fill="#5354E8" opacity="1.000000" stroke="none" 
	d="
M831.003540,258.601746 
	C826.624084,259.328094 822.204346,259.672180 817.313171,260.028809 
	C815.960693,254.653839 815.079590,249.266357 814.294678,243.433929 
	C818.638184,242.993622 822.885498,242.998230 827.600586,243.004028 
	C829.033264,248.076630 829.998169,253.148071 831.003540,258.601746 
z"/>
<path fill="#327DE1" opacity="1.000000" stroke="none" 
	d="
M823.362183,202.060287 
	C827.623596,201.926880 831.622559,201.812332 835.596558,202.075394 
	C837.316101,202.189224 838.984131,203.082260 840.708862,204.234222 
	C837.241272,208.921768 833.740417,212.996429 829.812256,217.010727 
	C824.982727,216.635498 820.580383,216.320648 816.178101,216.005768 
	C818.481934,211.414612 820.785767,206.823456 823.362183,202.060287 
z"/>
<path fill="#6244EB" opacity="1.000000" stroke="none" 
	d="
M422.367462,274.815796 
	C416.460175,275.451019 410.552856,276.086212 404.251617,276.889282 
	C401.230591,272.625458 398.603516,268.193726 396.433105,263.381958 
	C401.286011,262.661102 405.682220,262.320282 410.334045,262.190155 
	C414.515564,266.539154 418.441528,270.677460 422.367462,274.815796 
z"/>
<path fill="#268FDC" opacity="1.000000" stroke="none" 
	d="
M83.219269,203.716736 
	C78.495926,203.672180 74.013771,203.349411 69.175606,202.576080 
	C69.866234,197.416748 70.912880,192.707993 72.424225,187.999527 
	C77.106056,187.999329 81.323174,187.998856 85.540298,187.998367 
	C84.847023,193.145081 84.153748,198.291809 83.219269,203.716736 
z"/>
<path fill="#5354E8" opacity="1.000000" stroke="none" 
	d="
M477.160645,258.651886 
	C472.569916,258.988190 468.202850,258.988647 463.369141,258.555786 
	C463.351654,253.081955 463.800812,248.041428 464.698669,243.000763 
	C469.410797,243.000610 473.674225,243.000626 477.937683,243.000641 
	C477.753235,248.105789 477.568787,253.210922 477.160645,258.651886 
z"/>
<path fill="#554EE9" opacity="1.000000" stroke="none" 
	d="
M230.171417,262.953308 
	C225.744461,263.302399 221.317490,263.651520 216.427216,264.000916 
	C215.026245,258.958923 214.088562,253.916611 213.672424,248.440247 
	C218.441940,248.004761 222.689926,248.003357 227.013535,248.415497 
	C228.116592,253.537125 229.144012,258.245209 230.171417,262.953308 
z"/>
<path fill="#2E85DF" opacity="1.000000" stroke="none" 
	d="
M225.142242,198.906006 
	C230.204849,198.847977 234.998581,198.766739 239.766937,199.076263 
	C241.785202,199.207245 243.750153,200.159531 245.673096,201.294678 
	C241.074844,205.243179 236.542816,208.635513 231.921112,211.631989 
	C230.228165,210.824295 228.645691,210.270920 227.017075,210.031387 
	C224.029816,209.592056 221.015335,209.337814 218.012192,209.006409 
	C220.295822,205.684555 222.579453,202.362701 225.142242,198.906006 
z"/>
<path fill="#6244EB" opacity="1.000000" stroke="none" 
	d="
M711.893921,276.031708 
	C711.790283,271.256714 711.686646,266.481720 712.203613,261.344086 
	C717.057800,260.990570 721.291321,260.999695 725.524902,261.008820 
	C725.603271,265.706207 725.681702,270.403625 725.206421,275.552399 
	C720.399841,276.013092 716.146912,276.022400 711.893921,276.031708 
z"/>
<path fill="#199FD6" opacity="1.000000" stroke="none" 
	d="
M347.219177,187.501404 
	C342.864014,187.969757 338.597839,187.980865 333.898804,187.990173 
	C333.396454,182.965439 333.326935,177.942520 333.793335,172.461243 
	C338.595428,172.002045 342.861633,172.001205 347.127808,172.000366 
	C347.187927,177.014969 347.248047,182.029556 347.219177,187.501404 
z"/>
<path fill="#5354E8" opacity="1.000000" stroke="none" 
	d="
M796.136169,243.036728 
	C796.196228,248.051697 796.256287,253.066666 795.751343,258.541016 
	C790.942749,258.998108 786.699219,258.995789 782.455688,258.993530 
	C782.388123,253.972519 782.320557,248.951492 782.786438,243.469757 
	C787.591980,243.018265 791.864075,243.027496 796.136169,243.036728 
z"/>
<path fill="#653EEC" opacity="1.000000" stroke="none" 
	d="
M639.990479,277.052826 
	C637.410706,277.701080 634.861389,278.545044 632.244080,278.952148 
	C628.227966,279.576843 624.165161,279.900940 620.025146,280.761597 
	C616.979187,277.690308 614.030273,274.210052 611.273926,270.094849 
	C616.350342,268.959930 621.234253,268.459961 626.416016,268.104004 
	C631.139404,271.182922 635.564941,274.117859 639.990479,277.052826 
z"/>
<path fill="#6244EB" opacity="1.000000" stroke="none" 
	d="
M107.259384,273.011230 
	C107.200676,267.983826 107.141960,262.956451 107.613998,257.467407 
	C112.395195,257.006287 116.645653,257.006836 120.896103,257.007355 
	C120.954697,262.034729 121.013290,267.062073 120.524345,272.547241 
	C115.737663,273.007080 111.498528,273.009155 107.259384,273.011230 
z"/>
<path fill="#3D6AE4" opacity="1.000000" stroke="none" 
	d="
M393.532410,236.928818 
	C393.622406,232.215912 393.712402,227.503006 394.391724,222.394943 
	C399.289764,221.999863 403.598511,221.999954 407.931091,222.465836 
	C407.797577,227.615265 407.640320,232.298904 407.051025,236.988449 
	C402.256805,236.972519 397.894592,236.950668 393.532410,236.928818 
z"/>
<path fill="#2E85DF" opacity="1.000000" stroke="none" 
	d="
M266.970367,202.103760 
	C272.053528,201.402283 277.137970,200.709854 282.218506,199.989838 
	C283.011963,199.877380 283.787598,199.639252 284.830444,199.145111 
	C288.114655,202.947601 291.139893,207.064178 293.788269,211.565521 
	C288.844086,212.330383 284.276825,212.710480 279.445892,212.902435 
	C275.111633,209.177460 271.040985,205.640625 266.970367,202.103760 
z"/>
<path fill="#6B32ED" opacity="1.000000" stroke="none" 
	d="
M107.177490,273.470428 
	C111.498528,273.009155 115.737663,273.007080 120.431992,273.006775 
	C120.887169,277.934784 120.887169,282.861023 120.887169,288.158264 
	C116.436943,288.158264 112.090004,288.158264 107.095589,288.158264 
	C107.095589,283.344604 107.095589,278.637115 107.177490,273.470428 
z"/>
<path fill="#3579E2" opacity="1.000000" stroke="none" 
	d="
M170.772263,209.459045 
	C175.560577,208.766388 180.480621,208.406342 185.834747,207.981201 
	C187.872116,212.338058 189.475433,216.759979 190.625885,221.643295 
	C185.882248,222.402435 181.591461,222.700180 177.300690,222.997925 
	C175.168457,218.595825 173.036224,214.193741 170.772263,209.459045 
z"/>
<path fill="#3983E1" opacity="1.000000" stroke="none" 
	d="
M333.196655,204.405914 
	C337.716034,203.944733 342.220032,203.953094 347.111115,203.918152 
	C347.491547,208.351410 347.484924,212.827957 346.843262,217.660156 
	C341.952789,218.012146 337.697266,218.008453 333.441772,218.004745 
	C333.354950,213.628311 333.268127,209.251892 333.196655,204.405914 
z"/>
<path fill="#5354E8" opacity="1.000000" stroke="none" 
	d="
M348.826721,258.640076 
	C344.448975,259.041046 340.054138,259.037537 335.171600,259.056976 
	C334.207520,254.353745 333.731171,249.627579 333.787354,244.454651 
	C338.591278,244.005203 342.862732,244.002502 347.134155,243.999817 
	C347.692657,248.745102 348.251160,253.490372 348.826721,258.640076 
z"/>
<path fill="#3579E2" opacity="1.000000" stroke="none" 
	d="
M407.907288,222.000031 
	C403.598511,221.999954 399.289764,221.999863 394.521484,222.000183 
	C395.482300,217.456604 396.902649,212.912628 398.596191,208.166428 
	C403.645691,208.526245 408.421997,209.088272 413.436707,210.135925 
	C411.752502,214.414383 409.829895,218.207214 407.907288,222.000031 
z"/>
<path fill="#327DE1" opacity="1.000000" stroke="none" 
	d="
M666.993530,207.002258 
	C672.189026,206.514374 677.384583,206.026489 682.816040,205.224579 
	C685.108032,209.653976 687.164062,214.397415 688.724182,219.561371 
	C683.888550,219.986969 679.548767,219.992035 675.012756,219.694916 
	C672.208801,215.262573 669.601135,211.132431 666.993530,207.002258 
z"/>
<path fill="#653EEC" opacity="1.000000" stroke="none" 
	d="
M676.321045,280.766479 
	C674.338562,280.208893 672.725403,279.283844 671.019897,279.058929 
	C666.194946,278.422638 661.332153,278.073181 656.505005,277.085022 
	C661.302063,273.259827 666.078369,269.960327 670.954590,267.076355 
	C672.627136,267.993378 674.167603,268.698792 675.779236,268.952362 
	C678.797119,269.427155 681.856140,269.640198 684.898071,269.962128 
	C682.148132,273.547638 679.398193,277.133148 676.321045,280.766479 
z"/>
<path fill="#4565E6" opacity="1.000000" stroke="none" 
	d="
M297.550934,225.009674 
	C297.670990,230.033615 297.791016,235.057556 297.386597,240.542603 
	C292.609558,241.004883 288.356964,241.006073 284.028198,240.545593 
	C283.957672,235.389511 283.963318,230.695099 284.424316,226.000397 
	C289.103424,225.669952 293.327179,225.339813 297.550934,225.009674 
z"/>
<path fill="#199FD6" opacity="1.000000" stroke="none" 
	d="
M85.622818,187.594925 
	C81.323174,187.998856 77.106056,187.999329 72.272758,187.651016 
	C70.268974,182.926834 68.881371,178.551453 67.987411,174.126648 
	C73.027267,173.646988 77.573471,173.216736 82.119667,172.786499 
	C83.314888,177.588165 84.510109,182.389816 85.622818,187.594925 
z"/>
<path fill="#6244EB" opacity="1.000000" stroke="none" 
	d="
M782.354248,259.450439 
	C786.699219,258.995789 790.942749,258.998108 795.658997,259.000610 
	C796.194641,263.693939 796.257629,268.387054 795.749390,273.538940 
	C790.940186,274.000763 786.702209,274.003784 782.464233,274.006805 
	C782.393738,269.307007 782.323242,264.607178 782.354248,259.450439 
z"/>
<path fill="#5354E8" opacity="1.000000" stroke="none" 
	d="
M120.982941,256.547302 
	C116.645653,257.006836 112.395195,257.006287 107.698059,257.008026 
	C107.195160,252.314804 107.138947,247.619308 107.613785,242.463623 
	C112.394577,242.003708 116.644318,242.004013 120.894058,242.004303 
	C120.952637,246.698608 121.011215,251.392914 120.982941,256.547302 
z"/>
<path fill="#5354E8" opacity="1.000000" stroke="none" 
	d="
M725.642395,260.555115 
	C721.291321,260.999695 717.057800,260.990570 712.353882,260.968933 
	C711.825195,256.276062 711.766907,251.595734 712.267700,246.456360 
	C717.059265,246.003937 721.291687,246.010544 725.524170,246.017136 
	C725.602722,250.711884 725.681335,255.406631 725.642395,260.555115 
z"/>
<path fill="#13B1D2" opacity="1.000000" stroke="none" 
	d="
M555.304626,163.051270 
	C557.109619,162.217667 559.132385,161.417328 561.231201,161.043594 
	C564.763000,160.414703 568.343079,160.056793 571.999634,159.171814 
	C574.059814,160.807632 576.177002,162.734268 577.934570,164.946609 
	C579.190308,166.527313 579.963501,168.491379 580.570312,170.693420 
	C575.511536,171.386124 570.834290,171.669800 566.157104,171.953461 
	C562.623596,169.061096 559.090149,166.168716 555.304626,163.051270 
z"/>
<path fill="#653EEC" opacity="1.000000" stroke="none" 
	d="
M286.724823,278.035095 
	C281.721954,277.783661 276.995758,277.442780 272.283051,276.967957 
	C270.910797,276.829712 269.577118,276.308990 268.390594,275.372650 
	C272.034241,271.853821 275.513031,268.925903 279.454742,265.999207 
	C282.060394,266.000305 284.262543,265.688385 286.330139,266.082428 
	C288.680908,266.530457 290.911438,267.609406 293.194214,268.414093 
	C291.131683,271.574280 289.069153,274.734436 286.724823,278.035095 
z"/>
<path fill="#4C62E7" opacity="1.000000" stroke="none" 
	d="
M796.296265,242.667908 
	C791.864075,243.027496 787.591980,243.018265 782.886292,243.014740 
	C782.383728,238.983078 782.314697,234.945724 782.738647,230.437637 
	C787.532593,229.631454 791.833496,229.295975 796.134399,228.960510 
	C796.241760,233.406693 796.349121,237.852890 796.296265,242.667908 
z"/>
<path fill="#3579E2" opacity="1.000000" stroke="none" 
	d="
M297.618958,224.615723 
	C293.327179,225.339813 289.103424,225.669952 284.216736,225.677948 
	C282.272369,221.267365 280.990967,217.178970 279.709534,213.090576 
	C284.276825,212.710480 288.844086,212.330383 293.905029,211.918167 
	C295.494781,215.997955 296.590881,220.109863 297.618958,224.615723 
z"/>
<path fill="#554EE9" opacity="1.000000" stroke="none" 
	d="
M410.078491,261.979462 
	C405.682220,262.320282 401.286011,262.661102 396.427124,263.004272 
	C395.096313,258.622650 394.228180,254.238678 393.872437,249.436737 
	C398.750641,249.018051 403.116486,249.017303 407.554932,249.450394 
	C408.444519,253.915955 409.261505,257.947723 410.078491,261.979462 
z"/>
<path fill="#327DE1" opacity="1.000000" stroke="none" 
	d="
M107.169510,206.446228 
	C113.548790,206.000259 119.844246,205.943253 126.136063,206.068649 
	C127.071381,206.087296 127.989571,206.965240 128.998642,207.839905 
	C127.448860,210.645782 125.816124,213.057388 123.514221,215.735352 
	C117.648117,216.001556 112.451172,216.001404 107.254227,216.001266 
	C107.197647,212.965591 107.141068,209.929932 107.169510,206.446228 
z"/>
<path fill="#6F4BED" opacity="1.000000" stroke="none" 
	d="
M533.654541,273.966064 
	C528.662720,274.754639 523.355713,275.319855 518.065674,276.014221 
	C516.079895,276.274811 514.133484,276.835388 512.070679,277.659485 
	C509.439911,274.920258 506.907593,271.780762 504.719879,268.302124 
	C507.788879,267.644867 510.523834,267.396301 513.234192,266.985413 
	C515.224854,266.683594 517.183411,266.169067 519.156250,265.749329 
	C523.886230,268.430908 528.616150,271.112518 533.654541,273.966064 
z"/>
<path fill="#3579E2" opacity="1.000000" stroke="none" 
	d="
M898.081177,220.537994 
	C893.871277,221.322647 889.600037,221.710281 884.681274,221.849701 
	C882.130920,217.730362 880.228088,213.859253 878.727051,209.977966 
	C884.086670,209.645416 889.044495,209.323044 894.002319,209.000671 
	C895.341492,212.714096 896.680664,216.427536 898.081177,220.537994 
z"/>
<path fill="#3D6AE4" opacity="1.000000" stroke="none" 
	d="
M675.208984,219.997101 
	C679.548767,219.992035 683.888550,219.986969 688.704651,219.968307 
	C689.531311,224.333038 689.881592,228.711365 689.679382,233.545898 
	C684.861694,233.999298 680.596558,233.996475 676.249329,233.541534 
	C675.847900,228.725311 675.528442,224.361206 675.208984,219.997101 
z"/>
<path fill="#3B70E4" opacity="1.000000" stroke="none" 
	d="
M107.169159,216.457626 
	C112.451172,216.001404 117.648117,216.001556 123.293350,216.001358 
	C122.852592,220.066406 121.963547,224.131790 120.530548,228.598724 
	C115.742386,228.999161 111.498184,228.998077 107.253983,228.996994 
	C107.197350,224.969330 107.140717,220.941650 107.169159,216.457626 
z"/>
<path fill="#09BDCE" opacity="1.000000" stroke="none" 
	d="
M107.254295,160.986954 
	C107.254295,156.544724 107.254295,152.102493 107.254295,147.378113 
	C111.781876,147.378113 116.033615,147.378113 121.066483,147.378113 
	C121.066483,151.603973 121.066483,155.839767 120.524246,160.535812 
	C115.739441,160.993027 111.496864,160.989990 107.254295,160.986954 
z"/>
<path fill="#327DE1" opacity="1.000000" stroke="none" 
	d="
M774.169250,208.226456 
	C776.545654,207.277191 779.029480,206.403381 781.583923,206.068924 
	C783.985840,205.754410 786.462219,206.009155 789.358154,206.025879 
	C791.509399,209.783676 793.208374,213.529007 794.420654,217.642578 
	C789.515564,218.045059 785.097229,218.079285 780.678833,218.113525 
	C778.555054,214.921494 776.431274,211.729462 774.169250,208.226456 
z"/>
<path fill="#3B70E4" opacity="1.000000" stroke="none" 
	d="
M333.346252,218.460709 
	C337.697266,218.008453 341.952789,218.012146 346.681366,218.032333 
	C347.206635,222.395355 347.258820,226.741867 346.749603,231.545486 
	C341.943604,231.995651 337.698944,231.988724 333.454315,231.981796 
	C333.386475,227.626755 333.318604,223.271713 333.346252,218.460709 
z"/>
<path fill="#5354E8" opacity="1.000000" stroke="none" 
	d="
M284.104401,241.007278 
	C288.356964,241.006073 292.609558,241.004883 297.309265,241.004105 
	C297.720764,245.381897 297.685059,249.759293 297.031921,254.566254 
	C292.092010,254.944870 287.769562,254.893936 283.485168,254.388489 
	C283.716919,249.625092 283.910675,245.316177 284.104401,241.007278 
z"/>
<path fill="#6B32ED" opacity="1.000000" stroke="none" 
	d="
M782.365845,274.462677 
	C786.702209,274.003784 790.940186,274.000763 795.649963,273.996338 
	C796.121704,278.579346 796.121704,283.163727 796.121704,288.031677 
	C791.437988,288.031677 787.084290,288.031677 782.267578,288.031677 
	C782.267578,283.451935 782.267578,279.185242 782.365845,274.462677 
z"/>
<path fill="#6B32ED" opacity="1.000000" stroke="none" 
	d="
M191.665466,274.018341 
	C191.665466,278.600159 191.665466,283.181946 191.665466,288.055786 
	C187.114700,288.055786 182.876389,288.055786 177.889343,288.055786 
	C177.889343,283.721710 177.889343,279.323792 178.428497,274.463470 
	C183.200256,274.006836 187.432861,274.012604 191.665466,274.018341 
z"/>
<path fill="#4C62E7" opacity="1.000000" stroke="none" 
	d="
M226.937897,248.001953 
	C222.689926,248.003357 218.441940,248.004761 213.750992,248.009644 
	C213.250427,243.645416 213.192841,239.277725 213.664322,234.453217 
	C218.441391,233.996979 222.689392,233.997543 227.018417,234.457001 
	C227.045593,239.277908 226.991745,243.639923 226.937897,248.001953 
z"/>
<path fill="#199FD6" opacity="1.000000" stroke="none" 
	d="
M107.258545,185.993332 
	C107.200958,181.966614 107.143364,177.939911 107.617737,173.456436 
	C112.397110,172.999161 116.644524,172.998627 120.891922,172.998093 
	C120.947784,177.359024 121.003647,181.719955 120.527252,186.539246 
	C115.749512,186.662857 111.504028,186.328094 107.258545,185.993332 
z"/>
<path fill="#3579E2" opacity="1.000000" stroke="none" 
	d="
M711.805054,210.453308 
	C716.227783,210.002304 720.564636,209.854721 724.882629,210.075043 
	C726.549133,210.160080 728.173096,211.080475 730.015625,212.001419 
	C728.972168,215.411362 727.729492,218.440170 725.841064,221.737183 
	C720.761658,221.670547 716.328003,221.335693 711.894287,221.000854 
	C711.833374,217.635117 711.772461,214.269348 711.805054,210.453308 
z"/>
<path fill="#3579E2" opacity="1.000000" stroke="none" 
	d="
M217.747620,209.232925 
	C221.015335,209.337814 224.029816,209.592056 227.017075,210.031387 
	C228.645691,210.270920 230.228165,210.824295 231.839752,211.975128 
	C230.466232,215.882828 229.084366,219.051498 227.197647,222.162048 
	C222.434723,222.068359 218.176666,222.032761 213.918610,221.997162 
	C215.106750,217.817917 216.294891,213.638672 217.747620,209.232925 
z"/>
<path fill="#2E85DF" opacity="1.000000" stroke="none" 
	d="
M893.953369,208.649841 
	C889.044495,209.323044 884.086670,209.645416 878.454590,209.756897 
	C874.511047,207.062531 871.241882,204.579056 867.972717,202.095581 
	C869.371033,201.397339 870.716858,200.256714 872.177429,200.083344 
	C876.664612,199.550751 881.195801,199.388657 886.136230,198.892532 
	C889.009888,201.901352 891.457092,205.100189 893.953369,208.649841 
z"/>
<path fill="#3D6AE4" opacity="1.000000" stroke="none" 
	d="
M177.282410,223.406982 
	C181.591461,222.700180 185.882248,222.402435 190.584702,222.052536 
	C191.279373,226.365189 191.562378,230.729980 191.317810,235.542877 
	C186.541016,235.992111 182.291809,235.993240 178.042603,235.994354 
	C177.783112,231.934906 177.523621,227.875473 177.282410,223.406982 
z"/>
<path fill="#13B1D2" opacity="1.000000" stroke="none" 
	d="
M347.223511,171.545105 
	C342.861633,172.001205 338.595428,172.002045 333.896088,172.006378 
	C333.390930,167.974091 333.318939,163.938339 333.785461,159.449768 
	C338.592773,158.999756 342.861572,159.002563 347.130371,159.005371 
	C347.193298,163.033539 347.256256,167.061691 347.223511,171.545105 
z"/>
<path fill="#6244EB" opacity="1.000000" stroke="none" 
	d="
M191.760056,273.562042 
	C187.432861,274.012604 183.200256,274.006836 178.508331,274.002625 
	C177.992020,269.974579 177.934998,265.944977 178.421127,261.458313 
	C183.199341,261.002136 187.434418,261.003052 191.669495,261.003998 
	C191.731201,265.037903 191.792923,269.071838 191.760056,273.562042 
z"/>
<path fill="#554EE9" opacity="1.000000" stroke="none" 
	d="
M191.758453,260.547791 
	C187.434418,261.003052 183.199341,261.002136 178.504639,261.001465 
	C177.991547,256.973297 177.938080,252.944931 178.423035,248.457977 
	C183.198730,248.004105 187.436020,248.008835 191.673294,248.013550 
	C191.731339,252.039566 191.789383,256.065552 191.758453,260.547791 
z"/>
<path fill="#4565E6" opacity="1.000000" stroke="none" 
	d="
M107.168274,229.453552 
	C111.498184,228.998077 115.742386,228.999161 120.442574,229.000000 
	C120.954765,233.029953 121.010963,237.060150 120.980614,241.547333 
	C116.644318,242.004013 112.394577,242.003708 107.698181,242.004913 
	C107.195206,237.974304 107.138885,233.942200 107.168274,229.453552 
z"/>
<path fill="#4565E6" opacity="1.000000" stroke="none" 
	d="
M478.032898,242.547455 
	C473.674225,243.000626 469.410797,243.000610 464.613220,242.544189 
	C464.136139,238.057602 464.193146,234.027405 464.695709,229.997864 
	C469.405457,230.323547 473.669708,230.648605 477.933929,230.973663 
	C477.998657,234.680542 478.063385,238.387405 478.032898,242.547455 
z"/>
<path fill="#5D6DE9" opacity="1.000000" stroke="none" 
	d="
M407.482330,249.016571 
	C403.116486,249.017303 398.750641,249.018051 393.961304,249.044067 
	C393.449677,245.323563 393.361603,241.577759 393.402954,237.380402 
	C397.894592,236.950668 402.256805,236.972519 407.149719,237.440796 
	C407.614380,241.597015 407.548370,245.306793 407.482330,249.016571 
z"/>
<path fill="#3D6AE4" opacity="1.000000" stroke="none" 
	d="
M711.804321,221.457001 
	C716.328003,221.335693 720.761658,221.670547 725.625977,222.012512 
	C725.953369,225.708633 725.850220,229.397659 725.203125,233.538727 
	C720.402405,233.995758 716.145569,234.000732 711.888733,234.005692 
	C711.830566,229.974838 711.772461,225.943985 711.804321,221.457001 
z"/>
<path fill="#426FE5" opacity="1.000000" stroke="none" 
	d="
M605.703735,234.928482 
	C605.728943,231.220169 605.754211,227.511871 606.364258,223.401169 
	C611.252319,222.996582 615.555603,222.994385 619.903687,223.451797 
	C619.801270,227.602997 619.654053,231.294601 619.073792,234.993317 
	C614.328369,234.976456 610.016052,234.952469 605.703735,234.928482 
z"/>
<path fill="#2591DB" opacity="1.000000" stroke="none" 
	d="
M583.172241,194.674683 
	C578.610657,194.705154 574.265198,194.417709 569.514404,194.083038 
	C569.409851,190.646362 569.710693,187.256912 570.527527,183.435150 
	C575.304443,183.003082 579.565430,183.003342 583.826416,183.003586 
	C583.680420,186.787979 583.534363,190.572372 583.172241,194.674683 
z"/>
<path fill="#5354E8" opacity="1.000000" stroke="none" 
	d="
M690.066772,245.976364 
	C689.935791,249.716187 689.804749,253.456009 689.062256,257.594391 
	C684.043884,257.996124 679.637146,257.999268 675.213318,257.592712 
	C675.572937,253.456360 675.949524,249.729706 676.770752,246.002167 
	C681.499146,245.992966 685.782959,245.984665 690.066772,245.976364 
z"/>
<path fill="#5D4AEA" opacity="1.000000" stroke="none" 
	d="
M519.048279,265.426331 
	C517.183411,266.169067 515.224854,266.683594 513.234192,266.985413 
	C510.523834,267.396301 507.788879,267.644867 504.661499,267.971436 
	C502.880310,264.244232 501.502136,260.508606 500.611877,256.387115 
	C505.403046,256.001221 509.706268,256.001221 514.009521,256.001221 
	C515.653137,259.035248 517.296692,262.069275 519.048279,265.426331 
z"/>
<path fill="#3B70E4" opacity="1.000000" stroke="none" 
	d="
M478.079407,230.679932 
	C473.669708,230.648605 469.405457,230.323547 464.609680,229.573715 
	C463.535645,225.493347 462.993164,221.837769 462.946136,218.132355 
	C467.869049,218.055969 472.296509,218.029388 476.723938,218.002808 
	C477.224274,222.130600 477.724579,226.258408 478.079407,230.679932 
z"/>
<path fill="#5D4AEA" opacity="1.000000" stroke="none" 
	d="
M675.230347,258.002441 
	C679.637146,257.999268 684.043884,257.996124 688.861938,257.983032 
	C687.983704,261.813385 686.694336,265.653687 685.151489,269.728058 
	C681.856140,269.640198 678.797119,269.427155 675.779236,268.952362 
	C674.167603,268.698792 672.627136,267.993378 671.046265,266.755066 
	C672.435486,263.346313 673.832947,260.674408 675.230347,258.002441 
z"/>
<path fill="#5D4AEA" opacity="1.000000" stroke="none" 
	d="
M283.447144,254.843002 
	C287.769562,254.893936 292.092010,254.944870 296.828064,254.986206 
	C296.075470,259.296417 294.909241,263.616211 293.468628,268.175049 
	C290.911438,267.609406 288.680908,266.530457 286.330139,266.082428 
	C284.262543,265.688385 282.060394,266.000305 279.557678,265.658081 
	C280.614166,261.824829 282.030670,258.333923 283.447144,254.843002 
z"/>
<path fill="#199FD6" opacity="1.000000" stroke="none" 
	d="
M583.897766,182.586914 
	C579.565430,183.003342 575.304443,183.003082 570.589111,183.003311 
	C568.877197,179.549301 567.619690,176.094818 566.259644,172.296906 
	C570.834290,171.669800 575.511536,171.386124 580.603271,171.049805 
	C582.001587,174.721497 582.985352,178.445862 583.897766,182.586914 
z"/>
<path fill="#4C62E7" opacity="1.000000" stroke="none" 
	d="
M503.300690,233.056763 
	C508.195374,233.227875 512.862976,233.649963 518.034058,234.115356 
	C517.038757,237.553192 515.540039,240.947693 513.438232,244.672211 
	C508.580048,244.670044 504.324890,244.337830 500.069733,244.005630 
	C501.071045,240.439667 502.072327,236.873688 503.300690,233.056763 
z"/>
<path fill="#5354E8" opacity="1.000000" stroke="none" 
	d="
M606.691345,258.105194 
	C606.283752,254.680573 605.876160,251.255951 605.956299,247.401428 
	C610.796265,246.653091 615.148499,246.334641 619.596313,246.465240 
	C620.010620,250.532379 620.329346,254.150482 620.145264,257.830139 
	C615.325439,257.962891 611.008423,258.034027 606.691345,258.105194 
z"/>
<path fill="#6B32ED" opacity="1.000000" stroke="none" 
	d="
M711.805664,276.488770 
	C716.146912,276.022400 720.399841,276.013092 725.083496,276.003082 
	C725.514099,279.916168 725.514099,283.829926 725.514099,288.045776 
	C721.017334,288.045776 716.785339,288.045776 711.717468,288.045776 
	C711.717468,284.374084 711.717468,280.659943 711.805664,276.488770 
z"/>
<path fill="#09BDCE" opacity="1.000000" stroke="none" 
	d="
M347.224365,158.548401 
	C342.861572,159.002563 338.592773,158.999756 333.890198,158.997925 
	C333.456390,155.219208 333.456390,151.439545 333.456390,147.395721 
	C338.116028,147.395721 342.505981,147.395721 347.318329,147.395721 
	C347.318329,151.161469 347.318329,154.626450 347.224365,158.548401 
z"/>
<path fill="#4C62E7" opacity="1.000000" stroke="none" 
	d="
M333.350311,232.433655 
	C337.698944,231.988724 341.943604,231.995651 346.661163,232.003571 
	C347.194977,235.700638 347.255829,239.396744 347.225433,243.546326 
	C342.862732,244.002502 338.591278,244.005203 333.886414,244.013489 
	C333.384094,240.307907 333.315216,236.596710 333.350311,232.433655 
z"/>
<path fill="#4C62E7" opacity="1.000000" stroke="none" 
	d="
M690.156311,245.524323 
	C685.782959,245.984665 681.499146,245.992966 676.684692,245.548096 
	C676.213196,241.394516 676.272278,237.694092 676.331360,233.993652 
	C680.596558,233.996475 684.861694,233.999298 689.593506,234.002579 
	C690.122009,237.692795 690.183960,241.382538 690.156311,245.524323 
z"/>
<path fill="#13B1D2" opacity="1.000000" stroke="none" 
	d="
M120.980759,172.544678 
	C116.644524,172.998627 112.397110,172.999161 107.703247,173.000366 
	C107.197311,169.299423 107.137825,165.597794 107.166313,161.441559 
	C111.496864,160.989990 115.739441,160.993027 120.437714,160.994446 
	C120.952141,164.692307 121.010872,168.391785 120.980759,172.544678 
z"/>
<path fill="#4C62E7" opacity="1.000000" stroke="none" 
	d="
M711.795715,234.458405 
	C716.145569,234.000732 720.402405,233.995758 725.089844,233.983704 
	C725.601135,237.690781 725.681885,241.404938 725.643433,245.568115 
	C721.291687,246.010544 717.059265,246.003937 712.355408,245.996658 
	C711.823547,242.301025 711.763123,238.606064 711.795715,234.458405 
z"/>
<path fill="#5D6DE9" opacity="1.000000" stroke="none" 
	d="
M619.500732,246.016190 
	C615.148499,246.334641 610.796265,246.653091 606.079956,247.024399 
	C605.608704,243.324371 605.501526,239.571472 605.549072,235.373535 
	C610.016052,234.952469 614.328369,234.976456 619.196350,235.438889 
	C619.668274,239.256943 619.584534,242.636566 619.500732,246.016190 
z"/>
<path fill="#4C62E7" opacity="1.000000" stroke="none" 
	d="
M191.765381,247.559692 
	C187.436020,248.008835 183.198730,248.004105 178.501587,248.000397 
	C177.985489,244.302292 177.929276,240.603195 177.957825,236.449219 
	C182.291809,235.993240 186.541016,235.992111 191.232010,235.986801 
	C191.735016,239.690353 191.796249,243.398102 191.765381,247.559692 
z"/>
<path fill="#3D6AE4" opacity="1.000000" stroke="none" 
	d="
M213.722946,222.358994 
	C218.176666,222.032761 222.434723,222.068359 227.164795,222.610168 
	C227.403687,226.743622 227.170532,230.370865 226.937393,233.998108 
	C222.689392,233.997543 218.441391,233.996979 213.750351,233.995621 
	C213.380630,230.236832 213.453964,226.478836 213.722946,222.358994 
z"/>
<path fill="#3579E2" opacity="1.000000" stroke="none" 
	d="
M619.858948,222.992188 
	C615.555603,222.994385 611.252319,222.996582 606.487305,222.997162 
	C606.875854,219.516724 607.726013,216.037888 609.279358,212.281708 
	C614.781555,212.045914 619.580627,212.087463 624.270569,212.479462 
	C622.727356,216.217346 621.293152,219.604767 619.858948,222.992188 
z"/>
<path fill="#5354E8" opacity="1.000000" stroke="none" 
	d="
M499.929626,244.378052 
	C504.324890,244.337830 508.580048,244.670044 513.274109,245.002167 
	C513.841858,248.363602 513.970703,251.725098 514.054565,255.543915 
	C509.706268,256.001221 505.403046,256.001221 500.648804,256.001831 
	C500.061707,252.251785 499.925629,248.501144 499.929626,244.378052 
z"/>
<path fill="#3B70E4" opacity="1.000000" stroke="none" 
	d="
M780.715576,218.532898 
	C785.097229,218.079285 789.515564,218.045059 794.389282,218.020721 
	C795.325745,221.377960 795.806885,224.725327 796.211304,228.516602 
	C791.833496,229.295975 787.532593,229.631454 782.842285,229.985992 
	C781.886108,226.320801 781.319214,222.636536 780.715576,218.532898 
z"/>
<path fill="#13B1D2" opacity="1.000000" stroke="none" 
	d="
M82.083740,172.434143 
	C77.573471,173.216736 73.027267,173.646988 67.755043,173.918793 
	C64.896950,171.430298 62.764881,169.100250 60.632812,166.770203 
	C62.667133,166.180405 64.672279,165.441696 66.742683,165.036072 
	C69.763939,164.444168 72.832085,164.091675 75.977669,163.227661 
	C78.066002,165.906052 80.056908,168.993912 82.083740,172.434143 
z"/>
<path fill="#5D4AEA" opacity="1.000000" stroke="none" 
	d="
M606.715454,258.507141 
	C611.008423,258.034027 615.325439,257.962891 620.306763,258.115662 
	C622.686707,261.546387 624.402405,264.753204 626.118103,267.960022 
	C621.234253,268.459961 616.350342,268.959930 611.216797,269.755188 
	C609.557922,266.336670 608.148743,262.622864 606.715454,258.507141 
z"/>
<path fill="#327DE1" opacity="1.000000" stroke="none" 
	d="
M476.751038,217.639420 
	C472.296509,218.029388 467.869049,218.055969 462.754395,217.878387 
	C460.688232,215.173920 459.309235,212.673584 458.154327,209.868378 
	C463.176239,209.043610 467.974060,208.523712 472.771881,208.003799 
	C474.107300,211.094543 475.442688,214.185287 476.751038,217.639420 
z"/>
<path fill="#2E85DF" opacity="1.000000" stroke="none" 
	d="
M624.379639,212.128998 
	C619.580627,212.087463 614.781555,212.045914 609.518311,212.009613 
	C610.838196,208.781525 612.622314,205.548218 614.692871,202.138794 
	C617.406677,202.641785 619.800842,203.506287 622.270569,203.950180 
	C624.984070,204.437897 627.767273,204.538345 630.733826,205.257202 
	C628.758301,207.847610 626.568970,209.988312 624.379639,212.128998 
z"/>
<path fill="#2591DB" opacity="1.000000" stroke="none" 
	d="
M107.170776,186.444733 
	C111.504028,186.328094 115.749512,186.662857 120.440964,186.996872 
	C120.946167,190.032211 121.005394,193.068298 120.977608,196.551865 
	C116.642906,196.999527 112.395203,196.999695 107.701019,197.000275 
	C107.197357,193.632492 107.140182,190.264328 107.170776,186.444733 
z"/>
<path fill="#2D92DD" opacity="1.000000" stroke="none" 
	d="
M725.646484,197.590668 
	C721.290955,198.022537 717.057129,198.016068 712.352661,198.018677 
	C711.719543,195.296936 711.557129,192.566116 711.375183,189.507675 
	C716.281372,189.507675 720.640076,189.507675 725.768188,189.507675 
	C725.768188,192.061798 725.768188,194.607086 725.646484,197.590668 
z"/>
<path fill="#3B70E4" opacity="1.000000" stroke="none" 
	d="
M815.989624,216.335846 
	C820.580383,216.320648 824.982727,216.635498 829.778564,217.395996 
	C829.478821,220.235504 828.785400,222.629379 828.092041,225.023254 
	C823.836365,225.017197 819.580750,225.011139 814.891724,225.009308 
	C814.905945,222.230972 815.353577,219.448441 815.989624,216.335846 
z"/>
<path fill="#2E85DF" opacity="1.000000" stroke="none" 
	d="
M472.734985,207.685074 
	C467.974060,208.523712 463.176239,209.043610 457.869568,209.713501 
	C455.852203,208.396194 454.343750,206.928894 452.835266,205.461578 
	C455.537506,204.641052 458.193817,203.549454 460.955780,203.081406 
	C463.388123,202.669205 465.938599,202.954010 468.933411,202.884140 
	C470.519287,204.346954 471.608704,205.856659 472.734985,207.685074 
z"/>
<path fill="#6F4BED" opacity="1.000000" stroke="none" 
	d="
M584.185730,277.748535 
	C583.680054,277.045074 583.323669,276.079956 582.957520,274.784576 
	C583.410217,275.465179 583.872620,276.476013 584.185730,277.748535 
z"/>
<path fill="#2D92DD" opacity="1.000000" stroke="none" 
	d="
M726.684814,202.401489 
	C726.702148,202.803436 726.315063,203.261215 725.927917,203.719009 
	C725.697937,203.354446 725.467957,202.989868 725.368164,202.424561 
	C725.758972,202.301666 726.019714,202.379486 726.684814,202.401489 
z"/>
<path fill="#FCFDFE" opacity="1.000000" stroke="none" 
	d="
M60.296524,166.622742 
	C62.764881,169.100250 64.896950,171.430298 67.261383,173.968201 
	C68.881371,178.551453 70.268974,182.926834 71.808060,187.650742 
	C70.912880,192.707993 69.866234,197.416748 68.742279,202.509613 
	C64.211838,206.949005 59.758713,211.004257 55.057007,215.261597 
	C45.102451,216.241394 35.405300,217.181259 25.685793,217.710388 
	C22.199127,217.900208 18.658539,217.099579 14.988216,216.371735 
	C14.888362,210.303360 14.942850,204.614212 14.914097,198.463684 
	C14.889246,193.308777 14.947635,188.615219 14.920422,183.462921 
	C14.891253,178.309189 14.947686,173.614227 14.916494,168.460709 
	C14.986144,165.901184 15.143417,163.800186 15.401464,160.352982 
	C28.056389,161.260010 40.483936,161.995331 52.869690,163.170959 
	C55.315708,163.403137 57.600876,165.329971 60.296524,166.622742 
z"/>
<path fill="#FCFDFE" opacity="1.000000" stroke="none" 
	d="
M828.149231,225.443512 
	C828.785400,222.629379 829.478821,220.235504 830.205872,217.456360 
	C833.740417,212.996429 837.241272,208.921768 840.922058,204.577377 
	C849.474487,199.875717 858.135254,198.763794 867.575073,202.069366 
	C871.241882,204.579056 874.511047,207.062531 878.052795,209.767075 
	C880.228088,213.859253 882.130920,217.730362 884.183716,221.904663 
	C884.477722,223.981598 884.621887,225.755341 884.816345,228.148926 
	C880.812256,228.148926 877.194275,228.148865 873.576294,228.148926 
	C859.923340,228.149200 846.269470,228.219223 832.618591,228.049515 
	C831.139038,228.031113 829.676758,226.625778 828.149231,225.443512 
z"/>
<path fill="#FDFEFF" opacity="1.000000" stroke="none" 
	d="
M452.493713,205.324188 
	C454.343750,206.928894 455.852203,208.396194 457.645447,210.018387 
	C459.309235,212.673584 460.688232,215.173920 462.258972,217.928207 
	C462.993164,221.837769 463.535645,225.493347 464.164154,229.573090 
	C464.193146,234.027405 464.136139,238.057602 464.164551,242.544342 
	C463.800812,248.041428 463.351654,253.081955 462.898254,258.546814 
	C458.999542,263.771088 455.105103,268.571014 451.009033,273.644623 
	C441.722534,278.437225 432.504211,279.302094 422.731018,274.873413 
	C418.441528,270.677460 414.515564,266.539154 410.334045,262.190155 
	C409.261505,257.947723 408.444519,253.915955 407.554932,249.450394 
	C407.548370,245.306793 407.614380,241.597015 407.581726,237.434875 
	C407.640320,232.298904 407.797577,227.615265 407.931091,222.465836 
	C409.829895,218.207214 411.752502,214.414383 413.783997,210.296951 
	C426.611511,197.462204 440.270538,198.082840 452.493713,205.324188 
z"/>
<path fill="#FDFDFF" opacity="1.000000" stroke="none" 
	d="
M227.018417,234.457001 
	C227.170532,230.370865 227.403687,226.743622 227.669678,222.668274 
	C229.084366,219.051498 230.466232,215.882828 231.929443,212.371002 
	C236.542816,208.635513 241.074844,205.243179 245.870819,201.657074 
	C252.874023,199.539642 259.550873,199.748795 266.568451,202.076614 
	C271.040985,205.640625 275.111633,209.177460 279.445892,212.902435 
	C280.990967,217.178970 282.272369,221.267365 283.761353,225.678223 
	C283.963318,230.695099 283.957672,235.389511 284.028198,240.545593 
	C283.910675,245.316177 283.716919,249.625092 283.485168,254.388489 
	C282.030670,258.333923 280.614166,261.824829 279.094757,265.656860 
	C275.513031,268.925903 272.034241,271.853821 268.279236,274.993835 
	C260.051453,278.337616 252.065353,278.862427 243.637375,275.419342 
	C239.058899,271.330444 234.871124,267.345795 230.427383,263.157227 
	C229.144012,258.245209 228.116592,253.537125 227.013535,248.415497 
	C226.991745,243.639923 227.045593,239.277908 227.018417,234.457001 
z"/>
<path fill="#FDFEFF" opacity="1.000000" stroke="none" 
	d="
M624.270569,212.479462 
	C626.568970,209.988312 628.758301,207.847610 631.137817,205.426544 
	C643.347595,198.210052 655.045959,198.145432 666.665649,206.892090 
	C669.601135,211.132431 672.208801,215.262573 675.012695,219.694916 
	C675.528442,224.361206 675.847900,228.725311 676.249329,233.541534 
	C676.272278,237.694092 676.213196,241.394516 676.240112,245.549011 
	C675.949524,249.729706 675.572937,253.456360 675.213318,257.592743 
	C673.832947,260.674408 672.435486,263.346313 670.946411,266.339539 
	C666.078369,269.960327 661.302063,273.259827 656.263733,276.783936 
	C650.940125,277.014771 645.878540,277.021057 640.403687,277.040070 
	C635.564941,274.117859 631.139404,271.182922 626.416016,268.104004 
	C624.402405,264.753204 622.686707,261.546387 620.809570,258.054077 
	C620.329346,254.150482 620.010620,250.532379 619.596313,246.465240 
	C619.584534,242.636566 619.668274,239.256943 619.629456,235.431763 
	C619.654053,231.294601 619.801270,227.602997 619.903687,223.451813 
	C621.293152,219.604767 622.727356,216.217346 624.270569,212.479462 
z"/>
</svg>